EncodeSans-ExtraLight.ufo
<glyph name="exclam" format="2">
  <advance width="457.9548181818182"/>
  <unicode hex="0021"/>
  <outline>
    <contour>
      <point x="199.27931818181818" y="328.06654545454546" type="line"/>
      <point x="258.9548181818182" y="328.06654545454546" type="line"/>
      <point x="275.59150000000005" y="895.9215454545455" type="line"/>
      <point x="275.59150000000005" y="1480.0" type="line"/>
      <point x="182.36331818181816" y="1480.0" type="line"/>
      <point x="182.36331818181816" y="895.9215454545455" type="line"/>
    </contour>
    <contour>
      <point x="228.9774090909091" y="-10.558636363636365" type="curve" smooth="yes"/>
      <point x="272.07209090909095" y="-10.558636363636365"/>
      <point x="302.48531818181823" y="17.407681818181825"/>
      <point x="302.48531818181823" y="61.16163636363638" type="curve" smooth="yes"/>
      <point x="302.48531818181823" y="104.91559090909094"/>
      <point x="272.2955454545455" y="134.77018181818187"/>
      <point x="228.9774090909091" y="134.77018181818187" type="curve" smooth="yes"/>
      <point x="185.6592727272727" y="134.77018181818187"/>
      <point x="155.46949999999998" y="105.13904545454548"/>
      <point x="155.46949999999998" y="61.16163636363638" type="curve" smooth="yes"/>
      <point x="155.46949999999998" y="17.18422727272728"/>
      <point x="185.88272727272727" y="-10.558636363636365"/>
    </contour>
  </outline>
</glyph>
<glyph name="numbersign" format="2">
  <advance width="1112.29"/>
  <unicode hex="0023"/>
  <outline>
    <contour>
      <point x="618.675909090909" y="0.0" type="line"/>
      <point x="698.9211363636364" y="0.0" type="line"/>
      <point x="852.9211363636364" y="1480.0" type="line"/>
      <point x="772.675909090909" y="1480.0" type="line"/>
    </contour>
    <contour>
      <point x="100.0" y="485.95563636363636" type="line"/>
      <point x="1012.2900000000001" y="485.95563636363636" type="line"/>
      <point x="1012.2900000000001" y="565.9215454545455" type="line"/>
      <point x="100.0" y="565.9215454545455" type="line"/>
    </contour>
    <contour>
      <point x="259.36886363636364" y="0.0" type="line"/>
      <point x="339.6140909090909" y="0.0" type="line"/>
      <point x="493.6140909090909" y="1480.0" type="line"/>
      <point x="413.36886363636364" y="1480.0" type="line"/>
    </contour>
    <contour>
      <point x="100.0" y="914.0784545454545" type="line"/>
      <point x="1012.2900000000001" y="914.0784545454545" type="line"/>
      <point x="1012.2900000000001" y="994.0443636363636" type="line"/>
      <point x="100.0" y="994.0443636363636" type="line"/>
    </contour>
  </outline>
</glyph>
<glyph name="dollar" format="2">
  <advance width="1021.3961818181818"/>
  <unicode hex="0024"/>
  <outline>
    <contour>
      <point x="442.5808181818182" y="-18.111727272727272" type="curve" smooth="yes"/>
      <point x="760.1671818181818" y="-18.111727272727272"/>
      <point x="938.7983181818182" y="125.40213636363637"/>
      <point x="938.7983181818182" y="384.52495454545453" type="curve" smooth="yes"/>
      <point x="938.7983181818182" y="593.145"/>
      <point x="817.8486363636364" y="713.2622727272727"/>
      <point x="550.1727272727273" y="781.4857272727273" type="curve" smooth="yes"/>
      <point x="484.2622727272727" y="798.4912727272728" type="line" smooth="yes"/>
      <point x="259.0217727272728" y="857.7595"/>
      <point x="174.59704545454548" y="940.3518181818182"/>
      <point x="174.59704545454548" y="1112.0336818181818" type="curve" smooth="yes"/>
      <point x="174.59704545454548" y="1307.0451818181818"/>
      <point x="303.23968181818185" y="1416.5257727272726"/>
      <point x="568.5079090909092" y="1416.5257727272726" type="curve" smooth="yes"/>
      <point x="672.5079090909092" y="1416.5257727272726"/>
      <point x="775.1838181818182" y="1402.4140454545454"/>
      <point x="879.3458636363637" y="1369.9168181818181" type="curve"/>
      <point x="879.3458636363637" y="1453.5027727272727" type="line"/>
      <point x="788.1224090909091" y="1483.0558636363637"/>
      <point x="674.3403181818182" y="1498.1117272727272"/>
      <point x="570.5526818181818" y="1498.1117272727272" type="curve" smooth="yes"/>
      <point x="247.94968181818183" y="1498.1117272727272"/>
      <point x="82.59786363636363" y="1348.4916818181819"/>
      <point x="82.59786363636363" y="1106.9722727272726" type="curve" smooth="yes"/>
      <point x="82.59786363636363" y="899.2963636363636"/>
      <point x="203.6592727272727" y="778.1790909090909"/>
      <point x="451.7206818181818" y="714.1232272727273" type="curve" smooth="yes"/>
      <point x="517.6311363636364" y="697.1176818181818" type="line" smooth="yes"/>
      <point x="751.7095909090909" y="635.6818636363636"/>
      <point x="846.7991363636363" y="556.6985"/>
      <point x="846.7991363636363" y="380.0166363636364" type="curve" smooth="yes"/>
      <point x="846.7991363636363" y="171.6196363636364"/>
      <point x="712.8827272727273" y="63.474227272727305"/>
      <point x="445.91045454545457" y="63.474227272727305" type="curve" smooth="yes"/>
      <point x="341.9049090909091" y="63.474227272727305"/>
      <point x="224.21790909090907" y="80.92113636363639"/>
      <point x="100.16204545454545" y="122.69768181818185" type="curve"/>
      <point x="100.16204545454545" y="39.11172727272727" type="line"/>
      <point x="211.94413636363637" y="0.16759090909090935"/>
      <point x="336.95522727272726" y="-18.111727272727272"/>
    </contour>
    <contour>
      <point x="470.25713636363633" y="-240.0" type="line"/>
      <point x="553.0273181818183" y="-240.0" type="line"/>
      <point x="553.0273181818183" y="13.910454545454554" type="line"/>
      <point x="470.25713636363633" y="4.4690909090909186" type="line"/>
    </contour>
    <contour>
      <point x="470.25713636363633" y="1476.648181818182" type="line"/>
      <point x="553.0273181818183" y="1476.648181818182" type="line"/>
      <point x="553.0273181818183" y="1720.0" type="line"/>
      <point x="470.25713636363633" y="1720.0" type="line"/>
    </contour>
  </outline>
</glyph>
<glyph name="percent" format="2">
  <advance width="1734.1160454545457"/>
  <unicode hex="0025"/>
  <note>
450
</note>
  <outline>
    <contour>
      <point x="502.15054545454547" y="0.0" type="line"/>
      <point x="588.2337272727273" y="0.0" type="line"/>
      <point x="1231.9655" y="1480.0" type="line"/>
      <point x="1145.8823181818182" y="1480.0" type="line"/>
    </contour>
    <contour>
      <point x="426.0835909090909" y="577.3296363636364" type="curve" smooth="yes"/>
      <point x="608.832" y="577.3296363636364"/>
      <point x="738.7369090909091" y="701.5641818181819"/>
      <point x="738.7369090909091" y="1037.720681818182" type="curve" smooth="yes"/>
      <point x="738.7369090909091" y="1373.8771818181817"/>
      <point x="611.6644090909091" y="1498.1117272727272"/>
      <point x="426.0835909090909" y="1498.1117272727272" type="curve" smooth="yes"/>
      <point x="240.5027727272727" y="1498.1117272727272"/>
      <point x="113.43027272727272" y="1373.8771818181817"/>
      <point x="113.43027272727272" y="1037.720681818182" type="curve" smooth="yes"/>
      <point x="113.43027272727272" y="701.5641818181819"/>
      <point x="243.3351818181818" y="577.3296363636364"/>
    </contour>
    <contour>
      <point x="426.0835909090909" y="651.2230454545455" type="curve" smooth="yes"/>
      <point x="288.38509090909093" y="651.2230454545455"/>
      <point x="195.06654545454546" y="748.4857272727273"/>
      <point x="195.06654545454546" y="1039.6089545454545" type="curve" smooth="yes"/>
      <point x="195.06654545454546" y="1328.8439090909092"/>
      <point x="288.38509090909093" y="1424.2183181818182"/>
      <point x="426.0835909090909" y="1424.2183181818182" type="curve" smooth="yes"/>
      <point x="562.8379545454545" y="1424.2183181818182"/>
      <point x="657.1006363636363" y="1328.8439090909092"/>
      <point x="657.1006363636363" y="1035.832409090909" type="curve" smooth="yes"/>
      <point x="657.1006363636363" y="744.7091818181818"/>
      <point x="562.8379545454545" y="651.2230454545455"/>
    </contour>
    <contour>
      <point x="1308.0324545454546" y="-18.0" type="curve" smooth="yes"/>
      <point x="1491.7250000000001" y="-18.0"/>
      <point x="1620.6857727272727" y="106.23454545454545"/>
      <point x="1620.6857727272727" y="442.39104545454546" type="curve" smooth="yes"/>
      <point x="1620.6857727272727" y="778.5475454545455"/>
      <point x="1492.6691363636364" y="902.7820909090909"/>
      <point x="1308.0324545454546" y="902.7820909090909" type="curve" smooth="yes"/>
      <point x="1123.3957727272727" y="902.7820909090909"/>
      <point x="995.3791363636365" y="778.5475454545455"/>
      <point x="995.3791363636365" y="442.39104545454546" type="curve" smooth="yes"/>
      <point x="995.3791363636365" y="106.23454545454545"/>
      <point x="1124.339909090909" y="-18.0"/>
    </contour>
    <contour>
      <point x="1308.0324545454546" y="55.89340909090912" type="curve" smooth="yes"/>
      <point x="1171.278090909091" y="55.89340909090912"/>
      <point x="1077.015409090909" y="153.15609090909092"/>
      <point x="1077.015409090909" y="444.27931818181816" type="curve" smooth="yes"/>
      <point x="1077.015409090909" y="733.5142727272727"/>
      <point x="1171.278090909091" y="828.8886818181818"/>
      <point x="1308.0324545454546" y="828.8886818181818" type="curve" smooth="yes"/>
      <point x="1444.7868181818183" y="828.8886818181818"/>
      <point x="1539.0495" y="733.5142727272727"/>
      <point x="1539.0495" y="440.5027727272727" type="curve" smooth="yes"/>
      <point x="1539.0495" y="149.37954545454548"/>
      <point x="1444.7868181818183" y="55.89340909090912"/>
    </contour>
  </outline>
</glyph>
<glyph name="ampersand" format="2">
  <advance width="1447.4072727272728"/>
  <unicode hex="0026"/>
  <outline>
    <contour>
      <point x="1397.916" y="-20.0" type="line"/>
      <point x="1447.4072727272728" y="46.69213636363639" type="line"/>
      <point x="687.4635454545455" y="657.7369090909091" type="line" smooth="yes"/>
      <point x="460.4575909090909" y="841.5808181818182"/>
      <point x="406.74245454545456" y="941.0614090909091"/>
      <point x="406.74245454545456" y="1090.4750454545454" type="curve" smooth="yes"/>
      <point x="406.74245454545456" y="1300.9893181818181"/>
      <point x="526.3347727272727" y="1416.5257727272726"/>
      <point x="798.5415909090909" y="1416.5257727272726" type="curve" smooth="yes"/>
      <point x="882.2622727272727" y="1416.5257727272726"/>
      <point x="957.3795454545455" y="1407.4140454545454"/>
      <point x="1033.8767727272727" y="1385.9168181818181" type="curve"/>
      <point x="1033.8767727272727" y="1469.5027727272727" type="line"/>
      <point x="966.9829545454545" y="1487.2234545454546"/>
      <point x="887.4801818181818" y="1498.1117272727272"/>
      <point x="799.4187727272728" y="1498.1117272727272" type="curve" smooth="yes"/>
      <point x="474.2626818181818" y="1498.1117272727272"/>
      <point x="314.7432727272727" y="1350.1006363636363"/>
      <point x="314.7432727272727" y="1090.0895454545455" type="curve" smooth="yes"/>
      <point x="314.7432727272727" y="913.5978636363636"/>
      <point x="391.1287727272727" y="789.3688636363636"/>
      <point x="637.9722727272728" y="591.0447727272727" type="curve" smooth="yes"/>
    </contour>
    <contour>
      <point x="671.0110909090909" y="-18.0" type="curve" smooth="yes"/>
      <point x="1013.3795454545455" y="-18.0"/>
      <point x="1212.8486363636364" y="158.18422727272727"/>
      <point x="1212.8486363636364" y="491.33477272727276" type="curve" smooth="yes"/>
      <point x="1212.8486363636364" y="581.2733636363637"/>
      <point x="1199.9603636363636" y="678.7147272727273"/>
      <point x="1171.519" y="768.156090909091" type="curve"/>
      <point x="1086.6592727272728" y="768.156090909091" type="line"/>
      <point x="1116.0447727272726" y="678.7147272727273"/>
      <point x="1131.8213181818182" y="579.2733636363637"/>
      <point x="1131.8213181818182" y="491.1113181818182" type="curve" smooth="yes"/>
      <point x="1131.8213181818182" y="195.33477272727276"/>
      <point x="963.8827272727273" y="60.96036363636367"/>
      <point x="675.748409090909" y="60.96036363636367" type="curve" smooth="yes"/>
      <point x="377.3514090909091" y="60.96036363636367"/>
      <point x="244.75354545454547" y="203.21195454545457"/>
      <point x="244.75354545454547" y="410.5697272727273" type="curve" smooth="yes"/>
      <point x="244.75354545454547" y="566.9330454545454"/>
      <point x="319.3514090909091" y="683.2460454545454"/>
      <point x="475.0388181818182" y="755.6818636363636" type="curve"/>
      <point x="426.8157727272727" y="818.1006363636363" type="line"/>
      <point x="249.9889090909091" y="735.2793181818182"/>
      <point x="152.8660909090909" y="590.6703636363636"/>
      <point x="152.8660909090909" y="402.22345454545456" type="curve" smooth="yes"/>
      <point x="152.8660909090909" y="153.6648181818182"/>
      <point x="326.9889090909091" y="-18.0"/>
    </contour>
  </outline>
</glyph>
<glyph name="quotesingle" format="2">
  <advance width="393.15054545454547"/>
  <unicode hex="0027"/>
  <outline>
    <contour>
      <point x="170.43027272727272" y="947.1735454545454" type="line"/>
      <point x="222.72027272727274" y="947.1735454545454" type="line"/>
      <point x="245.90450000000004" y="1616.0" type="line"/>
      <point x="147.24604545454545" y="1616.0" type="line"/>
    </contour>
  </outline>
</glyph>
<glyph name="parenleft" format="2">
  <advance width="633.1505454545454"/>
  <unicode hex="0028"/>
  <outline>
    <contour>
      <point x="476.37440909090907" y="-440.0" type="curve"/>
      <point x="575.5970454545454" y="-440.0" type="line"/>
      <point x="329.5411818181818" y="-128.6145"/>
      <point x="227.54118181818185" y="216.1565"/>
      <point x="227.54118181818185" y="588.0" type="curve" smooth="yes"/>
      <point x="227.54118181818185" y="959.8435"/>
      <point x="329.5411818181818" y="1304.6145"/>
      <point x="575.5970454545454" y="1616.0" type="curve"/>
      <point x="476.37440909090907" y="1616.0" type="line"/>
      <point x="238.9275" y="1315.9552272727274"/>
      <point x="135.26268181818182" y="965.7317727272728"/>
      <point x="135.26268181818182" y="588.0" type="curve" smooth="yes"/>
      <point x="135.26268181818182" y="210.26822727272727"/>
      <point x="238.9275" y="-139.95522727272729"/>
    </contour>
  </outline>
</glyph>
<glyph name="parenright" format="2">
  <advance width="633.1505454545454"/>
  <unicode hex="0029"/>
  <outline>
    <contour>
      <point x="57.55349999999998" y="-440.0" type="curve"/>
      <point x="156.7761363636364" y="-440.0" type="line"/>
      <point x="394.22304545454546" y="-139.95522727272729"/>
      <point x="497.88786363636365" y="210.26822727272727"/>
      <point x="497.88786363636365" y="588.0" type="curve" smooth="yes"/>
      <point x="497.88786363636365" y="965.7317727272728"/>
      <point x="394.22304545454546" y="1315.9552272727274"/>
      <point x="156.7761363636364" y="1616.0" type="curve"/>
      <point x="57.55349999999998" y="1616.0" type="line"/>
      <point x="303.6093636363636" y="1304.6145"/>
      <point x="405.6093636363636" y="959.8435"/>
      <point x="405.6093636363636" y="588.0" type="curve" smooth="yes"/>
      <point x="405.6093636363636" y="216.1565"/>
      <point x="303.6093636363636" y="-128.6145"/>
    </contour>
  </outline>
</glyph>
<glyph name="asterisk" format="2">
  <advance width="878.9492727272727"/>
  <unicode hex="002A"/>
  <outline>
    <contour>
      <point x="472.8486363636364" y="1202.4695" type="line"/>
      <point x="670.0106818181819" y="1248.6818636363637" type="line"/>
      <point x="848.9492727272727" y="1306.3466818181819" type="line"/>
      <point x="825.3181363636364" y="1377.5752727272727" type="line"/>
      <point x="648.2678181818183" y="1319.854590909091" type="line"/>
      <point x="459.7761363636364" y="1240.625590909091" type="line"/>
      <point x="477.3403181818182" y="1443.675909090909" type="line"/>
      <point x="477.3403181818182" y="1616.0" type="line"/>
      <point x="401.60895454545454" y="1616.0" type="line"/>
      <point x="401.60895454545454" y="1443.675909090909" type="line"/>
      <point x="419.1731363636364" y="1240.625590909091" type="line"/>
      <point x="230.68145454545456" y="1319.854590909091" type="line"/>
      <point x="53.63113636363637" y="1377.5752727272727" type="line"/>
      <point x="30.0" y="1306.3466818181819" type="line"/>
      <point x="208.93859090909092" y="1248.6818636363637" type="line"/>
      <point x="406.10063636363634" y="1202.4695" type="line"/>
      <point x="273.542" y="1048.3688636363636" type="line"/>
      <point x="167.71513636363636" y="904.7654545454545" type="line"/>
      <point x="229.21195454545455" y="859.8942272727272" type="line"/>
      <point x="335.0388181818182" y="1003.4417727272727" type="line"/>
      <point x="439.47463636363636" y="1178.2238636363636" type="line"/>
      <point x="543.9104545454545" y="1003.4417727272727" type="line"/>
      <point x="649.7373181818182" y="859.8942272727272" type="line"/>
      <point x="711.2341363636364" y="904.7654545454545" type="line"/>
      <point x="605.4072727272728" y="1048.3688636363636" type="line"/>
    </contour>
  </outline>
</glyph>
<glyph name="plus" format="2">
  <advance width="1065.0166363636363"/>
  <unicode hex="002B"/>
  <outline>
    <contour>
      <point x="491.0784545454545" y="373.30745454545456" type="line"/>
      <point x="573.9381818181819" y="373.30745454545456" type="line"/>
      <point x="573.9381818181819" y="720.8494545454545" type="line"/>
      <point x="901.9829545454545" y="720.8494545454545" type="line"/>
      <point x="901.9829545454545" y="799.1505454545455" type="line"/>
      <point x="573.9381818181819" y="799.1505454545455" type="line"/>
      <point x="573.9381818181819" y="1146.6925454545456" type="line"/>
      <point x="491.0784545454545" y="1146.6925454545456" type="line"/>
      <point x="491.0784545454545" y="799.1505454545455" type="line"/>
      <point x="163.0336818181818" y="799.1505454545455" type="line"/>
      <point x="163.0336818181818" y="720.8494545454545" type="line"/>
      <point x="491.0784545454545" y="720.8494545454545" type="line"/>
    </contour>
  </outline>
</glyph>
<glyph name="hyphen" format="2">
  <advance width="806.8264545454546"/>
  <unicode hex="002D"/>
  <outline>
    <contour>
      <point x="163.0336818181818" y="520.7935909090909" type="line"/>
      <point x="643.7927727272728" y="520.7935909090909" type="line"/>
      <point x="643.7927727272728" y="600.3236818181819" type="line"/>
      <point x="163.0336818181818" y="600.3236818181819" type="line"/>
    </contour>
  </outline>
</glyph>
<glyph name="period" format="2">
  <advance width="417.9548181818182"/>
  <unicode hex="002E"/>
  <outline>
    <contour>
      <point x="208.9774090909091" y="-10.558636363636365" type="curve" smooth="yes"/>
      <point x="252.07209090909095" y="-10.558636363636365"/>
      <point x="282.48531818181823" y="17.631136363636372"/>
      <point x="282.48531818181823" y="61.88786363636366" type="curve" smooth="yes"/>
      <point x="282.48531818181823" y="106.14459090909094"/>
      <point x="252.29554545454548" y="136.2226363636364"/>
      <point x="208.9774090909091" y="136.2226363636364" type="curve" smooth="yes"/>
      <point x="165.6592727272727" y="136.2226363636364"/>
      <point x="135.46949999999998" y="106.3680454545455"/>
      <point x="135.46949999999998" y="61.88786363636366" type="curve" smooth="yes"/>
      <point x="135.46949999999998" y="17.407681818181825"/>
      <point x="165.88272727272727" y="-10.558636363636365"/>
    </contour>
  </outline>
</glyph>
<glyph name="slash" format="2">
  <advance width="538.5633636363636"/>
  <unicode hex="002F"/>
  <outline>
    <contour>
      <point x="0.0" y="-240.0" type="line"/>
      <point x="88.49640909090914" y="-240.0" type="line"/>
      <point x="538.5633636363636" y="1616.0" type="line"/>
      <point x="450.06695454545456" y="1616.0" type="line"/>
    </contour>
  </outline>
</glyph>
<glyph name="zero" format="2">
  <advance width="1209.1168636363636"/>
  <unicode hex="0030"/>
  <note>
600
</note>
  <outline>
    <contour>
      <point x="604.5305" y="-18.111727272727272" type="curve" smooth="yes"/>
      <point x="895.2844545454545" y="-18.111727272727272"/>
      <point x="1083.8541818181818" y="180.56972727272728"/>
      <point x="1083.8541818181818" y="740.0" type="curve" smooth="yes"/>
      <point x="1083.8541818181818" y="1299.4302727272727"/>
      <point x="899.061" y="1498.1117272727272"/>
      <point x="604.5305" y="1498.1117272727272" type="curve" smooth="yes"/>
      <point x="310.0" y="1498.1117272727272"/>
      <point x="125.26268181818182" y="1299.4302727272727"/>
      <point x="125.26268181818182" y="740.0" type="curve" smooth="yes"/>
      <point x="125.26268181818182" y="180.56972727272728"/>
      <point x="313.77654545454544" y="-18.111727272727272"/>
    </contour>
    <contour>
      <point x="604.5863636363637" y="63.80940909090913" type="curve" smooth="yes"/>
      <point x="370.73136363636365" y="63.80940909090913"/>
      <point x="216.92668181818186" y="218.4017272727273"/>
      <point x="216.92668181818186" y="743.7765454545455" type="curve" smooth="yes"/>
      <point x="216.92668181818186" y="1261.5982727272726"/>
      <point x="370.84309090909096" y="1416.1905909090908"/>
      <point x="604.5863636363637" y="1416.1905909090908" type="curve" smooth="yes"/>
      <point x="838.2737727272727" y="1416.1905909090908"/>
      <point x="992.1901818181818" y="1261.5982727272726"/>
      <point x="992.1901818181818" y="736.2234545454545" type="curve" smooth="yes"/>
      <point x="992.1901818181818" y="218.4017272727273"/>
      <point x="838.2737727272727" y="63.80940909090913"/>
    </contour>
  </outline>
</glyph>
<glyph name="one" format="2">
  <advance width="685.5693181818182"/>
  <unicode hex="0031"/>
  <outline>
    <contour>
      <point x="401.6481818181818" y="0.0" type="line"/>
      <point x="490.09427272727277" y="0.0" type="line"/>
      <point x="490.09427272727277" y="1484.1117272727272" type="line"/>
      <point x="434.79872727272726" y="1484.1117272727272" type="line"/>
      <point x="23.33518181818182" y="1182.1620454545455" type="line"/>
      <point x="23.33518181818182" y="1087.1180909090908" type="line"/>
      <point x="434.79872727272726" y="1387.1795" type="line"/>
      <point x="401.6481818181818" y="1393.1735454545455" type="line"/>
    </contour>
  </outline>
</glyph>
<glyph name="two" format="2">
  <advance width="946.9492727272727"/>
  <unicode hex="0032"/>
  <outline>
    <contour>
      <point x="65.49168181818182" y="0.0" type="line"/>
      <point x="878.29" y="0.0" type="line"/>
      <point x="878.29" y="80.25631818181822" type="line"/>
      <point x="151.4516363636364" y="80.25631818181822" type="line"/>
      <point x="166.8371363636364" y="51.61963636363639" type="line"/>
      <point x="564.0273181818183" y="590.7765454545455" type="line" smooth="yes"/>
      <point x="735.8541818181818" y="821.4247272727273"/>
      <point x="793.4631363636364" y="956.9275"/>
      <point x="794.4072727272728" y="1118.8660909090909" type="curve" smooth="yes"/>
      <point x="796.2955454545455" y="1382.771"/>
      <point x="638.3906363636364" y="1498.1117272727272"/>
      <point x="369.95522727272726" y="1498.1117272727272" type="curve" smooth="yes"/>
      <point x="250.62004545454545" y="1498.1117272727272"/>
      <point x="132.82686363636364" y="1476.8882727272728"/>
      <point x="48.379954545454545" y="1441.2234545454546" type="curve"/>
      <point x="48.379954545454545" y="1357.6375" type="line"/>
      <point x="147.7095909090909" y="1397.2464545454545"/>
      <point x="251.10618181818182" y="1416.5257727272726"/>
      <point x="367.2179090909091" y="1416.5257727272726" type="curve" smooth="yes"/>
      <point x="587.7040454545454" y="1416.5257727272726"/>
      <point x="704.4639545454545" y="1330.5368636363637"/>
      <point x="704.4639545454545" y="1114.5198181818182" type="curve" smooth="yes"/>
      <point x="704.4639545454545" y="976.0950909090909"/>
      <point x="648.3577727272727" y="844.8324090909091"/>
      <point x="495.6481818181818" y="638.9104545454545" type="curve" smooth="yes"/>
      <point x="65.49168181818182" y="50.66995454545457" type="line"/>
    </contour>
  </outline>
</glyph>
<glyph name="three" format="2">
  <advance width="978.3850909090909"/>
  <unicode hex="0033"/>
  <outline>
    <contour>
      <point x="400.4021363636364" y="-18.111727272727272" type="curve" smooth="yes"/>
      <point x="729.6588636363637" y="-18.111727272727272"/>
      <point x="901.7816818181818" y="133.72622727272727"/>
      <point x="901.7816818181818" y="394.45245454545454" type="curve" smooth="yes"/>
      <point x="901.7816818181818" y="612.3351818181818"/>
      <point x="766.0665454545455" y="750.1061818181818"/>
      <point x="512.4183636363637" y="781.2179090909091" type="curve"/>
      <point x="511.4742272727273" y="756.0" type="line"/>
      <point x="723.5693181818182" y="798.6648181818182"/>
      <point x="852.8375454545455" y="935.9385909090909"/>
      <point x="852.8375454545455" y="1132.4302727272727" type="curve" smooth="yes"/>
      <point x="852.8375454545455" y="1364.2179090909092"/>
      <point x="697.6030000000001" y="1498.1117272727272"/>
      <point x="417.73177272727276" y="1498.1117272727272" type="curve" smooth="yes"/>
      <point x="303.7262272727273" y="1498.1117272727272"/>
      <point x="187.10063636363637" y="1478.8882727272728"/>
      <point x="94.76545454545453" y="1444.0558636363637" type="curve"/>
      <point x="94.76545454545453" y="1362.1458181818182" type="line"/>
      <point x="200.31854545454544" y="1400.8664999999999"/>
      <point x="304.88272727272727" y="1418.0899545454545"/>
      <point x="414.9385909090909" y="1418.0899545454545" type="curve" smooth="yes"/>
      <point x="642.1398636363637" y="1418.0899545454545"/>
      <point x="763.6763181818181" y="1317.274181818182"/>
      <point x="763.6763181818181" y="1130.1398636363635" type="curve" smooth="yes"/>
      <point x="763.6763181818181" y="917.9049090909091"/>
      <point x="607.6537272727272" y="800.8153636363636"/>
      <point x="318.30150000000003" y="800.8153636363636" type="curve" smooth="yes"/>
      <point x="254.30745454545453" y="800.8153636363636" type="line"/>
      <point x="254.30745454545453" y="720.5142727272727" type="line"/>
      <point x="413.2793181818182" y="720.5142727272727" type="line" smooth="yes"/>
      <point x="685.7543636363637" y="720.5142727272727"/>
      <point x="813.0115" y="598.7599090909091"/>
      <point x="813.0115" y="396.0166363636364" type="curve" smooth="yes"/>
      <point x="813.0115" y="178.1113181818182"/>
      <point x="672.2012727272727" y="61.91004545454548"/>
      <point x="400.28486363636364" y="61.91004545454548" type="curve" smooth="yes"/>
      <point x="291.39104545454546" y="61.91004545454548"/>
      <point x="170.771" y="81.91004545454548"/>
      <point x="55.88272727272727" y="122.18381818181821" type="curve"/>
      <point x="55.88272727272727" y="40.27377272727273" type="line"/>
      <point x="161.77654545454544" y="1.776545454545454"/>
      <point x="282.6703636363636" y="-18.111727272727272"/>
    </contour>
  </outline>
</glyph>
<glyph name="four" format="2">
  <advance width="1139.5079090909092"/>
  <unicode hex="0034"/>
  <outline>
    <contour>
      <point x="52.65927272727272" y="377.68740909090906" type="line"/>
      <point x="1094.5693181818183" y="377.68740909090906" type="line"/>
      <point x="1094.5693181818183" y="456.54713636363635" type="line"/>
      <point x="128.47977272727277" y="456.54713636363635" type="line"/>
      <point x="146.0439545454546" y="426.69254545454544" type="line"/>
      <point x="748.1113181818182" y="1480.0" type="line"/>
      <point x="653.3411363636363" y="1480.0" type="line"/>
      <point x="52.65927272727272" y="428.5808181818182" type="line"/>
    </contour>
    <contour>
      <point x="791.0950909090909" y="0.0" type="line"/>
      <point x="876.8597272727274" y="0.0" type="line"/>
      <point x="876.8597272727274" y="980.0" type="line"/>
      <point x="806.5475454545455" y="980.0" type="line"/>
      <point x="791.0950909090909" y="456.54713636363635" type="line"/>
    </contour>
  </outline>
</glyph>
<glyph name="five" format="2">
  <advance width="987.6644090909091"/>
  <unicode hex="0035"/>
  <outline>
    <contour>
      <point x="427.4021363636364" y="-18.111727272727272" type="curve" smooth="yes"/>
      <point x="754.156090909091" y="-18.111727272727272"/>
      <point x="927.6699545454546" y="130.89381818181818"/>
      <point x="927.7258181818182" y="407.9049090909091" type="curve" smooth="yes"/>
      <point x="927.7816818181818" y="673.4132272727272"/>
      <point x="756.1113181818182" y="808.4746363636364"/>
      <point x="351.31259090909094" y="832.5863636363637" type="curve" smooth="yes"/>
      <point x="166.08913636363638" y="843.5305" type="line"/>
      <point x="229.09427272727277" y="792.1117272727273" type="line"/>
      <point x="273.59150000000005" y="1434.4136363636364" type="line"/>
      <point x="230.15609090909092" y="1401.1961363636362" type="line"/>
      <point x="865.8934090909091" y="1401.1961363636362" type="line"/>
      <point x="865.8934090909091" y="1480.0" type="line"/>
      <point x="190.04477272727271" y="1480.0" type="line"/>
      <point x="140.8771818181818" y="763.7880454545455" type="line"/>
      <point x="326.10063636363634" y="752.843909090909" type="line" smooth="yes"/>
      <point x="700.2012727272727" y="730.9556363636364"/>
      <point x="838.8997727272728" y="627.1398636363637"/>
      <point x="838.8997727272728" y="406.4021363636364" type="curve" smooth="yes"/>
      <point x="838.8997727272728" y="177.3906363636364"/>
      <point x="700.9219545454546" y="62.133500000000026"/>
      <point x="428.229" y="62.133500000000026" type="curve" smooth="yes"/>
      <point x="314.6145" y="62.133500000000026"/>
      <point x="193.99445454545454" y="83.13350000000003"/>
      <point x="81.9385909090909" y="122.51900000000003" type="curve"/>
      <point x="81.9385909090909" y="40.608954545454544" type="line"/>
      <point x="185.0" y="2.888272727272727"/>
      <point x="307.7820909090909" y="-18.111727272727272"/>
    </contour>
  </outline>
</glyph>
<glyph name="six" format="2">
  <advance width="1105.5134545454546"/>
  <unicode hex="0036"/>
  <outline>
    <contour>
      <point x="623.0277272727272" y="-18.111727272727272" type="curve" smooth="yes"/>
      <point x="862.5637727272727" y="-18.111727272727272"/>
      <point x="1042.351409090909" y="121.73731818181818"/>
      <point x="1042.351409090909" y="408.12836363636364" type="curve" smooth="yes"/>
      <point x="1042.351409090909" y="694.083590909091"/>
      <point x="860.5637727272727" y="832.916"/>
      <point x="593.2844545454545" y="832.916" type="curve" smooth="yes"/>
      <point x="441.40172727272727" y="832.916"/>
      <point x="288.40727272727275" y="777.6422272727273"/>
      <point x="201.30109090909093" y="686.6477727272727" type="curve"/>
      <point x="201.30109090909093" y="592.2515909090909" type="line"/>
      <point x="293.0162272727273" y="707.5142727272727"/>
      <point x="454.7705909090909" y="753.6204545454545"/>
      <point x="584.5360454545455" y="753.6204545454545" type="curve" smooth="yes"/>
      <point x="808.8882727272727" y="753.6204545454545"/>
      <point x="954.5309090909091" y="647.916409090909"/>
      <point x="954.5309090909091" y="404.62559090909093" type="curve" smooth="yes"/>
      <point x="954.5309090909091" y="163.3906363636364"/>
      <point x="811.9441363636364" y="61.29554545454548"/>
      <point x="624.083590909091" y="61.29554545454548" type="curve" smooth="yes"/>
      <point x="383.89895454545456" y="61.29554545454548"/>
      <point x="225.7032272727273" y="210.54713636363638"/>
      <point x="225.7032272727273" y="688.0895454545455" type="curve" smooth="yes"/>
      <point x="225.7032272727273" y="709.8098181818182" type="line" smooth="yes"/>
      <point x="225.7032272727273" y="1213.3355909090908"/>
      <point x="397.519" y="1417.6430454545455"/>
      <point x="722.6644090909091" y="1417.6430454545455" type="curve" smooth="yes"/>
      <point x="806.061" y="1417.6430454545455"/>
      <point x="901.3403181818182" y="1404.531318181818"/>
      <point x="977.4017272727273" y="1372.5871818181818" type="curve"/>
      <point x="977.4017272727273" y="1454.9441363636363" type="line"/>
      <point x="902.3403181818182" y="1486.1117272727272"/>
      <point x="809.3906363636364" y="1498.1117272727272"/>
      <point x="722.3236818181819" y="1498.1117272727272" type="curve" smooth="yes"/>
      <point x="343.56418181818185" y="1498.1117272727272"/>
      <point x="136.15095454545454" y="1256.324090909091"/>
      <point x="136.15095454545454" y="692.0" type="curve" smooth="yes"/>
      <point x="136.15095454545454" y="165.89936363636363"/>
      <point x="332.39104545454546" y="-18.111727272727272"/>
    </contour>
  </outline>
</glyph>
<glyph name="seven" format="2">
  <advance width="902.3906363636364"/>
  <unicode hex="0037"/>
  <outline>
    <contour>
      <point x="177.93304545454544" y="0.0" type="line"/>
      <point x="271.65845454545456" y="0.0" type="line"/>
      <point x="843.5023636363636" y="1429.3300454545454" type="line"/>
      <point x="843.5023636363636" y="1480.0" type="line"/>
      <point x="11.944136363636364" y="1480.0" type="line"/>
      <point x="11.944136363636364" y="1399.7436818181818" type="line"/>
      <point x="773.9944545454546" y="1399.7436818181818" type="line"/>
      <point x="753.5087272727272" y="1431.2183181818182" type="line"/>
    </contour>
  </outline>
</glyph>
<glyph name="eight" format="2">
  <advance width="1209.1168636363636"/>
  <unicode hex="0038"/>
  <outline>
    <contour>
      <point x="615.0277272727272" y="-18.111727272727272" type="curve" smooth="yes"/>
      <point x="923.7872272727273" y="-18.111727272727272"/>
      <point x="1101.239681818182" y="134.34627272727272"/>
      <point x="1101.239681818182" y="370.0725" type="curve" smooth="yes"/>
      <point x="1101.239681818182" y="581.4076818181818"/>
      <point x="975.1335" y="701.5808181818182"/>
      <point x="641.9492727272727" y="780.4243181818182" type="curve" smooth="yes"/>
      <point x="343.4575909090909" y="849.8712272727273"/>
      <point x="248.53009090909094" y="946.5752727272727"/>
      <point x="248.53009090909094" y="1126.7095909090908" type="curve" smooth="yes"/>
      <point x="248.53009090909094" y="1307.8942272727272"/>
      <point x="369.89895454545456" y="1419.5424090909091"/>
      <point x="600.1505454545454" y="1419.5424090909091" type="curve" smooth="yes"/>
      <point x="829.4524545454545" y="1419.5424090909091"/>
      <point x="965.2068181818182" y="1315.8942272727272"/>
      <point x="965.2068181818182" y="1122.4861363636364" type="curve" smooth="yes"/>
      <point x="965.2068181818182" y="948.9607727272727"/>
      <point x="878.6089545454545" y="846.0277272727272"/>
      <point x="677.3573636363636" y="764.0332727272728" type="curve"/>
      <point x="755.4128181818182" y="728.9552272727273" type="line"/>
      <point x="945.2004545454546" y="804.5138636363637"/>
      <point x="1050.0776363636364" y="939.5138636363637"/>
      <point x="1050.0776363636364" y="1125.8882727272728" type="curve" smooth="yes"/>
      <point x="1050.0776363636364" y="1356.1117272727272"/>
      <point x="880.8989545454546" y="1498.1117272727272"/>
      <point x="601.374" y="1498.1117272727272" type="curve" smooth="yes"/>
      <point x="324.9944545454546" y="1498.1117272727272"/>
      <point x="157.87163636363636" y="1354.1565"/>
      <point x="157.87163636363636" y="1123.9275" type="curve" smooth="yes"/>
      <point x="157.87163636363636" y="907.2068181818182"/>
      <point x="285.4805909090909" y="778.9722727272728"/>
      <point x="619.4972272727273" y="700.7432727272727" type="curve" smooth="yes"/>
      <point x="909.4861363636363" y="631.9667272727272"/>
      <point x="1010.916409090909" y="546.313"/>
      <point x="1010.916409090909" y="364.0110909090909" type="curve" smooth="yes"/>
      <point x="1010.916409090909" y="169.8823181818182"/>
      <point x="868.6089545454545" y="60.45759090909094"/>
      <point x="616.0277272727272" y="60.45759090909094" type="curve" smooth="yes"/>
      <point x="339.89895454545456" y="60.45759090909094"/>
      <point x="197.14459090909094" y="172.10577272727275"/>
      <point x="197.14459090909094" y="376.5138636363636" type="curve" smooth="yes"/>
      <point x="197.14459090909094" y="553.5364545454545"/>
      <point x="308.62518181818183" y="689.6874090909091"/>
      <point x="508.9381818181818" y="746.1287727272727" type="curve"/>
      <point x="426.76545454545453" y="782.9275" type="line"/>
      <point x="228.98336363636363" y="716.8716363636364"/>
      <point x="107.65372727272727" y="569.7654545454545"/>
      <point x="107.65372727272727" y="371.77654545454544" type="curve" smooth="yes"/>
      <point x="107.65372727272727" y="122.50831818181818"/>
      <point x="287.9889090909091" y="-18.111727272727272"/>
    </contour>
  </outline>
</glyph>
<glyph name="less" format="2">
  <advance width="1065.0166363636363"/>
  <unicode hex="003C"/>
  <outline>
    <contour>
      <point x="901.9829545454545" y="395.94454545454545" type="line"/>
      <point x="901.9829545454545" y="481.79872727272726" type="line"/>
      <point x="236.13945454545456" y="772.6145" type="line"/>
      <point x="236.13945454545456" y="747.6648181818182" type="line"/>
      <point x="901.9829545454545" y="1038.2012727272727" type="line"/>
      <point x="901.9829545454545" y="1124.0554545454545" type="line"/>
      <point x="163.0336818181818" y="795.9437272727273" type="line"/>
      <point x="163.0336818181818" y="724.0562727272727" type="line"/>
    </contour>
  </outline>
</glyph>
<glyph name="equal" format="2">
  <advance width="1065.0166363636363"/>
  <unicode hex="003D"/>
  <outline>
    <contour>
      <point x="163.0336818181818" y="906.0895454545455" type="line"/>
      <point x="901.9829545454545" y="906.0895454545455" type="line"/>
      <point x="901.9829545454545" y="984.3906363636364" type="line"/>
      <point x="163.0336818181818" y="984.3906363636364" type="line"/>
    </contour>
    <contour>
      <point x="163.0336818181818" y="535.6093636363636" type="line"/>
      <point x="901.9829545454545" y="535.6093636363636" type="line"/>
      <point x="901.9829545454545" y="613.9104545454545" type="line"/>
      <point x="163.0336818181818" y="613.9104545454545" type="line"/>
    </contour>
  </outline>
</glyph>
<glyph name="greater" format="2">
  <advance width="1065.0166363636363"/>
  <unicode hex="003E"/>
  <outline>
    <contour>
      <point x="163.0336818181818" y="395.94454545454545" type="line"/>
      <point x="901.9829545454545" y="724.0562727272727" type="line"/>
      <point x="901.9829545454545" y="795.9437272727273" type="line"/>
      <point x="163.0336818181818" y="1124.0554545454545" type="line"/>
      <point x="163.0336818181818" y="1038.2012727272727" type="line"/>
      <point x="828.8771818181818" y="747.6648181818182" type="line"/>
      <point x="828.8771818181818" y="772.6145" type="line"/>
      <point x="163.0336818181818" y="481.79872727272726" type="line"/>
    </contour>
  </outline>
</glyph>
<glyph name="question" format="2">
  <advance width="864.0051363636364"/>
  <unicode hex="003F"/>
  <outline>
    <contour>
      <point x="358.88272727272727" y="312.96036363636364" type="line"/>
      <point x="418.5582272727273" y="312.96036363636364" type="line"/>
      <point x="429.6196363636364" y="684.4413636363637" type="line"/>
      <point x="707.7147272727273" y="796.313"/>
      <point x="801.0665454545455" y="921.8157727272727"/>
      <point x="801.0665454545455" y="1132.1509545454546" type="curve" smooth="yes"/>
      <point x="801.0665454545455" y="1364.2179090909092"/>
      <point x="645.832" y="1498.1117272727272"/>
      <point x="365.96077272727274" y="1498.1117272727272" type="curve" smooth="yes"/>
      <point x="251.95522727272729" y="1498.1117272727272"/>
      <point x="135.32963636363635" y="1478.8882727272728"/>
      <point x="42.994454545454545" y="1444.0558636363637" type="curve"/>
      <point x="42.994454545454545" y="1361.5871818181818" type="line"/>
      <point x="148.54754545454546" y="1400.3078636363637"/>
      <point x="253.0" y="1417.531318181818"/>
      <point x="362.11172727272725" y="1417.531318181818" type="curve" smooth="yes"/>
      <point x="590.3688636363636" y="1417.531318181818"/>
      <point x="711.9053181818182" y="1316.8831363636364"/>
      <point x="711.9053181818182" y="1130.0281363636363" type="curve" smooth="yes"/>
      <point x="711.9053181818182" y="945.3407272727272"/>
      <point x="620.4136363636363" y="835.3015"/>
      <point x="343.47504545454547" y="737.9885" type="curve"/>
    </contour>
    <contour>
      <point x="388.7484090909091" y="-10.558636363636365" type="curve" smooth="yes"/>
      <point x="433.73136363636365" y="-10.558636363636365"/>
      <point x="462.2563181818182" y="19.295954545454553"/>
      <point x="462.2563181818182" y="61.16163636363638" type="curve" smooth="yes"/>
      <point x="462.2563181818182" y="104.91559090909094"/>
      <point x="432.06654545454546" y="134.77018181818187"/>
      <point x="388.7484090909091" y="134.77018181818187" type="curve" smooth="yes"/>
      <point x="345.4302727272727" y="134.77018181818187"/>
      <point x="315.2405" y="105.13904545454548"/>
      <point x="315.2405" y="61.16163636363638" type="curve" smooth="yes"/>
      <point x="315.2405" y="19.072500000000005"/>
      <point x="345.6537272727273" y="-10.558636363636365"/>
    </contour>
  </outline>
</glyph>
<glyph name="at" format="2">
  <advance width="1836.9544090909092"/>
  <unicode hex="0040"/>
  <outline>
    <contour>
      <point x="965.8934090909091" y="-460.0" type="curve" smooth="yes"/>
      <point x="1098.0162272727273" y="-460.0"/>
      <point x="1227.9714545454547" y="-438.22345454545456"/>
      <point x="1336.0998181818181" y="-404.11172727272725" type="curve"/>
      <point x="1336.0998181818181" y="-325.0507272727273" type="line"/>
      <point x="1208.0328636363638" y="-363.88313636363637"/>
      <point x="1093.2955454545454" y="-382.8272727272727"/>
      <point x="965.8934090909091" y="-382.8272727272727" type="curve" smooth="yes"/>
      <point x="463.4354090909091" y="-382.8272727272727"/>
      <point x="200.66995454545457" y="-129.45840909090907"/>
      <point x="200.66995454545457" y="523.7765454545455" type="curve" smooth="yes"/>
      <point x="200.66995454545457" y="1163.7935909090909"/>
      <point x="461.54713636363635" y="1420.8272727272727"/>
      <point x="924.1727272727273" y="1420.8272727272727" type="curve" smooth="yes"/>
      <point x="1385.9100454545455" y="1420.8272727272727"/>
      <point x="1641.1782727272728" y="1168.0170454545455"/>
      <point x="1641.4017272727274" y="555.4524545454545" type="curve" smooth="yes"/>
      <point x="1641.5693181818183" y="187.64777272727275"/>
      <point x="1532.8094090909092" y="59.06100000000002"/>
      <point x="1416.9322272727272" y="59.06100000000002" type="curve" smooth="yes"/>
      <point x="1326.3343636363636" y="59.06100000000002"/>
      <point x="1283.9488636363637" y="108.77613636363638"/>
      <point x="1283.9488636363637" y="232.5919090909091" type="curve" smooth="yes"/>
      <point x="1283.9488636363637" y="740.9556363636364" type="line" smooth="yes"/>
      <point x="1283.9488636363637" y="1009.6537272727272"/>
      <point x="1148.2729545454545" y="1096.1117272727272"/>
      <point x="910.3906363636364" y="1096.1117272727272" type="curve" smooth="yes"/>
      <point x="816.7147272727273" y="1096.1117272727272"/>
      <point x="702.2622727272727" y="1078.9441363636363"/>
      <point x="617.5305" y="1046.720681818182" type="curve"/>
      <point x="617.4187727272728" y="965.0340909090909" type="line"/>
      <point x="720.748409090909" y="1001.8106363636364"/>
      <point x="826.3070454545455" y="1016.0899545454545"/>
      <point x="905.9215454545455" y="1016.0899545454545" type="curve" smooth="yes"/>
      <point x="1091.8042727272727" y="1016.0899545454545"/>
      <point x="1196.6200454545456" y="958.8720454545454"/>
      <point x="1196.6200454545456" y="742.0170454545455" type="curve" smooth="yes"/>
      <point x="1196.6200454545456" y="224.24563636363638" type="line"/>
      <point x="1109.1394545454546" y="108.05545454545457"/>
      <point x="990.9940454545455" y="62.29000000000003"/>
      <point x="879.0217727272727" y="62.29000000000003" type="curve" smooth="yes"/>
      <point x="722.9991818181818" y="62.29000000000003"/>
      <point x="643.8426818181819" y="136.32922727272728"/>
      <point x="643.8426818181819" y="277.52495454545453" type="curve" smooth="yes"/>
      <point x="643.8426818181819" y="410.4469090909091"/>
      <point x="724.4405454545455" y="481.93304545454544"/>
      <point x="909.4072727272728" y="503.9275" type="curve" smooth="yes"/>
      <point x="1239.3070454545455" y="543.2515909090909" type="line"/>
      <point x="1236.625590909091" y="617.6311363636364" type="line"/>
      <point x="907.8934090909091" y="578.3070454545455" type="line" smooth="yes"/>
      <point x="661.748409090909" y="549.7539545454546"/>
      <point x="550.7373181818182" y="451.35736363636363"/>
      <point x="550.7373181818182" y="269.3462727272727" type="curve" smooth="yes"/>
      <point x="550.7373181818182" y="86.56418181818182"/>
      <point x="673.4635454545455" y="-16.33518181818182"/>
      <point x="867.9774090909091" y="-16.33518181818182" type="curve" smooth="yes"/>
      <point x="1000.1394545454546" y="-16.33518181818182"/>
      <point x="1121.5808181818181" y="36.65927272727272"/>
      <point x="1196.458" y="126.33518181818182" type="curve"/>
      <point x="1206.1283636363637" y="126.33518181818182" type="line"/>
      <point x="1228.2008636363637" y="40.16204545454545"/>
      <point x="1294.4409545454546" y="-16.33518181818182"/>
      <point x="1407.6251818181818" y="-16.33518181818182" type="curve" smooth="yes"/>
      <point x="1580.6695454545454" y="-16.33518181818182"/>
      <point x="1720.7475909090908" y="147.5530909090909"/>
      <point x="1721.6917272727273" y="561.5641818181819" type="curve" smooth="yes"/>
      <point x="1722.6358636363636" y="1200.6089545454545"/>
      <point x="1436.831590909091" y="1498.0"/>
      <point x="924.1727272727273" y="1498.0" type="curve" smooth="yes"/>
      <point x="411.5697272727273" y="1498.0"/>
      <point x="115.26268181818182" y="1200.6089545454545"/>
      <point x="115.26268181818182" y="520.0" type="curve" smooth="yes"/>
      <point x="115.26268181818182" y="-166.27377272727273"/>
      <point x="414.4021363636364" y="-459.05586363636365"/>
    </contour>
  </outline>
</glyph>
<glyph name="A" format="2">
  <advance width="1299.6307272727272"/>
  <unicode hex="0041"/>
  <note>
520
</note>
  <anchor x="650.7595" y="0.0" name="bottom"/>
  <anchor x="1264.4742272727274" y="0.0" name="ogonek"/>
  <anchor x="650.7036363636364" y="1520.0" name="top"/>
  <outline>
    <contour>
      <point x="35.156499999999994" y="0.0" type="line"/>
      <point x="127.54118181818185" y="0.0" type="line"/>
      <point x="661.0946818181818" y="1431.8997727272726" type="line"/>
      <point x="636.3125909090909" y="1431.8997727272726" type="line"/>
      <point x="1169.977818181818" y="0.0" type="line"/>
      <point x="1264.4742272727274" y="0.0" type="line"/>
      <point x="708.2337272727273" y="1480.0" type="line"/>
      <point x="591.3969999999999" y="1480.0" type="line"/>
    </contour>
    <contour>
      <point x="288.97186363636365" y="517.4417727272727" type="line"/>
      <point x="1010.4912727272728" y="517.4417727272727" type="line"/>
      <point x="986.5808181818181" y="598.7484090909091" type="line"/>
      <point x="312.9381818181818" y="598.7484090909091" type="line"/>
    </contour>
  </outline>
</glyph>
<glyph name="B" format="2">
  <advance width="1225.2733636363637"/>
  <unicode hex="0042"/>
  <anchor x="628.5249545454545" y="0.0" name="bottom"/>
  <anchor x="628.5249545454545" y="1480.0" name="top"/>
  <outline>
    <contour>
      <point x="527.0110909090909" y="-10.558636363636365" type="curve" smooth="yes"/>
      <point x="970.7761363636364" y="-10.558636363636365"/>
      <point x="1143.7313636363638" y="129.7820909090909"/>
      <point x="1143.7313636363638" y="396.62004545454545" type="curve" smooth="yes"/>
      <point x="1143.7313636363638" y="599.0669545454546"/>
      <point x="1034.7816818181818" y="743.7765454545455"/>
      <point x="784.144590909091" y="770.8324090909091" type="curve"/>
      <point x="781.3121818181819" y="756.0" type="line"/>
      <point x="1015.8934090909091" y="789.0558636363636"/>
      <point x="1100.8989545454547" y="933.8827272727273"/>
      <point x="1100.8989545454547" y="1108.1006363636363" type="curve" smooth="yes"/>
      <point x="1100.8989545454547" y="1368.4413636363636"/>
      <point x="940.3850909090909" y="1494.3351818181818"/>
      <point x="561.0221818181818" y="1494.3351818181818" type="curve" smooth="yes"/>
      <point x="411.0725" y="1494.3351818181818"/>
      <point x="300.37440909090907" y="1481.6089545454545"/>
      <point x="185.47504545454544" y="1458.9385909090909" type="curve"/>
      <point x="185.47504545454544" y="10.167590909090908" type="line"/>
      <point x="309.8102272727273" y="-5.055863636363636"/>
      <point x="410.45245454545454" y="-10.558636363636365"/>
    </contour>
    <contour>
      <point x="535.7147272727273" y="69.07209090909093" type="curve" smooth="yes"/>
      <point x="437.73136363636365" y="69.07209090909093"/>
      <point x="355.9659090909091" y="72.90450000000003"/>
      <point x="273.3066363636364" y="84.51345454545458" type="curve"/>
      <point x="273.3066363636364" y="1392.1513636363636" type="line"/>
      <point x="354.4631363636364" y="1406.8161818181818"/>
      <point x="439.56377272727275" y="1414.7044545454546"/>
      <point x="563.4298636363636" y="1414.7044545454546" type="curve" smooth="yes"/>
      <point x="887.4302727272727" y="1414.7044545454546"/>
      <point x="1013.1287727272727" y="1326.385909090909"/>
      <point x="1013.1287727272727" y="1106.759909090909" type="curve" smooth="yes"/>
      <point x="1013.1287727272727" y="902.3518181818182"/>
      <point x="896.0392272727273" y="800.7036363636364"/>
      <point x="598.5305" y="800.7036363636364" type="curve" smooth="yes"/>
      <point x="255.85418181818184" y="800.7036363636364" type="line"/>
      <point x="255.85418181818184" y="720.5701363636364" type="line"/>
      <point x="625.8656818181819" y="720.5701363636364" type="line" smooth="yes"/>
      <point x="919.988909090909" y="720.5701363636364"/>
      <point x="1055.4080909090908" y="616.9778181818182"/>
      <point x="1055.4080909090908" y="397.6814545454545" type="curve" smooth="yes"/>
      <point x="1055.4080909090908" y="176.60854545454546"/>
      <point x="926.4861363636363" y="69.07209090909093"/>
    </contour>
  </outline>
</glyph>
<glyph name="C" format="2">
  <advance width="1111.8375454545455"/>
  <unicode hex="0043"/>
  <anchor x="694.3070454545455" y="0.0" name="bottom"/>
  <anchor x="680.145" y="1520.0" name="top"/>
  <outline>
    <contour>
      <point x="739.0554545454546" y="-18.111727272727272" type="curve" smooth="yes"/>
      <point x="864.4968181818182" y="-18.111727272727272"/>
      <point x="974.3906363636364" y="2.6648181818181813"/>
      <point x="1074.8878636363636" y="39.10618181818182" type="curve"/>
      <point x="1074.8878636363636" y="122.97145454545458" type="line"/>
      <point x="951.6196363636363" y="80.08872727272731"/>
      <point x="854.4520454545454" y="64.03286363636367"/>
      <point x="741.5134545454546" y="64.03286363636367" type="curve" smooth="yes"/>
      <point x="416.9659090909091" y="64.03286363636367"/>
      <point x="208.60259090909096" y="222.6307272727273"/>
      <point x="208.60259090909096" y="741.8882727272727" type="curve" smooth="yes"/>
      <point x="208.60259090909096" y="1241.0396363636364"/>
      <point x="407.74800000000005" y="1415.9671363636364"/>
      <point x="752.4575909090909" y="1415.9671363636364" type="curve" smooth="yes"/>
      <point x="861.8989545454546" y="1415.9671363636364"/>
      <point x="966.1727272727273" y="1402.1347272727273"/>
      <point x="1074.8878636363636" y="1368.1402727272728" type="curve"/>
      <point x="1074.8878636363636" y="1452.0055454545454" type="line"/>
      <point x="971.1671818181818" y="1482.446909090909"/>
      <point x="868.8878636363636" y="1498.1117272727272"/>
      <point x="755.0554545454546" y="1498.1117272727272" type="curve" smooth="yes"/>
      <point x="358.7820909090909" y="1498.1117272727272"/>
      <point x="115.26268181818182" y="1284.648181818182"/>
      <point x="115.26268181818182" y="737.8882727272727" type="curve" smooth="yes"/>
      <point x="115.26268181818182" y="172.79318181818184"/>
      <point x="367.7206818181818" y="-18.111727272727272"/>
    </contour>
  </outline>
</glyph>
<glyph name="D" format="2">
  <advance width="1355.4575909090909"/>
  <unicode hex="0044"/>
  <anchor x="616.8656818181819" y="0.0" name="bottom"/>
  <anchor x="676.4746363636364" y="740.0" name="center"/>
  <anchor x="185.47504545454544" y="762.0" name="stroke"/>
  <anchor x="615.7484090909091" y="1520.0" name="top"/>
  <outline>
    <contour>
      <point x="510.45799999999997" y="-10.391045454545456" type="curve" smooth="yes"/>
      <point x="990.6755" y="-10.391045454545456"/>
      <point x="1240.194909090909" y="221.05031818181817"/>
      <point x="1240.194909090909" y="740.0" type="curve" smooth="yes"/>
      <point x="1240.194909090909" y="1250.6145"/>
      <point x="1000.0665454545455" y="1494.167590909091"/>
      <point x="534.8098181818182" y="1494.167590909091" type="curve" smooth="yes"/>
      <point x="422.89936363636366" y="1494.167590909091"/>
      <point x="297.6537272727273" y="1481.6089545454545"/>
      <point x="185.47504545454544" y="1459.8827272727274" type="curve"/>
      <point x="185.47504545454544" y="9.888272727272728" type="line"/>
      <point x="315.08954545454543" y="-5.223454545454546"/>
      <point x="404.0055454545454" y="-10.391045454545456"/>
    </contour>
    <contour>
      <point x="518.9940454545455" y="71.36250000000004" type="curve" smooth="yes"/>
      <point x="421.40172727272727" y="71.36250000000004"/>
      <point x="348.2452272727273" y="76.08318181818186"/>
      <point x="273.9211363636364" y="86.63627272727275" type="curve"/>
      <point x="273.9211363636364" y="1391.084409090909" type="line"/>
      <point x="364.5693181818182" y="1404.6933636363635"/>
      <point x="450.6699545454546" y="1412.5257727272726"/>
      <point x="532.0443636363636" y="1412.5257727272726" type="curve" smooth="yes"/>
      <point x="946.3799545454546" y="1412.5257727272726"/>
      <point x="1147.4136363636364" y="1206.3914545454545"/>
      <point x="1147.4136363636364" y="740.1117272727273" type="curve" smooth="yes"/>
      <point x="1147.4136363636364" y="268.9437272727273"/>
      <point x="938.3855" y="71.36250000000004"/>
    </contour>
  </outline>
</glyph>
<glyph name="E" format="2">
  <advance width="1126.061"/>
  <unicode hex="0045"/>
  <anchor x="639.1283636363637" y="0.0" name="bottom"/>
  <anchor x="974.4465" y="0.0" name="ogonek"/>
  <anchor x="637.2400909090909" y="1520.0" name="top"/>
  <anchor x="40.83240909090909" y="1480.0" name="topleft"/>
  <outline>
    <contour>
      <point x="185.47504545454544" y="0.0" type="line"/>
      <point x="1055.0051363636364" y="0.0" type="line"/>
      <point x="1055.0051363636364" y="81.41836363636367" type="line"/>
      <point x="273.58595454545457" y="81.41836363636367" type="line"/>
      <point x="273.58595454545457" y="1398.5816363636363" type="line"/>
      <point x="1045.0051363636364" y="1398.5816363636363" type="line"/>
      <point x="1045.0051363636364" y="1480.0" type="line"/>
      <point x="185.47504545454544" y="1480.0" type="line"/>
    </contour>
    <contour>
      <point x="246.81536363636366" y="719.9556363636364" type="line"/>
      <point x="949.4465" y="719.9556363636364" type="line"/>
      <point x="949.4465" y="801.374" type="line"/>
      <point x="246.81536363636366" y="801.374" type="line"/>
    </contour>
  </outline>
</glyph>
<glyph name="F" format="2">
  <advance width="1085.0610000000001"/>
  <unicode hex="0046"/>
  <outline>
    <contour>
      <point x="185.47504545454544" y="0.0" type="line"/>
      <point x="273.9211363636364" y="0.0" type="line"/>
      <point x="273.9211363636364" y="1398.1905909090908" type="line"/>
      <point x="1035.5637727272729" y="1398.1905909090908" type="line"/>
      <point x="1035.5637727272729" y="1480.0" type="line"/>
      <point x="185.47504545454544" y="1480.0" type="line"/>
    </contour>
    <contour>
      <point x="257.15054545454547" y="717.0507272727273" type="line"/>
      <point x="940.0051363636364" y="717.0507272727273" type="line"/>
      <point x="940.0051363636364" y="798.8601363636363" type="line"/>
      <point x="257.15054545454547" y="798.8601363636363" type="line"/>
    </contour>
  </outline>
</glyph>
<glyph name="G" format="2">
  <advance width="1310.9437272727273"/>
  <unicode hex="0047"/>
  <anchor x="716.5974545454545" y="0.0" name="bottom"/>
  <anchor x="716.5974545454545" y="1520.0" name="top"/>
  <outline>
    <contour>
      <point x="835.156090909091" y="-10.558636363636365" type="curve" smooth="yes"/>
      <point x="937.7202727272727" y="-10.558636363636365"/>
      <point x="1024.6251818181818" y="-4.111727272727273"/>
      <point x="1148.9603636363636" y="16.888272727272728" type="curve"/>
      <point x="1148.9603636363636" y="720.0" type="line"/>
      <point x="1062.301909090909" y="720.0" type="line"/>
      <point x="1062.301909090909" y="53.044363636363656" type="line"/>
      <point x="1093.5752727272727" y="94.91559090909094" type="line"/>
      <point x="1017.3573636363636" y="79.3066363636364"/>
      <point x="934.3573636363636" y="71.41836363636367"/>
      <point x="833.145" y="71.41836363636367" type="curve" smooth="yes"/>
      <point x="419.9659090909091" y="71.41836363636367"/>
      <point x="209.43500000000003" y="259.73136363636365"/>
      <point x="208.49086363636368" y="739.3855" type="curve" smooth="yes"/>
      <point x="207.5467272727273" y="1241.927909090909"/>
      <point x="440.9603636363637" y="1415.9112727272727"/>
      <point x="789.9659090909091" y="1415.9671363636364" type="curve" smooth="yes"/>
      <point x="890.1335" y="1415.9671363636364"/>
      <point x="991.8541818181818" y="1404.9112727272727"/>
      <point x="1118.8989545454547" y="1367.9726818181819" type="curve"/>
      <point x="1118.8989545454547" y="1451.8379545454545" type="line"/>
      <point x="1007.29" y="1482.3910454545455"/>
      <point x="899.9548181818182" y="1498.1117272727272"/>
      <point x="788.6196363636363" y="1498.1117272727272" type="curve" smooth="yes"/>
      <point x="389.2737727272727" y="1498.1117272727272"/>
      <point x="114.31854545454544" y="1287.480590909091"/>
      <point x="115.26268181818182" y="737.8882727272727" type="curve" smooth="yes"/>
      <point x="116.20681818181818" y="210.17313636363636"/>
      <point x="365.05586363636365" y="-10.558636363636365"/>
    </contour>
  </outline>
</glyph>
<glyph name="H" format="2">
  <advance width="1408.167181818182"/>
  <unicode hex="0048"/>
  <anchor x="704.1394545454546" y="0.0" name="bottom"/>
  <anchor x="704.1394545454546" y="1143.9663181818182" name="center"/>
  <anchor x="704.1394545454546" y="1520.0" name="top"/>
  <anchor x="40.720681818181816" y="1480.0" name="topleft"/>
  <outline>
    <contour>
      <point x="185.47504545454544" y="0.0" type="line"/>
      <point x="273.9211363636364" y="0.0" type="line"/>
      <point x="273.9211363636364" y="718.8942272727272" type="line"/>
      <point x="1134.2460454545455" y="718.8942272727272" type="line"/>
      <point x="1134.2460454545455" y="0.0" type="line"/>
      <point x="1222.6921363636363" y="0.0" type="line"/>
      <point x="1222.6921363636363" y="1480.0" type="line"/>
      <point x="1134.2460454545455" y="1480.0" type="line"/>
      <point x="1134.2460454545455" y="802.4354090909092" type="line"/>
      <point x="273.9211363636364" y="802.4354090909092" type="line"/>
      <point x="273.9211363636364" y="1480.0" type="line"/>
      <point x="185.47504545454544" y="1480.0" type="line"/>
    </contour>
  </outline>
</glyph>
<glyph name="I" format="2">
  <advance width="459.39618181818184"/>
  <unicode hex="0049"/>
  <anchor x="229.6422272727273" y="0.0" name="bottom"/>
  <anchor x="273.9211363636364" y="0.0" name="ogonek"/>
  <anchor x="229.69809090909092" y="1520.0" name="top"/>
  <outline>
    <contour>
      <point x="185.47504545454544" y="0.0" type="line"/>
      <point x="273.9211363636364" y="0.0" type="line"/>
      <point x="273.9211363636364" y="1480.0" type="line"/>
      <point x="185.47504545454544" y="1480.0" type="line"/>
    </contour>
  </outline>
</glyph>
<glyph name="J" format="2">
  <advance width="459.39618181818184"/>
  <unicode hex="004A"/>
  <anchor x="323.0162272727273" y="0.0" name="bottom"/>
  <anchor x="229.75395454545455" y="1520.0" name="top"/>
  <outline>
    <contour>
      <point x="58.89340909090912" y="-340.7820909090909" type="line"/>
      <point x="208.30663636363641" y="-141.6648181818182"/>
      <point x="263.5356363636364" y="24.68145454545455"/>
      <point x="273.9211363636364" y="256.74286363636367" type="curve"/>
      <point x="273.9211363636364" y="1480.0" type="line"/>
      <point x="185.58677272727272" y="1480.0" type="line"/>
      <point x="185.58677272727272" y="287.0055454545455" type="line" smooth="yes"/>
      <point x="185.58677272727272" y="48.9049090909091"/>
      <point x="128.98336363636363" y="-116.74881818181817"/>
      <point x="-2.6759090909090943" y="-297.5701363636363" type="curve"/>
    </contour>
  </outline>
</glyph>
<glyph name="K" format="2">
  <advance width="1194.6755"/>
  <unicode hex="004B"/>
  <anchor x="622.4243181818182" y="0.0" name="bottom"/>
  <anchor x="621.9215454545455" y="1480.0" name="top"/>
  <outline>
    <contour>
      <point x="1101.1846363636364" y="0.0" type="line"/>
      <point x="1207.5245454545454" y="0.0" type="line"/>
      <point x="582.3399090909091" y="776.2345454545455" type="line"/>
      <point x="581.893" y="747.4302727272727" type="line"/>
      <point x="1165.4686818181817" y="1480.0" type="line"/>
      <point x="1061.855" y="1480.0" type="line"/>
      <point x="489.39659090909095" y="757.6648181818182" type="line"/>
    </contour>
    <contour>
      <point x="185.47504545454544" y="0.0" type="line"/>
      <point x="273.9211363636364" y="0.0" type="line"/>
      <point x="273.9211363636364" y="1480.0" type="line"/>
      <point x="185.47504545454544" y="1480.0" type="line"/>
    </contour>
    <contour>
      <point x="255.57486363636366" y="718.8942272727272" type="line"/>
      <point x="540.1002272727274" y="718.8942272727272" type="line"/>
      <point x="540.1002272727274" y="801.4912727272728" type="line"/>
      <point x="255.57486363636366" y="801.4912727272728" type="line"/>
    </contour>
  </outline>
</glyph>
<glyph name="L" format="2">
  <advance width="1036.6085454545455"/>
  <unicode hex="004C"/>
  <anchor x="605.6255909090909" y="0.0" name="bottom"/>
  <anchor x="673.2622727272727" y="1616.0" name="caronalt"/>
  <anchor x="737.6140909090909" y="781.7091818181818" name="periodcentered"/>
  <anchor x="229.92154545454548" y="778.4690909090909" name="slash"/>
  <anchor x="229.92154545454548" y="1520.0" name="top"/>
  <outline>
    <contour>
      <point x="185.47504545454544" y="0.0" type="line"/>
      <point x="1023.8878636363636" y="0.0" type="line"/>
      <point x="1023.8878636363636" y="82.25631818181822" type="line"/>
      <point x="273.9211363636364" y="82.25631818181822" type="line"/>
      <point x="273.9211363636364" y="1480.0" type="line"/>
      <point x="185.47504545454544" y="1480.0" type="line"/>
    </contour>
  </outline>
</glyph>
<glyph name="M" format="2">
  <advance width="1706.748"/>
  <unicode hex="004D"/>
  <anchor x="854.9940454545455" y="0.0" name="bottom"/>
  <anchor x="854.9940454545455" y="1480.0" name="top"/>
  <outline>
    <contour>
      <point x="189.47504545454544" y="0.0" type="line"/>
      <point x="274.3569545454546" y="0.0" type="line"/>
      <point x="274.3569545454546" y="1404.011909090909" type="line"/>
      <point x="233.1727272727273" y="1404.011909090909" type="line"/>
      <point x="807.7765454545455" y="201.11727272727273" type="line"/>
      <point x="898.9714545454545" y="201.11727272727273" type="line"/>
      <point x="1470.625590909091" y="1404.011909090909" type="line"/>
      <point x="1432.3910454545455" y="1404.011909090909" type="line"/>
      <point x="1432.3910454545455" y="0.0" type="line"/>
      <point x="1517.2729545454545" y="0.0" type="line"/>
      <point x="1517.2729545454545" y="1480.0" type="line"/>
      <point x="1416.7991363636363" y="1480.0" type="line"/>
      <point x="839.374" y="253.4516363636364" type="line"/>
      <point x="871.9326363636363" y="253.4516363636364" type="line"/>
      <point x="289.9488636363637" y="1480.0" type="line"/>
      <point x="189.47504545454544" y="1480.0" type="line"/>
    </contour>
  </outline>
</glyph>
<glyph name="N" format="2">
  <advance width="1436.2175"/>
  <unicode hex="004E"/>
  <anchor x="718.5808181818182" y="0.0" name="bottom"/>
  <anchor x="718.5808181818182" y="1520.0" name="top"/>
  <outline>
    <contour>
      <point x="185.47504545454544" y="0.0" type="line"/>
      <point x="270.5245454545455" y="0.0" type="line"/>
      <point x="270.5245454545455" y="1392.7385454545454" type="line"/>
      <point x="237.5693181818182" y="1392.7385454545454" type="line"/>
      <point x="1155.7432727272726" y="0.0" type="line"/>
      <point x="1250.7424545454546" y="0.0" type="line"/>
      <point x="1250.7424545454546" y="1480.0" type="line"/>
      <point x="1165.6929545454545" y="1480.0" type="line"/>
      <point x="1165.6929545454545" y="87.2614545454546" type="line"/>
      <point x="1198.648181818182" y="87.2614545454546" type="line"/>
      <point x="280.4742272727273" y="1480.0" type="line"/>
      <point x="185.47504545454544" y="1480.0" type="line"/>
    </contour>
  </outline>
</glyph>
<glyph name="O" format="2">
  <advance width="1383.4183636363637"/>
  <unicode hex="004F"/>
  <anchor x="691.7091818181818" y="0.0" name="bottom"/>
  <anchor x="691.7091818181818" y="740.0" name="center"/>
  <anchor x="852.5471363636364" y="0.0" name="ogonek"/>
  <anchor x="691.7091818181818" y="1520.0" name="top"/>
  <anchor x="44.391045454545456" y="1480.0" name="topleft"/>
  <anchor x="853.3906363636364" y="1480.0" name="topright"/>
  <outline>
    <contour>
      <point x="691.7091818181818" y="-18.111727272727272" type="curve" smooth="yes"/>
      <point x="1034.4686818181817" y="-18.111727272727272"/>
      <point x="1268.1556818181818" y="197.458"/>
      <point x="1268.1556818181818" y="740.0" type="curve" smooth="yes"/>
      <point x="1268.1556818181818" y="1282.542"/>
      <point x="1037.3569545454545" y="1498.1117272727272"/>
      <point x="691.7091818181818" y="1498.1117272727272" type="curve" smooth="yes"/>
      <point x="348.8938181818182" y="1498.1117272727272"/>
      <point x="115.26268181818182" y="1282.6537272727273"/>
      <point x="115.26268181818182" y="740.0" type="curve" smooth="yes"/>
      <point x="115.26268181818182" y="197.34627272727272"/>
      <point x="346.11727272727273" y="-18.111727272727272"/>
    </contour>
    <contour>
      <point x="691.7091818181818" y="64.4742272727273" type="curve" smooth="yes"/>
      <point x="402.9603636363637" y="64.4742272727273"/>
      <point x="208.0439545454546" y="236.45759090909092"/>
      <point x="208.0439545454546" y="744.2234545454545" type="curve" smooth="yes"/>
      <point x="208.0439545454546" y="1243.5424090909091"/>
      <point x="403.1279545454546" y="1415.5257727272726"/>
      <point x="691.7091818181818" y="1415.5257727272726" type="curve" smooth="yes"/>
      <point x="980.2904090909091" y="1415.5257727272726"/>
      <point x="1175.374409090909" y="1243.3748181818182"/>
      <point x="1175.374409090909" y="735.7765454545455" type="curve" smooth="yes"/>
      <point x="1175.374409090909" y="236.62518181818183"/>
      <point x="980.4580000000001" y="64.4742272727273"/>
    </contour>
  </outline>
</glyph>
<glyph name="P" format="2">
  <advance width="1194.5582272727272"/>
  <unicode hex="0050"/>
  <outline>
    <contour>
      <point x="185.47504545454544" y="0.0" type="line"/>
      <point x="273.9211363636364" y="0.0" type="line"/>
      <point x="273.9211363636364" y="521.4025454545455" type="line"/>
      <point x="350.519" y="513.8494545454545"/>
      <point x="414.67550000000006" y="510.9053181818182"/>
      <point x="491.4968181818182" y="510.9053181818182" type="curve" smooth="yes"/>
      <point x="913.7761363636364" y="510.9053181818182"/>
      <point x="1097.6251818181818" y="684.7432727272727"/>
      <point x="1097.6251818181818" y="1003.5364545454545" type="curve" smooth="yes"/>
      <point x="1097.6251818181818" y="1342.2737727272727"/>
      <point x="902.2789090909091" y="1494.3351818181818"/>
      <point x="534.0780454545454" y="1494.3351818181818" type="curve" smooth="yes"/>
      <point x="408.7262272727273" y="1494.3351818181818"/>
      <point x="300.542" y="1481.8882727272728"/>
      <point x="185.47504545454544" y="1460.3855" type="curve"/>
    </contour>
    <contour>
      <point x="494.55268181818184" y="591.0946818181818" type="curve" smooth="yes"/>
      <point x="413.73136363636365" y="591.0946818181818"/>
      <point x="344.9659090909091" y="594.9829545454545"/>
      <point x="273.9211363636364" y="604.7036363636364" type="curve"/>
      <point x="273.9211363636364" y="1392.927909090909" type="line"/>
      <point x="354.07209090909095" y="1406.481"/>
      <point x="437.7761363636364" y="1414.1458181818182"/>
      <point x="536.4243181818182" y="1414.1458181818182" type="curve" smooth="yes"/>
      <point x="851.8213181818181" y="1414.1458181818182"/>
      <point x="1006.2405" y="1289.385909090909"/>
      <point x="1006.2405" y="1000.5923181818182" type="curve" smooth="yes"/>
      <point x="1006.2405" y="726.6255909090909"/>
      <point x="855.5978636363636" y="591.0946818181818"/>
    </contour>
  </outline>
</glyph>
<glyph name="Q" format="2">
  <advance width="1383.4183636363637"/>
  <unicode hex="0051"/>
  <outline>
    <contour>
      <point x="1228.3066363636365" y="-190.83754545454548" type="curve"/>
      <point x="1241.7701818181818" y="-109.8660909090909" type="line"/>
      <point x="1026.373590909091" y="-92.08399999999999"/>
      <point x="778.8260454545455" y="-53.41363636363635"/>
      <point x="608.7424545454546" y="22.64777272727274" type="curve"/>
      <point x="605.3629090909092" y="-5.821318181818177" type="line"/>
      <point x="1039.4128181818182" y="-57.3855"/>
      <point x="1268.1556818181818" y="201.79318181818184"/>
      <point x="1268.1556818181818" y="740.0" type="curve" smooth="yes"/>
      <point x="1268.1556818181818" y="1288.206818181818"/>
      <point x="1034.5245454545454" y="1498.1117272727272"/>
      <point x="691.7091818181818" y="1498.1117272727272" type="curve" smooth="yes"/>
      <point x="348.8938181818182" y="1498.1117272727272"/>
      <point x="115.26268181818182" y="1282.6537272727273"/>
      <point x="115.26268181818182" y="739.4413636363637" type="curve" smooth="yes"/>
      <point x="115.26268181818182" y="131.3015"/>
      <point x="369.7262272727273" y="-99.47463636363638"/>
    </contour>
    <contour>
      <point x="691.7091818181818" y="64.4742272727273" type="curve" smooth="yes"/>
      <point x="402.8486363636364" y="64.4742272727273"/>
      <point x="208.0439545454546" y="236.34586363636367"/>
      <point x="208.0439545454546" y="744.2234545454545" type="curve" smooth="yes"/>
      <point x="208.0439545454546" y="1243.5424090909091"/>
      <point x="403.1279545454546" y="1415.5257727272726"/>
      <point x="691.7091818181818" y="1415.5257727272726" type="curve" smooth="yes"/>
      <point x="980.2904090909091" y="1415.5257727272726"/>
      <point x="1175.374409090909" y="1243.3748181818182"/>
      <point x="1175.374409090909" y="735.7765454545455" type="curve" smooth="yes"/>
      <point x="1175.374409090909" y="236.62518181818183"/>
      <point x="980.4580000000001" y="64.4742272727273"/>
    </contour>
  </outline>
</glyph>
<glyph name="R" format="2">
  <advance width="1274.8823181818182"/>
  <unicode hex="0052"/>
  <anchor x="665.0277272727272" y="0.0" name="bottom"/>
  <anchor x="607.9774090909091" y="1520.0" name="top"/>
  <outline>
    <contour>
      <point x="185.47504545454544" y="0.0" type="line"/>
      <point x="273.4742272727273" y="0.0" type="line"/>
      <point x="273.4742272727273" y="652.0059545454545" type="line"/>
      <point x="345.6865909090909" y="646.2852727272727"/>
      <point x="407.29" y="642.3969999999999"/>
      <point x="500.38509090909093" y="642.3969999999999" type="curve" smooth="yes"/>
      <point x="900.4912727272728" y="642.3969999999999"/>
      <point x="1100.7872272727273" y="787.0170454545455"/>
      <point x="1098.8989545454547" y="1073.5867727272728" type="curve" smooth="yes"/>
      <point x="1098.8989545454547" y="1362.7151363636362"/>
      <point x="922.4912727272728" y="1494.3351818181818"/>
      <point x="549.0221818181818" y="1494.3351818181818" type="curve" smooth="yes"/>
      <point x="399.79318181818184" y="1494.3351818181818"/>
      <point x="289.04477272727274" y="1478.7765454545454"/>
      <point x="185.47504545454544" y="1459.8827272727274" type="curve"/>
    </contour>
    <contour>
      <point x="1105.3411363636365" y="0.0" type="line"/>
      <point x="1209.9045" y="0.0" type="line"/>
      <point x="664.2674090909092" y="701.4916818181819" type="line"/>
      <point x="562.1509545454545" y="701.4916818181819" type="line"/>
    </contour>
    <contour>
      <point x="499.05545454545455" y="721.4746363636364" type="curve" smooth="yes"/>
      <point x="407.6810454545455" y="721.4746363636364"/>
      <point x="358.96036363636364" y="724.4746363636364"/>
      <point x="273.4742272727273" y="731.362909090909" type="curve"/>
      <point x="273.4742272727273" y="1391.2072272727273" type="line"/>
      <point x="358.6810454545455" y="1405.760318181818"/>
      <point x="433.0051363636364" y="1414.5368636363637"/>
      <point x="548.0388181818182" y="1414.5368636363637" type="curve" smooth="yes"/>
      <point x="876.3688636363636" y="1414.5368636363637"/>
      <point x="1012.0729090909091" y="1315.8831363636364"/>
      <point x="1012.0729090909091" y="1070.7543636363637" type="curve" smooth="yes"/>
      <point x="1012.0729090909091" y="835.6200454545454"/>
      <point x="862.2068181818182" y="721.4746363636364"/>
    </contour>
  </outline>
</glyph>
<glyph name="S" format="2">
  <advance width="1021.3961818181818"/>
  <unicode hex="0053"/>
  <anchor x="518.0332727272728" y="0.0" name="bottom"/>
  <anchor x="518.0332727272728" y="1520.0" name="top"/>
  <outline>
    <contour>
      <point x="443.1953181818182" y="-18.111727272727272" type="curve" smooth="yes"/>
      <point x="760.1671818181818" y="-18.111727272727272"/>
      <point x="938.7983181818182" y="125.40213636363637"/>
      <point x="938.7983181818182" y="384.52495454545453" type="curve" smooth="yes"/>
      <point x="938.7983181818182" y="593.145"/>
      <point x="817.8486363636364" y="713.2622727272727"/>
      <point x="550.1727272727273" y="781.4857272727273" type="curve" smooth="yes"/>
      <point x="484.2622727272727" y="798.4912727272728" type="line" smooth="yes"/>
      <point x="259.0217727272728" y="857.7595"/>
      <point x="174.59704545454548" y="940.3518181818182"/>
      <point x="174.59704545454548" y="1112.0336818181818" type="curve" smooth="yes"/>
      <point x="174.59704545454548" y="1307.0451818181818"/>
      <point x="303.23968181818185" y="1416.5257727272726"/>
      <point x="567.5023636363637" y="1416.5257727272726" type="curve" smooth="yes"/>
      <point x="672.5079090909092" y="1416.5257727272726"/>
      <point x="775.1838181818182" y="1402.3023181818182"/>
      <point x="879.3458636363637" y="1369.6375" type="curve"/>
      <point x="879.3458636363637" y="1453.2234545454546" type="line"/>
      <point x="788.1224090909091" y="1482.9441363636363"/>
      <point x="674.2285909090909" y="1498.1117272727272"/>
      <point x="569.7147272727273" y="1498.1117272727272" type="curve" smooth="yes"/>
      <point x="247.94968181818183" y="1498.1117272727272"/>
      <point x="82.59786363636363" y="1348.4916818181819"/>
      <point x="82.59786363636363" y="1106.9722727272726" type="curve" smooth="yes"/>
      <point x="82.59786363636363" y="899.2963636363636"/>
      <point x="203.6592727272727" y="778.1790909090909"/>
      <point x="451.7206818181818" y="714.1232272727273" type="curve" smooth="yes"/>
      <point x="517.6311363636364" y="697.1176818181818" type="line" smooth="yes"/>
      <point x="751.7095909090909" y="635.6818636363636"/>
      <point x="846.7991363636363" y="556.6985"/>
      <point x="846.7991363636363" y="380.0166363636364" type="curve" smooth="yes"/>
      <point x="846.7991363636363" y="171.6196363636364"/>
      <point x="712.8827272727273" y="63.474227272727305"/>
      <point x="446.80427272727275" y="63.474227272727305" type="curve" smooth="yes"/>
      <point x="341.79318181818184" y="63.474227272727305"/>
      <point x="224.21790909090907" y="81.03286363636367"/>
      <point x="100.16204545454545" y="122.97700000000003" type="curve"/>
      <point x="100.16204545454545" y="39.391045454545456" type="line"/>
      <point x="211.94413636363637" y="0.27931818181818224"/>
      <point x="336.95522727272726" y="-18.111727272727272"/>
    </contour>
  </outline>
</glyph>
<glyph name="T" format="2">
  <advance width="1125.798318181818"/>
  <unicode hex="0054"/>
  <anchor x="562.9270909090909" y="0.0" name="bottom"/>
  <anchor x="562.9270909090909" y="794.4136363636363" name="center"/>
  <anchor x="562.9270909090909" y="1520.0" name="top"/>
  <outline>
    <contour>
      <point x="518.6481818181818" y="0.0" type="line"/>
      <point x="607.1501363636364" y="0.0" type="line"/>
      <point x="607.1501363636364" y="1397.7436818181818" type="line"/>
      <point x="1111.8541818181818" y="1397.7436818181818" type="line"/>
      <point x="1111.8541818181818" y="1480.0" type="line"/>
      <point x="13.944136363636364" y="1480.0" type="line"/>
      <point x="13.944136363636364" y="1397.7436818181818" type="line"/>
      <point x="518.6481818181818" y="1397.7436818181818" type="line"/>
    </contour>
  </outline>
</glyph>
<glyph name="U" format="2">
  <advance width="1381.7761363636364"/>
  <unicode hex="0055"/>
  <anchor x="692.083590909091" y="0.0" name="bottom"/>
  <anchor x="833.7872272727273" y="1.888272727272727" name="ogonek"/>
  <anchor x="692.083590909091" y="1520.0" name="top"/>
  <anchor x="1119.9778181818183" y="1480.0" name="topright"/>
  <outline>
    <contour>
      <point x="692.083590909091" y="-18.111727272727272" type="curve" smooth="yes"/>
      <point x="1045.4520454545454" y="-18.111727272727272"/>
      <point x="1204.1893636363636" y="152.9049090909091"/>
      <point x="1204.1893636363636" y="535.7036363636364" type="curve" smooth="yes"/>
      <point x="1204.1893636363636" y="1480.0" type="line"/>
      <point x="1118.0784545454544" y="1480.0" type="line"/>
      <point x="1118.0784545454544" y="523.9718636363637" type="line" smooth="yes"/>
      <point x="1118.0784545454544" y="206.0665454545455"/>
      <point x="988.7599090909091" y="63.86527272727276"/>
      <point x="692.083590909091" y="63.86527272727276" type="curve" smooth="yes"/>
      <point x="395.40727272727275" y="63.86527272727276"/>
      <point x="266.0328636363637" y="206.0665454545455"/>
      <point x="266.0328636363637" y="523.9718636363637" type="curve" smooth="yes"/>
      <point x="266.0328636363637" y="1480.0" type="line"/>
      <point x="177.58677272727272" y="1480.0" type="line"/>
      <point x="177.58677272727272" y="535.7036363636364" type="line" smooth="yes"/>
      <point x="177.58677272727272" y="152.9049090909091"/>
      <point x="338.3240909090909" y="-18.111727272727272"/>
    </contour>
  </outline>
</glyph>
<glyph name="V" format="2">
  <advance width="1260.748"/>
  <unicode hex="0056"/>
  <outline>
    <contour>
      <point x="568.0115" y="0.0" type="line"/>
      <point x="692.7365000000001" y="0.0" type="line"/>
      <point x="1245.0328636363636" y="1480.0" type="line"/>
      <point x="1154.480590909091" y="1480.0" type="line"/>
      <point x="622.698090909091" y="47.42986363636365" type="line"/>
      <point x="643.0554545454546" y="47.42986363636365" type="line"/>
      <point x="111.77572727272731" y="1480.0" type="line"/>
      <point x="15.715136363636361" y="1480.0" type="line"/>
    </contour>
  </outline>
</glyph>
<glyph name="W" format="2">
  <advance width="2041.5019545454545"/>
  <unicode hex="0057"/>
  <anchor x="1022.1671818181818" y="0.0" name="bottom"/>
  <anchor x="1022.1671818181818" y="1520.0" name="top"/>
  <outline>
    <contour>
      <point x="495.5756818181818" y="0.0" type="line"/>
      <point x="615.2729545454546" y="0.0" type="line"/>
      <point x="1032.519" y="1420.0451818181818" type="line"/>
      <point x="1010.0443636363636" y="1420.0451818181818" type="line"/>
      <point x="1426.229" y="0.0" type="line"/>
      <point x="1545.9262727272728" y="0.0" type="line"/>
      <point x="1974.6303181818182" y="1480.0" type="line"/>
      <point x="1886.6366818181818" y="1480.0" type="line"/>
      <point x="1475.614090909091" y="48.21195454545456" type="line"/>
      <point x="1496.2507727272728" y="48.21195454545456" type="line"/>
      <point x="1079.5075000000002" y="1480.0" type="line"/>
      <point x="964.3910454545454" y="1480.0" type="line"/>
      <point x="547.5305000000001" y="48.21195454545456" type="line"/>
      <point x="568.7816818181818" y="48.21195454545456" type="line"/>
      <point x="159.26186363636367" y="1480.0" type="line"/>
      <point x="65.9275" y="1480.0" type="line"/>
    </contour>
  </outline>
</glyph>
<glyph name="X" format="2">
  <advance width="1234.2341363636365"/>
  <unicode hex="0058"/>
  <outline>
    <contour>
      <point x="1095.6426363636365" y="0.0" type="line"/>
      <point x="1203.373590909091" y="0.0" type="line"/>
      <point x="669.8763636363636" y="749.7876363636364" type="line"/>
      <point x="617.145" y="821.9211363636364" type="line"/>
      <point x="148.6584545454546" y="1480.0" type="line"/>
      <point x="41.70404545454545" y="1480.0" type="line"/>
      <point x="563.1901818181818" y="748.5641818181819" type="line"/>
      <point x="615.9215454545455" y="675.6541363636363" type="line"/>
    </contour>
    <contour>
      <point x="29.692954545454533" y="0.0" type="line"/>
      <point x="135.25631818181822" y="0.0" type="line"/>
      <point x="615.9215454545455" y="675.6541363636363" type="line"/>
      <point x="669.8763636363636" y="749.7876363636364" type="line"/>
      <point x="1190.8597272727272" y="1480.0" type="line"/>
      <point x="1086.5198181818182" y="1480.0" type="line"/>
      <point x="617.145" y="821.9211363636364" type="line"/>
      <point x="563.1901818181818" y="748.5641818181819" type="line"/>
    </contour>
  </outline>
</glyph>
<glyph name="Y" format="2">
  <advance width="1125.798318181818"/>
  <unicode hex="0059"/>
  <anchor x="562.8712272727273" y="0.0" name="bottom"/>
  <anchor x="562.9270909090909" y="1520.0" name="top"/>
  <anchor x="12.26822727272727" y="1480.0" name="topleft"/>
  <outline>
    <contour>
      <point x="518.8157727272727" y="0.0" type="line"/>
      <point x="607.2618636363636" y="0.0" type="line"/>
      <point x="607.2618636363636" y="710.687" type="line"/>
      <point x="585.4631363636364" y="641.4417727272727" type="line"/>
      <point x="1139.144590909091" y="1480.0" type="line"/>
      <point x="1040.0392272727272" y="1480.0" type="line"/>
      <point x="545.2511818181819" y="728.4354090909092" type="line"/>
      <point x="583.832" y="728.4354090909092" type="line"/>
      <point x="82.2115454545455" y="1480.0" type="line"/>
      <point x="-21.625590909090914" y="1480.0" type="line"/>
      <point x="540.6145" y="641.4417727272727" type="line"/>
      <point x="518.8157727272727" y="711.0221818181818" type="line"/>
    </contour>
  </outline>
</glyph>
<glyph name="Z" format="2">
  <advance width="1113.8375454545455"/>
  <unicode hex="005A"/>
  <anchor x="557.2511818181819" y="0.0" name="bottom"/>
  <anchor x="557.4746363636364" y="1520.0" name="top"/>
  <outline>
    <contour>
      <point x="62.720681818181816" y="0.0" type="line"/>
      <point x="1051.1168636363636" y="0.0" type="line"/>
      <point x="1051.1168636363636" y="80.3680454545455" type="line"/>
      <point x="151.4682727272728" y="80.3680454545455" type="line"/>
      <point x="164.68618181818186" y="52.463136363636394" type="line"/>
      <point x="1039.228590909091" y="1428.9948636363636" type="line"/>
      <point x="1039.228590909091" y="1480.0" type="line"/>
      <point x="74.60895454545454" y="1480.0" type="line"/>
      <point x="74.60895454545454" y="1399.6319545454546" type="line"/>
      <point x="950.481" y="1399.6319545454546" type="line"/>
      <point x="937.2630909090909" y="1427.5368636363637" type="line"/>
      <point x="62.720681818181816" y="51.00513636363639" type="line"/>
    </contour>
  </outline>
</glyph>
<glyph name="bracketleft" format="2">
  <advance width="633.1505454545454"/>
  <unicode hex="005B"/>
  <outline>
    <contour>
      <point x="205.47504545454544" y="-440.0" type="line"/>
      <point x="671.8098181818182" y="-440.0" type="line"/>
      <point x="671.8098181818182" y="-361.1402727272727" type="line"/>
      <point x="293.41836363636367" y="-361.1402727272727" type="line"/>
      <point x="293.41836363636367" y="1537.1402727272728" type="line"/>
      <point x="672.3684545454546" y="1537.1402727272728" type="line"/>
      <point x="672.3684545454546" y="1616.0" type="line"/>
      <point x="205.47504545454544" y="1616.0" type="line"/>
    </contour>
  </outline>
</glyph>
<glyph name="backslash" format="2">
  <advance width="542.3399090909091"/>
  <unicode hex="005C"/>
  <outline>
    <contour>
      <point x="451.95522727272726" y="-240.0" type="line"/>
      <point x="542.3399090909091" y="-240.0" type="line"/>
      <point x="90.38468181818186" y="1616.0" type="line"/>
      <point x="0.0" y="1616.0" type="line"/>
    </contour>
  </outline>
</glyph>
<glyph name="bracketright" format="2">
  <advance width="633.1505454545454"/>
  <unicode hex="005D"/>
  <outline>
    <contour>
      <point x="-38.65927272727272" y="-440.0" type="line"/>
      <point x="427.67550000000006" y="-440.0" type="line"/>
      <point x="427.67550000000006" y="1616.0" type="line"/>
      <point x="-39.21790909090909" y="1616.0" type="line"/>
      <point x="-39.21790909090909" y="1537.1402727272728" type="line"/>
      <point x="339.7321818181818" y="1537.1402727272728" type="line"/>
      <point x="339.7321818181818" y="-361.1402727272727" type="line"/>
      <point x="-38.65927272727272" y="-361.1402727272727" type="line"/>
    </contour>
  </outline>
</glyph>
<glyph name="asciicircum" format="2">
  <advance width="1112.29"/>
  <unicode hex="005E"/>
  <outline>
    <contour>
      <point x="110.08954545454544" y="740.0" type="line"/>
      <point x="207.46868181818184" y="740.0" type="line"/>
      <point x="565.0051363636364" y="1427.1176818181818" type="line"/>
      <point x="547.2848636363636" y="1427.1176818181818" type="line"/>
      <point x="904.8213181818182" y="740.0" type="line"/>
      <point x="1002.2004545454546" y="740.0" type="line"/>
      <point x="610.4686818181818" y="1480.0" type="line"/>
      <point x="499.93304545454544" y="1480.0" type="line"/>
    </contour>
  </outline>
</glyph>
<glyph name="underscore" format="2">
  <advance width="1082.9492727272727"/>
  <unicode hex="005F"/>
  <outline>
    <contour>
      <point x="94.44136363636363" y="-78.91559090909094" type="line"/>
      <point x="988.5079090909092" y="-78.91559090909094" type="line"/>
      <point x="988.5079090909092" y="-0.05586363636363648" type="line"/>
      <point x="94.44136363636363" y="-0.05586363636363648" type="line"/>
    </contour>
  </outline>
</glyph>
<glyph name="a" format="2">
  <advance width="990.0051363636364"/>
  <unicode hex="0061"/>
  <anchor x="503.80427272727275" y="0.0" name="bottom"/>
  <anchor x="837.6362727272727" y="0.0" name="ogonek"/>
  <anchor x="490.58636363636367" y="1200.0" name="top"/>
  <outline>
    <contour>
      <point x="421.6648181818182" y="-16.33518181818182" type="curve" smooth="yes"/>
      <point x="552.603409090909" y="-16.33518181818182"/>
      <point x="672.3744090909091" y="36.54754545454545"/>
      <point x="745.7040454545454" y="126.49168181818182" type="curve"/>
      <point x="754.2626818181818" y="126.49168181818182" type="line"/>
      <point x="761.5475454545455" y="0.0" type="line"/>
      <point x="837.6362727272727" y="0.0" type="line"/>
      <point x="837.6362727272727" y="738.4025454545455" type="line" smooth="yes"/>
      <point x="837.6362727272727" y="1010.771"/>
      <point x="701.9603636363637" y="1097.229"/>
      <point x="460.74286363636367" y="1097.229" type="curve" smooth="yes"/>
      <point x="364.5697272727273" y="1097.229"/>
      <point x="249.72622727272727" y="1080.3407272727272"/>
      <point x="164.771" y="1048.4524545454547" type="curve"/>
      <point x="164.771" y="966.7658636363636" type="line"/>
      <point x="268.3240909090909" y="1003.2072272727272"/>
      <point x="373.9944545454546" y="1017.2072272727272"/>
      <point x="456.2179090909091" y="1017.2072272727272" type="curve" smooth="yes"/>
      <point x="645.4916818181819" y="1017.2072272727272"/>
      <point x="750.3074545454546" y="959.9893181818181"/>
      <point x="750.3074545454546" y="740.0225909090909" type="curve" smooth="yes"/>
      <point x="750.3074545454546" y="224.02218181818182" type="line"/>
      <point x="662.4916818181819" y="107.72027272727274"/>
      <point x="545.0725" y="62.06654545454548"/>
      <point x="432.70918181818183" y="62.06654545454548" type="curve" smooth="yes"/>
      <point x="276.07209090909095" y="62.06654545454548"/>
      <point x="197.53009090909094" y="136.4968181818182"/>
      <point x="197.53009090909094" y="277.30150000000003" type="curve" smooth="yes"/>
      <point x="197.53009090909094" y="409.8324090909091"/>
      <point x="277.0162272727273" y="482.5978636363636"/>
      <point x="471.7595" y="504.5923181818182" type="curve" smooth="yes"/>
      <point x="795.8268636363637" y="541.9722727272728" type="line"/>
      <point x="790.313" y="616.7428636363636" type="line"/>
      <point x="471.0221818181818" y="579.362909090909" type="line" smooth="yes"/>
      <point x="215.43581818181818" y="550.9215454545455"/>
      <point x="104.42472727272727" y="451.35736363636363"/>
      <point x="104.42472727272727" y="269.3462727272727" type="curve" smooth="yes"/>
      <point x="104.42472727272727" y="87.6759090909091"/>
      <point x="226.20681818181816" y="-16.33518181818182"/>
    </contour>
  </outline>
</glyph>
<glyph name="b" format="2">
  <advance width="1083.6251818181818"/>
  <unicode hex="0062"/>
  <anchor x="544.4801818181818" y="0.0" name="bottom"/>
  <anchor x="209.92154545454548" y="1616.0" name="top"/>
  <outline>
    <contour>
      <point x="460.8712272727273" y="-18.167590909090908" type="curve" smooth="yes"/>
      <point x="795.9100454545455" y="-18.223454545454548"/>
      <point x="978.6976818181819" y="164.62004545454545"/>
      <point x="978.6976818181819" y="560.7262272727273" type="curve" smooth="yes"/>
      <point x="978.6976818181819" y="960.9944545454546"/>
      <point x="793.8038636363636" y="1097.229"/>
      <point x="568.4686818181818" y="1097.229" type="curve" smooth="yes"/>
      <point x="433.4742272727273" y="1097.229"/>
      <point x="327.31218181818184" y="1041.0669545454546"/>
      <point x="260.59150000000005" y="966.7876363636364" type="curve"/>
      <point x="253.86527272727275" y="966.7876363636364" type="line"/>
      <point x="253.86527272727275" y="1616.0" type="line"/>
      <point x="165.92195454545453" y="1616.0" type="line"/>
      <point x="165.92195454545453" y="25.340727272727275" type="line"/>
      <point x="255.16204545454545" y="-2.8324090909090907"/>
      <point x="360.4076818181818" y="-18.167590909090908"/>
    </contour>
    <contour>
      <point x="466.7147272727273" y="61.79831818181821" type="curve" smooth="yes"/>
      <point x="386.4520454545455" y="61.79831818181821"/>
      <point x="308.1893636363637" y="74.29554545454548"/>
      <point x="253.86527272727275" y="90.68104545454548" type="curve"/>
      <point x="253.86527272727275" y="862.2963636363636" type="line"/>
      <point x="325.6865909090909" y="967.1010454545454"/>
      <point x="440.4968181818182" y="1015.6989090909091"/>
      <point x="555.1394545454546" y="1015.6989090909091" type="curve" smooth="yes"/>
      <point x="742.6145" y="1015.6989090909091"/>
      <point x="886.9219545454546" y="913.6596818181818"/>
      <point x="886.9219545454546" y="551.3296363636364" type="curve" smooth="yes"/>
      <point x="886.9219545454546" y="205.16163636363638"/>
      <point x="740.6145" y="61.79831818181821"/>
    </contour>
  </outline>
</glyph>
<glyph name="c" format="2">
  <advance width="836.7816818181818"/>
  <unicode hex="0063"/>
  <anchor x="501.46909090909094" y="0.0" name="bottom"/>
  <anchor x="502.96077272727274" y="1200.0" name="top"/>
  <outline>
    <contour>
      <point x="545.8767727272727" y="-18.223454545454548" type="curve" smooth="yes"/>
      <point x="630.1616363636364" y="-18.223454545454548"/>
      <point x="716.1671818181818" y="-3.223454545454546"/>
      <point x="802.6644090909091" y="28.32963636363636" type="curve"/>
      <point x="802.6644090909091" y="110.96590909090912" type="line"/>
      <point x="705.1113181818182" y="76.74800000000003"/>
      <point x="626.1727272727273" y="62.97145454545458"/>
      <point x="556.2844545454545" y="62.97145454545458" type="curve" smooth="yes"/>
      <point x="322.0273181818182" y="62.97145454545458"/>
      <point x="197.31772727272732" y="188.56377272727275"/>
      <point x="197.31772727272732" y="544.3351818181818" type="curve" smooth="yes"/>
      <point x="197.31772727272732" y="893.939"/>
      <point x="329.30109090909093" y="1016.0340909090909"/>
      <point x="595.2789090909091" y="1016.0340909090909" type="curve" smooth="yes"/>
      <point x="660.3906363636364" y="1016.0340909090909"/>
      <point x="730.832" y="1006.2575454545454"/>
      <point x="802.6644090909091" y="985.8720454545454" type="curve"/>
      <point x="802.6644090909091" y="1068.5083181818181" type="line"/>
      <point x="735.9940454545455" y="1088.2848636363638"/>
      <point x="659.5471363636364" y="1097.229"/>
      <point x="589.9270909090909" y="1097.229" type="curve" smooth="yes"/>
      <point x="276.0055454545454" y="1097.229"/>
      <point x="104.9275" y="937.4972272727273"/>
      <point x="104.9275" y="540.3910454545454" type="curve" smooth="yes"/>
      <point x="104.9275" y="142.73177272727273"/>
      <point x="264.55863636363637" y="-18.223454545454548"/>
    </contour>
  </outline>
</glyph>
<glyph name="d" format="2">
  <advance width="1083.6251818181818"/>
  <unicode hex="0064"/>
  <anchor x="540.1505454545455" y="0.0" name="bottom"/>
  <anchor x="1036.0273181818181" y="1616.0" name="caronalt"/>
  <anchor x="539.2567272727273" y="540.2793181818182" name="center"/>
  <anchor x="917.7032272727273" y="1355.832409090909" name="stroke"/>
  <anchor x="538.5863636363637" y="1200.0" name="top"/>
  <anchor x="1033.072090909091" y="1081.1172727272726" name="topright"/>
  <outline>
    <contour>
      <point x="522.6089545454545" y="-18.111727272727272" type="curve" smooth="yes"/>
      <point x="652.5530909090909" y="-18.111727272727272"/>
      <point x="759.8268636363637" y="38.608954545454544"/>
      <point x="825.5475454545455" y="118.66481818181818" type="curve"/>
      <point x="834.1061818181818" y="118.66481818181818" type="line"/>
      <point x="841.1675909090909" y="0.0" type="line"/>
      <point x="917.7032272727273" y="0.0" type="line"/>
      <point x="917.7032272727273" y="1616.0" type="line"/>
      <point x="829.7599090909091" y="1616.0" type="line"/>
      <point x="829.7599090909091" y="1080.0669545454546" type="line"/>
      <point x="771.5475454545455" y="1089.6200454545456"/>
      <point x="698.9496818181818" y="1097.2848636363638"/>
      <point x="630.0725" y="1097.2848636363638" type="curve" smooth="yes"/>
      <point x="287.88272727272727" y="1097.2848636363638"/>
      <point x="104.9275" y="914.2737727272727"/>
      <point x="104.9275" y="518.5027727272727" type="curve" smooth="yes"/>
      <point x="104.9275" y="124.17313636363636"/>
      <point x="287.88272727272727" y="-18.111727272727272"/>
    </contour>
    <contour>
      <point x="532.8153636363636" y="63.36250000000003" type="curve" smooth="yes"/>
      <point x="336.3458636363637" y="63.36250000000003"/>
      <point x="196.7032272727273" y="169.17827272727277"/>
      <point x="196.7032272727273" y="527.8435" type="curve" smooth="yes"/>
      <point x="196.7032272727273" y="873.8997727272728"/>
      <point x="343.01068181818187" y="1017.2630909090909"/>
      <point x="627.2959545454546" y="1017.2630909090909" type="curve" smooth="yes"/>
      <point x="697.0055454545454" y="1017.2630909090909"/>
      <point x="775.4358181818181" y="1008.542409090909"/>
      <point x="829.7599090909091" y="995.1010454545454" type="curve"/>
      <point x="829.7599090909091" y="224.8209090909091" type="line"/>
      <point x="757.9944545454546" y="112.12795454545457"/>
      <point x="643.9049090909091" y="63.36250000000003"/>
    </contour>
  </outline>
</glyph>
<glyph name="e" format="2">
  <advance width="993.9437272727273"/>
  <unicode hex="0065"/>
  <anchor x="513.0277272727272" y="0.0" name="bottom"/>
  <anchor x="757.0384090909091" y="0.0" name="ogonek"/>
  <anchor x="513.0277272727272" y="1200.0" name="top"/>
  <outline>
    <contour>
      <point x="579.8209090909091" y="-18.223454545454548" type="curve" smooth="yes"/>
      <point x="668.0499090909091" y="-18.223454545454548"/>
      <point x="755.2789090909091" y="-4.5027727272727285"/>
      <point x="854.7872272727273" y="27.994454545454545" type="curve"/>
      <point x="854.7872272727273" y="109.5693181818182" type="line"/>
      <point x="752.4017272727273" y="77.4631363636364"/>
      <point x="667.4520454545454" y="61.68659090909094"/>
      <point x="587.061" y="61.68659090909094" type="curve" smooth="yes"/>
      <point x="334.1727272727273" y="61.68659090909094"/>
      <point x="196.47977272727275" y="186.93818181818185"/>
      <point x="196.47977272727275" y="531.5923181818182" type="curve" smooth="yes"/>
      <point x="196.47977272727275" y="555.5305" type="line" smooth="yes"/>
      <point x="196.47977272727275" y="899.5812272727272"/>
      <point x="320.39618181818184" y="1020.3914545454545"/>
      <point x="512.3070454545455" y="1020.3914545454545" type="curve" smooth="yes"/>
      <point x="703.2179090909091" y="1020.3914545454545"/>
      <point x="816.6929545454545" y="898.5812272727272"/>
      <point x="816.6929545454545" y="555.4746363636364" type="curve"/>
      <point x="845.5923181818182" y="580.9718636363637" type="line"/>
      <point x="149.7147272727273" y="580.9718636363637" type="line"/>
      <point x="149.7147272727273" y="505.5867727272727" type="line"/>
      <point x="905.6251818181819" y="505.5867727272727" type="line"/>
      <point x="905.6251818181819" y="539.8324090909091" type="line" smooth="yes"/>
      <point x="905.6251818181819" y="932.1565"/>
      <point x="758.1727272727273" y="1097.229"/>
      <point x="512.5863636363637" y="1097.229" type="curve" smooth="yes"/>
      <point x="267.71513636363636" y="1097.229"/>
      <point x="104.9275" y="931.2123636363636"/>
      <point x="104.9275" y="540.6145" type="curve" smooth="yes"/>
      <point x="104.9275" y="141.67036363636365"/>
      <point x="275.43581818181815" y="-18.223454545454548"/>
    </contour>
  </outline>
</glyph>
<glyph name="f" format="2">
  <advance width="677.7816818181818"/>
  <unicode hex="0066"/>
  <outline>
    <contour>
      <point x="232.43027272727272" y="0.0" type="line"/>
      <point x="320.206" y="0.0" type="line"/>
      <point x="320.206" y="1287.3411363636365" type="line" smooth="yes"/>
      <point x="320.206" y="1482.201681818182"/>
      <point x="407.4742272727273" y="1555.1402727272728"/>
      <point x="582.7983181818182" y="1555.1402727272728" type="curve" smooth="yes"/>
      <point x="630.8486363636364" y="1555.1402727272728"/>
      <point x="676.843090909091" y="1550.3078636363637"/>
      <point x="724.1727272727273" y="1541.5871818181818" type="curve"/>
      <point x="724.1727272727273" y="1624.0" type="line"/>
      <point x="678.6140909090909" y="1632.0"/>
      <point x="626.7258181818182" y="1636.0"/>
      <point x="582.6085454545455" y="1636.0" type="curve" smooth="yes"/>
      <point x="350.12281818181816" y="1636.0"/>
      <point x="232.43027272727272" y="1519.251590909091"/>
      <point x="232.43027272727272" y="1283.3914545454545" type="curve" smooth="yes"/>
    </contour>
    <contour>
      <point x="15.782090909090911" y="1002.2575454545454" type="line"/>
      <point x="684.6140909090909" y="1002.2575454545454" type="line"/>
      <point x="684.6140909090909" y="1081.1172727272726" type="line"/>
      <point x="15.782090909090911" y="1081.1172727272726" type="line"/>
    </contour>
  </outline>
</glyph>
<glyph name="g" format="2">
  <advance width="1083.6251818181818"/>
  <unicode hex="0067"/>
  <anchor x="558.3070454545455" y="-440.0" name="bottom"/>
  <anchor x="559.8712272727273" y="1200.0" name="top"/>
  <outline>
    <contour>
      <point x="469.63113636363636" y="-460.0" type="curve" smooth="yes"/>
      <point x="765.0162272727273" y="-460.0"/>
      <point x="917.7032272727273" y="-330.7599090909091"/>
      <point x="917.7032272727273" y="1.7705909090909273" type="curve" smooth="yes"/>
      <point x="917.7032272727273" y="1053.720681818182" type="line"/>
      <point x="830.8541818181818" y="1080.7820909090908"/>
      <point x="723.2175" y="1097.229"/>
      <point x="622.8098181818182" y="1097.229" type="curve" smooth="yes"/>
      <point x="287.71513636363636" y="1097.1731363636363"/>
      <point x="104.9275" y="913.9944545454546"/>
      <point x="104.9275" y="518.5586363636363" type="curve" smooth="yes"/>
      <point x="104.9275" y="119.18422727272728"/>
      <point x="290.21236363636365" y="-17.106181818181817"/>
      <point x="515.1565" y="-17.106181818181817" type="curve" smooth="yes"/>
      <point x="650.1509545454545" y="-17.106181818181817"/>
      <point x="756.313" y="39.05586363636364"/>
      <point x="823.0336818181818" y="113.33518181818182" type="curve"/>
      <point x="829.7599090909091" y="113.33518181818182" type="line"/>
      <point x="829.7599090909091" y="-7.475045454545445" type="line" smooth="yes"/>
      <point x="829.7599090909091" y="-283.71"/>
      <point x="711.9944545454546" y="-379.7547727272727"/>
      <point x="468.56418181818185" y="-379.7547727272727" type="curve" smooth="yes"/>
      <point x="375.8938181818182" y="-379.7547727272727"/>
      <point x="279.05031818181817" y="-363.8106363636363"/>
      <point x="170.82131818181819" y="-327.08995454545453" type="curve"/>
      <point x="170.82131818181819" y="-409.5027727272727" type="line"/>
      <point x="259.4469090909091" y="-442.39104545454546"/>
      <point x="377.56418181818185" y="-460.0"/>
    </contour>
    <contour>
      <point x="528.4857272727273" y="64.25631818181822" type="curve" smooth="yes"/>
      <point x="340.89895454545456" y="64.25631818181822"/>
      <point x="196.7032272727273" y="166.23968181818185"/>
      <point x="196.7032272727273" y="528.0669545454546" type="curve" smooth="yes"/>
      <point x="196.7032272727273" y="873.8997727272728"/>
      <point x="343.3458636363637" y="1017.2630909090909"/>
      <point x="616.9104545454545" y="1017.2630909090909" type="curve" smooth="yes"/>
      <point x="697.1731363636363" y="1017.2630909090909"/>
      <point x="775.4358181818181" y="1005.7099999999999"/>
      <point x="829.7599090909091" y="991.2686363636363" type="curve"/>
      <point x="829.7599090909091" y="217.65886363636366" type="line"/>
      <point x="757.9385909090909" y="112.85418181818184"/>
      <point x="641.2400909090909" y="64.25631818181822"/>
    </contour>
  </outline>
</glyph>
<glyph name="h" format="2">
  <advance width="1097.7816818181818"/>
  <unicode hex="0068"/>
  <anchor x="556.1953181818182" y="0.0" name="bottom"/>
  <anchor x="556.1953181818182" y="540.5586363636363" name="center"/>
  <anchor x="165.92195454545453" y="1355.6648181818182" name="stroke"/>
  <anchor x="556.1953181818182" y="1616.0" name="top"/>
  <outline>
    <contour>
      <point x="165.92195454545453" y="0.0" type="line"/>
      <point x="253.86527272727275" y="0.0" type="line"/>
      <point x="253.86527272727275" y="843.6763181818181" type="line"/>
      <point x="344.3458636363637" y="967.2016818181818"/>
      <point x="483.2622727272727" y="1012.7492272727272"/>
      <point x="597.5752727272727" y="1012.7492272727272" type="curve" smooth="yes"/>
      <point x="753.324090909091" y="1012.7492272727272"/>
      <point x="857.4694999999999" y="944.0396363636363"/>
      <point x="857.4694999999999" y="733.6874090909091" type="curve" smooth="yes"/>
      <point x="857.4694999999999" y="0.0" type="line"/>
      <point x="945.4128181818182" y="0.0" type="line"/>
      <point x="945.4128181818182" y="734.4750454545455" type="line" smooth="yes"/>
      <point x="945.4128181818182" y="1003.1620454545455"/>
      <point x="805.9045" y="1097.229"/>
      <point x="609.5693181818182" y="1097.229" type="curve" smooth="yes"/>
      <point x="477.1838181818182" y="1097.229"/>
      <point x="353.97145454545455" y="1050.396590909091"/>
      <point x="260.59150000000005" y="955.458" type="curve"/>
      <point x="253.86527272727275" y="955.458" type="line"/>
      <point x="253.86527272727275" y="1616.0" type="line"/>
      <point x="165.92195454545453" y="1616.0" type="line"/>
    </contour>
  </outline>
</glyph>
<glyph name="k" format="2">
  <advance width="974.6529090909091"/>
  <unicode hex="006B"/>
  <anchor x="527.2678181818183" y="0.0" name="bottom"/>
  <anchor x="209.92154545454548" y="1616.0" name="top"/>
  <outline>
    <contour>
      <point x="885.2682272727272" y="0.0" type="line"/>
      <point x="991.1053636363637" y="0.0" type="line"/>
      <point x="523.9655" y="566.7428636363636" type="line"/>
      <point x="523.9655" y="539.8268636363637" type="line"/>
      <point x="958.8260454545455" y="1081.1172727272726" type="line"/>
      <point x="854.4916818181819" y="1081.1172727272726" type="line"/>
      <point x="427.4132272727273" y="552.7820909090909" type="line"/>
    </contour>
    <contour>
      <point x="236.97145454545458" y="513.1846363636364" type="line"/>
      <point x="475.9437272727273" y="513.1846363636364" type="line"/>
      <point x="475.9437272727273" y="592.3795454545455" type="line"/>
      <point x="236.97145454545458" y="592.3795454545455" type="line"/>
    </contour>
    <contour>
      <point x="165.92195454545453" y="0.0" type="line"/>
      <point x="253.86527272727275" y="0.0" type="line"/>
      <point x="253.86527272727275" y="1616.0" type="line"/>
      <point x="165.92195454545453" y="1616.0" type="line"/>
    </contour>
  </outline>
</glyph>
<glyph name="l" format="2">
  <advance width="419.7872272727273"/>
  <unicode hex="006C"/>
  <anchor x="209.86568181818183" y="0.0" name="bottom"/>
  <anchor x="372.1893636363637" y="1616.0" name="caronalt"/>
  <anchor x="419.6247727272728" y="794.0" name="periodcentered"/>
  <anchor x="209.92154545454548" y="714.0" name="slash"/>
  <anchor x="209.92154545454548" y="1616.0" name="top"/>
  <outline>
    <contour>
      <point x="165.92195454545453" y="0.0" type="line"/>
      <point x="253.86527272727275" y="0.0" type="line"/>
      <point x="253.86527272727275" y="1616.0" type="line"/>
      <point x="165.92195454545453" y="1616.0" type="line"/>
    </contour>
  </outline>
</glyph>
<glyph name="m" format="2">
  <advance width="1645.686590909091"/>
  <unicode hex="006D"/>
  <anchor x="832.7595" y="0.0" name="bottom"/>
  <anchor x="832.7595" y="1200.0" name="top"/>
  <outline>
    <contour>
      <point x="165.92195454545453" y="0.0" type="line"/>
      <point x="253.86527272727275" y="0.0" type="line"/>
      <point x="253.86527272727275" y="838.9556363636364" type="line"/>
      <point x="335.56931818181823" y="967.2016818181818"/>
      <point x="459.9326363636364" y="1014.6374999999999"/>
      <point x="559.9718636363637" y="1014.6374999999999" type="curve" smooth="yes"/>
      <point x="695.5027727272727" y="1014.6374999999999"/>
      <point x="788.9833636363636" y="944.0955"/>
      <point x="788.9833636363636" y="732.0784545454545" type="curve" smooth="yes"/>
      <point x="788.9833636363636" y="0.0" type="line"/>
      <point x="876.4239090909091" y="0.0" type="line"/>
      <point x="876.4239090909091" y="735.2012727272727" type="line" smooth="yes"/>
      <point x="876.4239090909091" y="1003.2737727272727"/>
      <point x="749.6921363636363" y="1097.229"/>
      <point x="574.9603636363637" y="1097.229" type="curve" smooth="yes"/>
      <point x="456.3458636363637" y="1097.229"/>
      <point x="343.1279545454546" y="1049.5083181818181"/>
      <point x="257.85418181818187" y="952.5697272727273" type="curve"/>
      <point x="249.29554545454548" y="952.5697272727273" type="line"/>
      <point x="242.06654545454546" y="1081.1172727272726" type="line"/>
      <point x="165.92195454545453" y="1081.1172727272726" type="line"/>
    </contour>
    <contour>
      <point x="1405.4302727272727" y="0.0" type="line"/>
      <point x="1493.3177272727273" y="0.0" type="line"/>
      <point x="1493.3177272727273" y="734.3633181818182" type="line" smooth="yes"/>
      <point x="1493.3177272727273" y="1003.1620454545455"/>
      <point x="1361.4742272727274" y="1097.229"/>
      <point x="1182.7927727272727" y="1097.229" type="curve" smooth="yes"/>
      <point x="1066.1782727272728" y="1097.229"/>
      <point x="927.0720909090909" y="1050.1172727272726"/>
      <point x="818.9659090909091" y="904.4076818181818" type="curve"/>
      <point x="847.9825454545455" y="810.6315454545454" type="line"/>
      <point x="930.7424545454546" y="967.2016818181818"/>
      <point x="1070.9885" y="1014.6374999999999"/>
      <point x="1171.3629090909092" y="1014.6374999999999" type="curve" smooth="yes"/>
      <point x="1307.782090909091" y="1014.6374999999999"/>
      <point x="1405.4302727272727" y="944.0955"/>
      <point x="1405.4302727272727" y="732.0784545454545" type="curve" smooth="yes"/>
    </contour>
  </outline>
</glyph>
<glyph name="n" format="2">
  <advance width="1097.7816818181818"/>
  <unicode hex="006E"/>
  <anchor x="12.888272727272728" y="1200.0" name="apostrophe"/>
  <anchor x="556.1953181818182" y="0.0" name="bottom"/>
  <anchor x="556.1953181818182" y="1200.0" name="top"/>
  <outline>
    <contour>
      <point x="165.92195454545453" y="0.0" type="line"/>
      <point x="253.86527272727275" y="0.0" type="line"/>
      <point x="253.86527272727275" y="844.6204545454545" type="line"/>
      <point x="346.23413636363637" y="970.9782272727273"/>
      <point x="488.81536363636366" y="1014.6374999999999"/>
      <point x="597.5752727272727" y="1014.6374999999999" type="curve" smooth="yes"/>
      <point x="756.1565" y="1014.6374999999999"/>
      <point x="857.4694999999999" y="942.2072272727272"/>
      <point x="857.4694999999999" y="731.9667272727272" type="curve" smooth="yes"/>
      <point x="857.4694999999999" y="0.0" type="line"/>
      <point x="945.4128181818182" y="0.0" type="line"/>
      <point x="945.4128181818182" y="733.5309090909091" type="line" smooth="yes"/>
      <point x="945.4128181818182" y="1002.1620454545455"/>
      <point x="805.9045" y="1097.229"/>
      <point x="607.3961818181818" y="1097.229" type="curve" smooth="yes"/>
      <point x="473.84309090909096" y="1097.229"/>
      <point x="349.8486363636364" y="1045.7317727272728"/>
      <point x="257.85418181818187" y="953.5138636363637" type="curve"/>
      <point x="249.29554545454548" y="953.5138636363637" type="line"/>
      <point x="242.06654545454546" y="1081.1172727272726" type="line"/>
      <point x="165.92195454545453" y="1081.1172727272726" type="line"/>
    </contour>
  </outline>
</glyph>
<glyph name="o" format="2">
  <advance width="1069.6196363636363"/>
  <unicode hex="006F"/>
  <anchor x="534.8098181818182" y="0.0" name="bottom"/>
  <anchor x="534.8098181818182" y="540.5586363636363" name="center"/>
  <anchor x="671.9940454545455" y="0.0" name="ogonek"/>
  <anchor x="534.8098181818182" y="1200.0" name="top"/>
  <anchor x="653.8268636363637" y="1081.1172727272726" name="topright"/>
  <outline>
    <contour>
      <point x="534.8098181818182" y="-18.223454545454548" type="curve" smooth="yes"/>
      <point x="792.7872272727273" y="-18.223454545454548"/>
      <point x="964.6921363636363" y="144.8435"/>
      <point x="964.6921363636363" y="540.4469090909091" type="curve" smooth="yes"/>
      <point x="964.6921363636363" y="939.603409090909"/>
      <point x="793.4017272727273" y="1097.229"/>
      <point x="534.8098181818182" y="1097.229" type="curve" smooth="yes"/>
      <point x="276.2179090909091" y="1097.229"/>
      <point x="104.9275" y="936.1061818181818"/>
      <point x="104.9275" y="540.3351818181818" type="curve" smooth="yes"/>
      <point x="104.9275" y="141.06695454545456"/>
      <point x="276.8324090909091" y="-18.223454545454548"/>
    </contour>
    <contour>
      <point x="534.8098181818182" y="61.74245454545458" type="curve" smooth="yes"/>
      <point x="328.9548181818182" y="61.74245454545458"/>
      <point x="196.7032272727273" y="181.88786363636365"/>
      <point x="196.7032272727273" y="543.2793181818182" type="curve" smooth="yes"/>
      <point x="196.7032272727273" y="899.0059545454545"/>
      <point x="329.06654545454546" y="1017.2630909090909"/>
      <point x="534.8098181818182" y="1017.2630909090909" type="curve" smooth="yes"/>
      <point x="740.5530909090909" y="1017.2630909090909"/>
      <point x="872.916409090909" y="899.0059545454545"/>
      <point x="872.916409090909" y="537.5027727272727" type="curve" smooth="yes"/>
      <point x="872.916409090909" y="181.88786363636365"/>
      <point x="740.6648181818182" y="61.74245454545458"/>
    </contour>
  </outline>
</glyph>
<glyph name="p" format="2">
  <advance width="1083.6251818181818"/>
  <unicode hex="0070"/>
  <outline>
    <contour>
      <point x="165.92195454545453" y="-440.0" type="line"/>
      <point x="253.86527272727275" y="-440.0" type="line"/>
      <point x="253.86527272727275" y="-1.8938181818181832" type="line"/>
      <point x="312.0776363636364" y="-10.502772727272728"/>
      <point x="384.67550000000006" y="-18.167590909090908"/>
      <point x="453.55268181818184" y="-18.167590909090908" type="curve" smooth="yes"/>
      <point x="796.6865909090909" y="-18.167590909090908"/>
      <point x="978.6976818181819" y="164.8435"/>
      <point x="978.6976818181819" y="560.6145" type="curve" smooth="yes"/>
      <point x="978.6976818181819" y="961.5530909090909"/>
      <point x="791.9659090909091" y="1097.229"/>
      <point x="561.0162272727273" y="1097.229" type="curve" smooth="yes"/>
      <point x="431.07209090909095" y="1097.229"/>
      <point x="323.7983181818182" y="1040.5083181818181"/>
      <point x="258.0776363636364" y="960.4524545454545" type="curve"/>
      <point x="250.4631363636364" y="960.4524545454545" type="line"/>
      <point x="242.45759090909092" y="1081.1172727272726" type="line"/>
      <point x="165.92195454545453" y="1081.1172727272726" type="line"/>
    </contour>
    <contour>
      <point x="456.3292272727273" y="61.85418181818184" type="curve" smooth="yes"/>
      <point x="386.6196363636364" y="61.85418181818184"/>
      <point x="308.1893636363637" y="70.57486363636366"/>
      <point x="253.86527272727275" y="84.0162272727273" type="curve"/>
      <point x="253.86527272727275" y="854.2963636363636" type="line"/>
      <point x="325.6307272727273" y="966.9893181818181"/>
      <point x="439.72027272727274" y="1015.7547727272727"/>
      <point x="550.8098181818182" y="1015.7547727272727" type="curve" smooth="yes"/>
      <point x="742.5586363636364" y="1015.7547727272727"/>
      <point x="886.9219545454546" y="913.7155454545455"/>
      <point x="886.9219545454546" y="551.2737727272727" type="curve" smooth="yes"/>
      <point x="886.9219545454546" y="205.21750000000003"/>
      <point x="740.6145" y="61.85418181818184"/>
    </contour>
  </outline>
</glyph>
<glyph name="q" format="2">
  <advance width="1083.6251818181818"/>
  <unicode hex="0071"/>
  <outline>
    <contour>
      <point x="829.7599090909091" y="-440.0" type="line"/>
      <point x="917.7032272727273" y="-440.0" type="line"/>
      <point x="917.7032272727273" y="1053.720681818182" type="line"/>
      <point x="830.8541818181818" y="1080.7820909090908"/>
      <point x="723.2175" y="1097.229"/>
      <point x="622.7539545454546" y="1097.229" type="curve" smooth="yes"/>
      <point x="287.71513636363636" y="1097.229"/>
      <point x="104.9275" y="914.4413636363637"/>
      <point x="104.9275" y="518.3351818181818" type="curve" smooth="yes"/>
      <point x="104.9275" y="118.06695454545455"/>
      <point x="289.8213181818182" y="-18.167590909090908"/>
      <point x="515.1565" y="-18.167590909090908" type="curve" smooth="yes"/>
      <point x="650.1509545454545" y="-18.167590909090908"/>
      <point x="756.313" y="37.994454545454545"/>
      <point x="823.0336818181818" y="112.27377272727273" type="curve"/>
      <point x="829.7599090909091" y="112.27377272727273" type="line"/>
    </contour>
    <contour>
      <point x="528.4857272727273" y="63.36250000000003" type="curve" smooth="yes"/>
      <point x="341.01068181818187" y="63.36250000000003"/>
      <point x="196.7032272727273" y="165.4017272727273"/>
      <point x="196.7032272727273" y="527.7317727272728" type="curve" smooth="yes"/>
      <point x="196.7032272727273" y="873.8997727272728"/>
      <point x="343.3458636363637" y="1017.2630909090909"/>
      <point x="616.8545909090909" y="1017.2630909090909" type="curve" smooth="yes"/>
      <point x="697.1731363636363" y="1017.2630909090909"/>
      <point x="775.4358181818181" y="1005.7099999999999"/>
      <point x="829.7599090909091" y="991.2686363636363" type="curve"/>
      <point x="829.7599090909091" y="216.76504545454546" type="line"/>
      <point x="757.9385909090909" y="111.96036363636367"/>
      <point x="641.2400909090909" y="63.36250000000003"/>
    </contour>
  </outline>
</glyph>
<glyph name="r" format="2">
  <advance width="683.8934090909091"/>
  <unicode hex="0072"/>
  <anchor x="209.92154545454548" y="0.0" name="bottom"/>
  <anchor x="406.2456363636364" y="1200.0" name="top"/>
  <outline>
    <contour>
      <point x="165.92195454545453" y="0.0" type="line"/>
      <point x="253.86527272727275" y="0.0" type="line"/>
      <point x="253.86527272727275" y="826.5031818181818" type="line"/>
      <point x="332.74245454545456" y="946.0899545454545"/>
      <point x="471.7816818181818" y="1002.3581818181818"/>
      <point x="584.1616363636364" y="1002.3581818181818" type="curve" smooth="yes"/>
      <point x="617.2733636363637" y="1002.3581818181818"/>
      <point x="642.5023636363636" y="1001.3023181818181"/>
      <point x="671.0051363636364" y="997.0788636363636" type="curve"/>
      <point x="671.0051363636364" y="1082.6200454545456" type="line"/>
      <point x="644.1727272727273" y="1087.5641818181819"/>
      <point x="619.5582272727273" y="1089.675909090909"/>
      <point x="586.6140909090909" y="1089.675909090909" type="curve" smooth="yes"/>
      <point x="464.6140909090909" y="1089.675909090909"/>
      <point x="337.40172727272727" y="1034.2904090909092"/>
      <point x="257.9659090909091" y="934.5641818181819" type="curve"/>
      <point x="249.40727272727275" y="934.5641818181819" type="line"/>
      <point x="241.89895454545456" y="1081.1172727272726" type="line"/>
      <point x="165.92195454545453" y="1081.1172727272726" type="line"/>
    </contour>
  </outline>
</glyph>
<glyph name="s" format="2">
  <advance width="865.7202727272727"/>
  <unicode hex="0073"/>
  <anchor x="438.7484090909091" y="0.0" name="bottom"/>
  <anchor x="438.7484090909091" y="1200.0" name="top"/>
  <outline>
    <contour>
      <point x="395.8545909090909" y="-18.223454545454548" type="curve" smooth="yes"/>
      <point x="656.2678181818183" y="-18.223454545454548"/>
      <point x="788.1782727272728" y="97.34072727272728"/>
      <point x="788.1782727272728" y="284.0780454545455" type="curve" smooth="yes"/>
      <point x="788.1782727272728" y="433.6533181818182"/>
      <point x="715.7202727272727" y="525.2622727272727"/>
      <point x="513.3906363636364" y="570.5360454545455" type="curve" smooth="yes"/>
      <point x="380.5360454545455" y="598.8712272727273" type="line" smooth="yes"/>
      <point x="238.51345454545458" y="630.4187727272728"/>
      <point x="189.58040909090911" y="698.9552272727273"/>
      <point x="189.58040909090911" y="803.0392272727273" type="curve" smooth="yes"/>
      <point x="189.58040909090911" y="924.6204545454545"/>
      <point x="274.2844545454546" y="1017.9893181818181"/>
      <point x="493.04436363636364" y="1017.9893181818181" type="curve" smooth="yes"/>
      <point x="575.5526818181818" y="1017.9893181818181"/>
      <point x="643.1782727272728" y="1009.5982727272727"/>
      <point x="731.843090909091" y="985.6541363636363" type="curve"/>
      <point x="731.843090909091" y="1066.8379545454545" type="line"/>
      <point x="655.4520454545454" y="1086.9496818181817"/>
      <point x="578.9940454545455" y="1097.229"/>
      <point x="492.31813636363637" y="1097.229" type="curve" smooth="yes"/>
      <point x="226.11172727272728" y="1097.229"/>
      <point x="100.64818181818181" y="970.1117272727273"/>
      <point x="100.64818181818181" y="799.7040454545454" type="curve" smooth="yes"/>
      <point x="100.64818181818181" y="653.3019090909091"/>
      <point x="173.04477272727271" y="558.5756818181818"/>
      <point x="367.9944545454546" y="514.1343181818181" type="curve" smooth="yes"/>
      <point x="500.8490454545455" y="485.79913636363636" type="line" smooth="yes"/>
      <point x="642.8716363636363" y="454.2515909090909"/>
      <point x="699.2460454545454" y="396.9889090909091"/>
      <point x="699.2460454545454" y="277.63113636363636" type="curve" smooth="yes"/>
      <point x="699.2460454545454" y="139.72027272727274"/>
      <point x="605.8213181818182" y="61.0162272727273"/>
      <point x="398.2400909090909" y="61.0162272727273" type="curve" smooth="yes"/>
      <point x="306.7820909090909" y="61.0162272727273"/>
      <point x="223.65372727272728" y="72.51900000000003"/>
      <point x="117.65372727272727" y="104.51900000000003" type="curve"/>
      <point x="117.65372727272727" y="23.33518181818182" type="line"/>
      <point x="205.05031818181817" y="-5.0"/>
      <point x="294.73177272727276" y="-18.223454545454548"/>
    </contour>
  </outline>
</glyph>
<glyph name="t" format="2">
  <advance width="705.843090909091"/>
  <unicode hex="0074"/>
  <anchor x="461.46354545454545" y="0.0" name="bottom"/>
  <anchor x="507.89895454545456" y="1616.0" name="caronalt"/>
  <anchor x="224.43027272727272" y="654.2460454545454" name="stroke"/>
  <anchor x="268.4298636363637" y="1482.2345454545455" name="top"/>
  <anchor x="667.3795454545455" y="1616.0" name="topright"/>
  <outline>
    <contour>
      <point x="547.083590909091" y="-18.167590909090908" type="curve" smooth="yes"/>
      <point x="597.6477727272727" y="-18.167590909090908"/>
      <point x="645.1057727272728" y="-12.776545454545454"/>
      <point x="697.5526818181818" y="-0.6648181818181809" type="curve"/>
      <point x="697.5526818181818" y="81.97145454545458" type="line"/>
      <point x="643.2789090909091" y="69.36250000000004"/>
      <point x="600.9492727272727" y="63.474227272727305"/>
      <point x="557.6755" y="63.474227272727305" type="curve" smooth="yes"/>
      <point x="397.58040909090914" y="63.474227272727305"/>
      <point x="312.3735909090909" y="134.51900000000003"/>
      <point x="312.3735909090909" y="331.4409545454546" type="curve" smooth="yes"/>
      <point x="312.3735909090909" y="1480.0" type="line"/>
      <point x="236.39659090909092" y="1480.0" type="line"/>
      <point x="224.43027272727272" y="1081.1172727272726" type="line"/>
      <point x="224.43027272727272" y="316.4243181818182" type="line" smooth="yes"/>
      <point x="224.43027272727272" y="81.12281818181819"/>
      <point x="344.7206818181818" y="-18.167590909090908"/>
    </contour>
    <contour>
      <point x="7.782090909090911" y="1002.2575454545454" type="line"/>
      <point x="676.7816818181818" y="1002.2575454545454" type="line"/>
      <point x="676.7816818181818" y="1081.1172727272726" type="line"/>
      <point x="7.782090909090911" y="1081.1172727272726" type="line"/>
    </contour>
  </outline>
</glyph>
<glyph name="u" format="2">
  <advance width="1087.8375454545455"/>
  <unicode hex="0075"/>
  <anchor x="537.6422272727273" y="0.0" name="bottom"/>
  <anchor x="921.915590909091" y="0.0" name="ogonek"/>
  <anchor x="537.6422272727273" y="1200.0" name="top"/>
  <anchor x="836.5978636363636" y="1081.1172727272726" name="topright"/>
  <outline>
    <contour>
      <point x="486.05586363636365" y="-18.055863636363636" type="curve" smooth="yes"/>
      <point x="613.3296363636364" y="-18.055863636363636"/>
      <point x="736.9330454545454" y="28.720681818181816"/>
      <point x="830.0950909090909" y="122.88272727272727" type="curve"/>
      <point x="838.542" y="122.88272727272727" type="line"/>
      <point x="845.771" y="0.0" type="line"/>
      <point x="921.915590909091" y="0.0" type="line"/>
      <point x="921.915590909091" y="1081.1172727272726" type="line"/>
      <point x="833.9722727272728" y="1081.1172727272726" type="line"/>
      <point x="833.9722727272728" y="234.55268181818184" type="line"/>
      <point x="744.4358181818181" y="111.97145454545458"/>
      <point x="605.5194090909091" y="64.5356363636364"/>
      <point x="495.2064090909091" y="64.5356363636364" type="curve" smooth="yes"/>
      <point x="344.4575909090909" y="64.5356363636364"/>
      <point x="240.31218181818184" y="135.13350000000003"/>
      <point x="240.31218181818184" y="345.374" type="curve" smooth="yes"/>
      <point x="240.31218181818184" y="1081.1172727272726" type="line"/>
      <point x="152.36886363636364" y="1081.1172727272726" type="line"/>
      <point x="152.36886363636364" y="344.58636363636367" type="line" smooth="yes"/>
      <point x="152.36886363636364" y="76.01109090909091"/>
      <point x="291.9889090909091" y="-18.055863636363636"/>
    </contour>
  </outline>
</glyph>
<glyph name="w" format="2">
  <advance width="1638.8597272727272"/>
  <unicode hex="0077"/>
  <anchor x="820.4298636363636" y="0.0" name="bottom"/>
  <anchor x="821.374" y="1200.0" name="top"/>
  <outline>
    <contour>
      <point x="395.9722727272727" y="0.0" type="line"/>
      <point x="510.530090909091" y="0.0" type="line"/>
      <point x="828.7091818181818" y="1017.3526363636363" type="line"/>
      <point x="811.5974545454545" y="1017.3526363636363" type="line"/>
      <point x="1129.3855" y="0.0" type="line"/>
      <point x="1243.9433181818183" y="0.0" type="line"/>
      <point x="1570.9825454545455" y="1081.1172727272726" type="line"/>
      <point x="1482.6089545454545" y="1081.1172727272726" type="line"/>
      <point x="1178.3795454545455" y="61.50750000000005" type="line"/>
      <point x="1194.8264545454545" y="61.50750000000005" type="line"/>
      <point x="878.2115454545456" y="1081.1172727272726" type="line"/>
      <point x="763.6537272727272" y="1081.1172727272726" type="line"/>
      <point x="447.7036363636364" y="61.50750000000005" type="line"/>
      <point x="463.64777272727275" y="61.50750000000005" type="line"/>
      <point x="159.0887272727273" y="1081.1172727272726" type="line"/>
      <point x="67.87718181818181" y="1081.1172727272726" type="line"/>
    </contour>
  </outline>
</glyph>
<glyph name="x" format="2">
  <advance width="955.6921363636363"/>
  <unicode hex="0078"/>
  <anchor x="479.2622727272727" y="0.0" name="bottom"/>
  <anchor x="479.31813636363637" y="1200.0" name="top"/>
  <outline>
    <contour>
      <point x="825.4247272727273" y="0.0" type="line"/>
      <point x="932.4853181818182" y="0.0" type="line"/>
      <point x="531.7701818181819" y="546.7262272727273" type="line"/>
      <point x="479.5415909090909" y="614.9100454545455" type="line"/>
      <point x="140.15568181818185" y="1081.1172727272726" type="line"/>
      <point x="33.0950909090909" y="1081.1172727272726" type="line"/>
      <point x="424.69849999999997" y="544.5586363636363" type="line"/>
      <point x="477.2064090909091" y="477.43068181818177" type="line"/>
    </contour>
    <contour>
      <point x="26.0950909090909" y="0.0" type="line"/>
      <point x="131.48531818181823" y="0.0" type="line"/>
      <point x="477.2064090909091" y="477.43068181818177" type="line"/>
      <point x="531.7701818181819" y="546.7262272727273" type="line"/>
      <point x="923.206" y="1081.1172727272726" type="line"/>
      <point x="819.7040454545454" y="1081.1172727272726" type="line"/>
      <point x="479.5415909090909" y="614.9100454545455" type="line"/>
      <point x="424.69849999999997" y="544.5586363636363" type="line"/>
    </contour>
  </outline>
</glyph>
<glyph name="y" format="2">
  <advance width="1008.5748636363637"/>
  <unicode hex="0079"/>
  <anchor x="742.9433181818182" y="0.0" name="bottom"/>
  <anchor x="505.7036363636364" y="1200.0" name="top"/>
  <outline>
    <contour>
      <point x="300.229" y="-440.0" type="line"/>
      <point x="391.3343636363637" y="-440.0" type="line"/>
      <point x="985.6418181818183" y="1081.1172727272726" type="line"/>
      <point x="893.4805909090909" y="1081.1172727272726" type="line"/>
      <point x="497.2064090909091" y="53.20600000000003" type="line"/>
      <point x="472.8324090909091" y="0.0" type="line"/>
    </contour>
    <contour>
      <point x="445.58122727272723" y="0.0" type="line"/>
      <point x="533.5693181818182" y="0.0" type="line"/>
      <point x="119.3791363636364" y="1081.1172727272726" type="line"/>
      <point x="22.93304545454545" y="1081.1172727272726" type="line"/>
    </contour>
  </outline>
</glyph>
<glyph name="z" format="2">
  <advance width="876.7313636363637"/>
  <unicode hex="007A"/>
  <anchor x="441.3125909090909" y="0.0" name="bottom"/>
  <anchor x="441.3125909090909" y="1200.0" name="top"/>
  <outline>
    <contour>
      <point x="61.33518181818182" y="0.0" type="line"/>
      <point x="820.29" y="0.0" type="line"/>
      <point x="820.29" y="78.8597272727273" type="line"/>
      <point x="159.8985454545455" y="78.8597272727273" type="line"/>
      <point x="159.8985454545455" y="51.23413636363639" type="line"/>
      <point x="808.4017272727273" y="1028.2686363636362" type="line"/>
      <point x="808.4017272727273" y="1081.1172727272726" type="line"/>
      <point x="73.22345454545454" y="1081.1172727272726" type="line"/>
      <point x="73.22345454545454" y="1002.2575454545454" type="line"/>
      <point x="709.8383636363636" y="1002.2575454545454" type="line"/>
      <point x="709.8383636363636" y="1029.8831363636364" type="line"/>
      <point x="61.33518181818182" y="52.84863636363639" type="line"/>
    </contour>
  </outline>
</glyph>
<glyph name="braceleft" format="2">
  <advance width="673.1505454545454"/>
  <unicode hex="007B"/>
  <outline>
    <contour>
      <point x="588.0669545454546" y="-460.0" type="curve" smooth="yes"/>
      <point x="633.9104545454545" y="-460.0"/>
      <point x="680.8601363636363" y="-455.88827272727275"/>
      <point x="712.3684545454546" y="-449.77654545454544" type="curve"/>
      <point x="712.3684545454546" y="-378.91681818181814" type="line"/>
      <point x="588.6477727272727" y="-378.91681818181814" type="line" smooth="yes"/>
      <point x="417.62518181818183" y="-378.91681818181814"/>
      <point x="333.41836363636367" y="-306.6541363636363"/>
      <point x="333.41836363636367" y="-134.79913636363636" type="curve" smooth="yes"/>
      <point x="333.41836363636367" y="391.6537272727273" type="line" smooth="yes"/>
      <point x="333.41836363636367" y="531.0055454545454"/>
      <point x="283.9548181818182" y="605.0166363636364"/>
      <point x="175.45245454545454" y="629.5641818181819" type="curve"/>
      <point x="175.45245454545454" y="615.5530909090909" type="line"/>
      <point x="283.9548181818182" y="640.1006363636363"/>
      <point x="333.41836363636367" y="714.1117272727273"/>
      <point x="333.41836363636367" y="853.4635454545455" type="curve" smooth="yes"/>
      <point x="333.41836363636367" y="1310.7991363636363" type="line" smooth="yes"/>
      <point x="333.41836363636367" y="1482.6541363636363"/>
      <point x="417.62518181818183" y="1554.9168181818181"/>
      <point x="588.6477727272727" y="1554.9168181818181" type="curve" smooth="yes"/>
      <point x="712.3684545454546" y="1554.9168181818181" type="line"/>
      <point x="712.3684545454546" y="1625.7765454545454" type="line"/>
      <point x="680.8601363636363" y="1631.8882727272728"/>
      <point x="633.9104545454545" y="1636.0"/>
      <point x="588.0669545454546" y="1636.0" type="curve" smooth="yes"/>
      <point x="361.6537272727273" y="1636.0"/>
      <point x="245.47504545454544" y="1526.8213181818182"/>
      <point x="245.47504545454544" y="1305.084" type="curve" smooth="yes"/>
      <point x="245.47504545454544" y="843.687" type="line" smooth="yes"/>
      <point x="245.47504545454544" y="715.4298636363636"/>
      <point x="184.4805909090909" y="661.9885"/>
      <point x="65.66481818181818" y="661.9885" type="curve" smooth="yes"/>
      <point x="47.70404545454545" y="661.9885" type="line"/>
      <point x="47.70404545454545" y="583.1287727272727" type="line"/>
      <point x="65.66481818181818" y="583.1287727272727" type="line" smooth="yes"/>
      <point x="184.4805909090909" y="583.1287727272727"/>
      <point x="245.47504545454544" y="529.6874090909091"/>
      <point x="245.47504545454544" y="401.4302727272727" type="curve" smooth="yes"/>
      <point x="245.47504545454544" y="-129.084" type="line" smooth="yes"/>
      <point x="245.47504545454544" y="-350.8213181818182"/>
      <point x="361.6537272727273" y="-460.0"/>
    </contour>
  </outline>
</glyph>
<glyph name="bar" format="2">
  <advance width="456.37954545454545"/>
  <unicode hex="007C"/>
  <outline>
    <contour>
      <point x="185.47504545454544" y="-440.0" type="line"/>
      <point x="270.90450000000004" y="-440.0" type="line"/>
      <point x="270.90450000000004" y="1616.0" type="line"/>
      <point x="185.47504545454544" y="1616.0" type="line"/>
    </contour>
  </outline>
</glyph>
<glyph name="braceright" format="2">
  <advance width="673.1505454545454"/>
  <unicode hex="007D"/>
  <outline>
    <contour>
      <point x="85.08359090909092" y="-460.0" type="curve" smooth="yes"/>
      <point x="311.4968181818182" y="-460.0"/>
      <point x="427.67550000000006" y="-350.8213181818182"/>
      <point x="427.67550000000006" y="-129.084" type="curve" smooth="yes"/>
      <point x="427.67550000000006" y="401.4302727272727" type="line" smooth="yes"/>
      <point x="427.67550000000006" y="529.6874090909091"/>
      <point x="488.6699545454546" y="583.1287727272727"/>
      <point x="607.4857272727273" y="583.1287727272727" type="curve" smooth="yes"/>
      <point x="625.4465" y="583.1287727272727" type="line"/>
      <point x="625.4465" y="661.9885" type="line"/>
      <point x="607.4857272727273" y="661.9885" type="line" smooth="yes"/>
      <point x="488.6699545454546" y="661.9885"/>
      <point x="427.67550000000006" y="715.4298636363636"/>
      <point x="427.67550000000006" y="843.687" type="curve" smooth="yes"/>
      <point x="427.67550000000006" y="1305.084" type="line" smooth="yes"/>
      <point x="427.67550000000006" y="1526.8213181818182"/>
      <point x="311.4968181818182" y="1636.0"/>
      <point x="85.08359090909092" y="1636.0" type="curve" smooth="yes"/>
      <point x="39.24009090909092" y="1636.0"/>
      <point x="-7.709590909090904" y="1631.8882727272728"/>
      <point x="-39.21790909090909" y="1625.7765454545454" type="curve"/>
      <point x="-39.21790909090909" y="1554.9168181818181" type="line"/>
      <point x="84.50277272727273" y="1554.9168181818181" type="line" smooth="yes"/>
      <point x="255.52536363636364" y="1554.9168181818181"/>
      <point x="339.7321818181818" y="1482.6541363636363"/>
      <point x="339.7321818181818" y="1310.7991363636363" type="curve" smooth="yes"/>
      <point x="339.7321818181818" y="853.4635454545455" type="line" smooth="yes"/>
      <point x="339.7321818181818" y="714.1117272727273"/>
      <point x="389.36331818181816" y="640.1006363636363"/>
      <point x="497.6980909090909" y="615.5530909090909" type="curve"/>
      <point x="497.6980909090909" y="629.5641818181819" type="line"/>
      <point x="389.36331818181816" y="605.0166363636364"/>
      <point x="339.7321818181818" y="531.0055454545454"/>
      <point x="339.7321818181818" y="391.6537272727273" type="curve" smooth="yes"/>
      <point x="339.7321818181818" y="-134.79913636363636" type="line" smooth="yes"/>
      <point x="339.7321818181818" y="-306.6541363636363"/>
      <point x="255.52536363636364" y="-378.91681818181814"/>
      <point x="84.50277272727273" y="-378.91681818181814" type="curve" smooth="yes"/>
      <point x="-39.21790909090909" y="-378.91681818181814" type="line"/>
      <point x="-39.21790909090909" y="-449.77654545454544" type="line"/>
      <point x="-7.709590909090904" y="-455.88827272727275"/>
      <point x="39.24009090909092" y="-460.0"/>
    </contour>
  </outline>
</glyph>
<glyph name="asciitilde" format="2">
  <advance width="1065.0166363636363"/>
  <unicode hex="007E"/>
  <outline>
    <contour>
      <point x="706.4076818181818" y="657.2963636363636" type="curve" smooth="yes"/>
      <point x="786.2511818181819" y="657.2963636363636"/>
      <point x="856.5863636363637" y="689.1846363636364"/>
      <point x="901.9829545454545" y="747.9667272727272" type="curve"/>
      <point x="901.9829545454545" y="843.374" type="line"/>
      <point x="846.4187727272728" y="771.0388181818182"/>
      <point x="781.916" y="735.2622727272727"/>
      <point x="704.7428636363636" y="735.2622727272727" type="curve" smooth="yes"/>
      <point x="599.1786818181819" y="735.2622727272727"/>
      <point x="492.3965909090909" y="851.374"/>
      <point x="358.60895454545454" y="851.374" type="curve" smooth="yes"/>
      <point x="278.76545454545453" y="851.374"/>
      <point x="208.43027272727272" y="819.4857272727273"/>
      <point x="163.0336818181818" y="760.7036363636364" type="curve"/>
      <point x="163.0336818181818" y="665.2963636363636" type="line"/>
      <point x="218.59786363636363" y="737.6315454545454"/>
      <point x="283.10063636363634" y="773.4080909090909"/>
      <point x="360.2737727272727" y="773.4080909090909" type="curve" smooth="yes"/>
      <point x="465.8379545454545" y="773.4080909090909"/>
      <point x="572.6200454545454" y="657.2963636363636"/>
    </contour>
  </outline>
</glyph>
<glyph name="exclamdown" format="2">
  <advance width="457.9548181818182"/>
  <unicode hex="00A1"/>
  <outline>
    <contour>
      <point x="199.27931818181818" y="751.5982727272727" type="line"/>
      <point x="182.36331818181816" y="184.46949999999998" type="line"/>
      <point x="182.36331818181816" y="-380.0" type="line"/>
      <point x="275.59150000000005" y="-380.0" type="line"/>
      <point x="275.59150000000005" y="184.46949999999998" type="line"/>
      <point x="258.9548181818182" y="751.5982727272727" type="line"/>
    </contour>
    <contour>
      <point x="228.9774090909091" y="1091.675909090909" type="curve" smooth="yes"/>
      <point x="185.88272727272727" y="1091.675909090909"/>
      <point x="155.46949999999998" y="1063.7095909090908"/>
      <point x="155.46949999999998" y="1019.229409090909" type="curve" smooth="yes"/>
      <point x="155.46949999999998" y="974.7492272727272"/>
      <point x="185.6592727272727" y="944.8946363636363"/>
      <point x="228.9774090909091" y="944.8946363636363" type="curve" smooth="yes"/>
      <point x="272.2955454545455" y="944.8946363636363"/>
      <point x="302.48531818181823" y="974.9726818181817"/>
      <point x="302.48531818181823" y="1019.229409090909" type="curve" smooth="yes"/>
      <point x="302.48531818181823" y="1063.4861363636364"/>
      <point x="272.07209090909095" y="1091.675909090909"/>
    </contour>
  </outline>
</glyph>
<glyph name="cent" format="2">
  <advance width="841.7816818181818"/>
  <unicode hex="00A2"/>
  <outline>
    <contour>
      <point x="545.8767727272727" y="-18.223454545454548" type="curve" smooth="yes"/>
      <point x="630.1616363636364" y="-18.223454545454548"/>
      <point x="716.1671818181818" y="-3.223454545454546"/>
      <point x="802.6644090909091" y="28.32963636363636" type="curve"/>
      <point x="802.6644090909091" y="110.96590909090912" type="line"/>
      <point x="705.1113181818182" y="76.74800000000003"/>
      <point x="626.1727272727273" y="62.97145454545458"/>
      <point x="556.2844545454545" y="62.97145454545458" type="curve" smooth="yes"/>
      <point x="322.0273181818182" y="62.97145454545458"/>
      <point x="197.31772727272732" y="188.56377272727275"/>
      <point x="197.31772727272732" y="544.3351818181818" type="curve" smooth="yes"/>
      <point x="197.31772727272732" y="893.939"/>
      <point x="326.46868181818184" y="1016.0340909090909"/>
      <point x="591.5023636363636" y="1016.0340909090909" type="curve" smooth="yes"/>
      <point x="659.4465" y="1016.0340909090909"/>
      <point x="728.9437272727273" y="1006.2575454545454"/>
      <point x="802.6644090909091" y="985.8720454545454" type="curve"/>
      <point x="802.6644090909091" y="1068.5083181818181" type="line"/>
      <point x="732.2175" y="1088.2848636363638"/>
      <point x="661.4354090909092" y="1097.229"/>
      <point x="590.8712272727273" y="1097.229" type="curve" smooth="yes"/>
      <point x="275.0614090909091" y="1097.229"/>
      <point x="104.9275" y="937.4972272727273"/>
      <point x="104.9275" y="540.3910454545454" type="curve" smooth="yes"/>
      <point x="104.9275" y="142.73177272727273"/>
      <point x="263.6145" y="-18.223454545454548"/>
    </contour>
    <contour>
      <point x="503.1509545454545" y="-240.0" type="line"/>
      <point x="583.6865909090909" y="-240.0" type="line"/>
      <point x="583.6865909090909" y="3.351818181818189" type="line"/>
      <point x="503.1509545454545" y="3.351818181818189" type="line"/>
    </contour>
    <contour>
      <point x="503.1509545454545" y="1077.7654545454545" type="line"/>
      <point x="583.6865909090909" y="1077.7654545454545" type="line"/>
      <point x="583.6865909090909" y="1321.1172727272726" type="line"/>
      <point x="503.1509545454545" y="1321.1172727272726" type="line"/>
    </contour>
  </outline>
</glyph>
<glyph name="sterling" format="2">
  <advance width="1231.6644090909092"/>
  <unicode hex="00A3"/>
  <outline>
    <contour>
      <point x="310.4247272727273" y="37.139454545454555" type="line"/>
      <point x="398.0887272727273" y="37.139454545454555" type="line"/>
      <point x="398.0887272727273" y="1061.9778181818183" type="line" smooth="yes"/>
      <point x="398.0887272727273" y="1318.5424090909091"/>
      <point x="538.5079090909092" y="1416.5257727272726"/>
      <point x="803.8878636363637" y="1416.5257727272726" type="curve" smooth="yes"/>
      <point x="907.8878636363637" y="1416.5257727272726"/>
      <point x="1010.5637727272727" y="1402.4140454545454"/>
      <point x="1114.7258181818183" y="1369.9168181818181" type="curve"/>
      <point x="1114.7258181818183" y="1453.5027727272727" type="line"/>
      <point x="1023.5023636363637" y="1483.0558636363637"/>
      <point x="909.7202727272728" y="1498.1117272727272"/>
      <point x="804.9885" y="1498.1117272727272" type="curve" smooth="yes"/>
      <point x="483.3296363636364" y="1498.1117272727272"/>
      <point x="310.4247272727273" y="1359.2626818181818"/>
      <point x="310.4247272727273" y="1060.9722727272726" type="curve" smooth="yes"/>
    </contour>
    <contour>
      <point x="79.44136363636363" y="0.0" type="line"/>
      <point x="1153.228590909091" y="0.0" type="line"/>
      <point x="1153.228590909091" y="79.53009090909094" type="line"/>
      <point x="79.44136363636363" y="79.53009090909094" type="line"/>
    </contour>
    <contour>
      <point x="79.44136363636363" y="711.1287727272727" type="line"/>
      <point x="943.0499090909091" y="711.1287727272727" type="line"/>
      <point x="943.0499090909091" y="788.8712272727273" type="line"/>
      <point x="79.44136363636363" y="788.8712272727273" type="line"/>
    </contour>
  </outline>
</glyph>
<glyph name="yen" format="2">
  <advance width="1174.7816818181818"/>
  <unicode hex="00A5"/>
  <outline>
    <contour>
      <point x="543.3074545454546" y="0.0" type="line"/>
      <point x="631.7535454545455" y="0.0" type="line"/>
      <point x="631.7535454545455" y="710.687" type="line"/>
      <point x="609.9548181818182" y="641.4417727272727" type="line"/>
      <point x="1167.4128181818182" y="1480.0" type="line"/>
      <point x="1068.3074545454544" y="1480.0" type="line"/>
      <point x="569.7428636363636" y="728.4354090909092" type="line"/>
      <point x="608.3236818181819" y="728.4354090909092" type="line"/>
      <point x="110.47977272727276" y="1480.0" type="line"/>
      <point x="6.642636363636354" y="1480.0" type="line"/>
      <point x="565.1061818181818" y="641.4417727272727" type="line"/>
      <point x="543.3074545454546" y="711.0221818181818" type="line"/>
    </contour>
    <contour>
      <point x="223.8660909090909" y="315.36331818181816" type="line"/>
      <point x="951.1949090909092" y="315.36331818181816" type="line"/>
      <point x="951.1949090909092" y="389.30704545454546" type="line"/>
      <point x="223.8660909090909" y="389.30704545454546" type="line"/>
    </contour>
    <contour>
      <point x="223.8660909090909" y="658.6929545454545" type="line"/>
      <point x="951.1949090909092" y="658.6929545454545" type="line"/>
      <point x="951.1949090909092" y="732.6366818181818" type="line"/>
      <point x="223.8660909090909" y="732.6366818181818" type="line"/>
    </contour>
  </outline>
</glyph>
<glyph name="brokenbar" format="2">
  <advance width="456.37954545454545"/>
  <unicode hex="00A6"/>
  <outline>
    <contour>
      <point x="185.47504545454544" y="836.0" type="line"/>
      <point x="270.90450000000004" y="836.0" type="line"/>
      <point x="270.90450000000004" y="1616.0" type="line"/>
      <point x="185.47504545454544" y="1616.0" type="line"/>
    </contour>
    <contour>
      <point x="185.47504545454544" y="-440.0" type="line"/>
      <point x="270.90450000000004" y="-440.0" type="line"/>
      <point x="270.90450000000004" y="340.0" type="line"/>
      <point x="185.47504545454544" y="340.0" type="line"/>
    </contour>
  </outline>
</glyph>
<glyph name="section" format="2">
  <advance width="971.843090909091"/>
  <unicode hex="00A7"/>
  <outline>
    <contour>
      <point x="425.8545909090909" y="-18.223454545454548" type="curve" smooth="yes"/>
      <point x="687.7761363636364" y="-18.223454545454548"/>
      <point x="819.1279545454546" y="97.34072727272728"/>
      <point x="819.1279545454546" y="283.63113636363636" type="curve" smooth="yes"/>
      <point x="819.1279545454546" y="430.69254545454544"/>
      <point x="746.8375454545455" y="520.3015"/>
      <point x="545.3458636363637" y="565.687" type="curve" smooth="yes"/>
      <point x="409.47463636363636" y="594.8042727272727" type="line" smooth="yes"/>
      <point x="266.1113181818182" y="626.687"/>
      <point x="213.12240909090912" y="698.0614090909091"/>
      <point x="213.12240909090912" y="803.1509545454545" type="curve" smooth="yes"/>
      <point x="213.12240909090912" y="874.9722727272728"/>
      <point x="246.06100000000004" y="937.0729090909091"/>
      <point x="314.3292272727273" y="978.4639545454545" type="curve"/>
      <point x="254.11172727272728" y="1026.8827272727274" type="line"/>
      <point x="175.21236363636362" y="973.3799545454546"/>
      <point x="130.6481818181818" y="892.9330454545454"/>
      <point x="130.6481818181818" y="799.0336818181818" type="curve" smooth="yes"/>
      <point x="130.6481818181818" y="652.4639545454545"/>
      <point x="204.27377272727273" y="557.5198181818182"/>
      <point x="396.542" y="514.1901818181818" type="curve" smooth="yes"/>
      <point x="532.3573636363636" y="485.0729090909091" type="line" smooth="yes"/>
      <point x="674.2123636363636" y="453.52536363636364"/>
      <point x="730.8102272727273" y="396.1509545454545"/>
      <point x="730.8102272727273" y="276.6814545454545" type="curve" smooth="yes"/>
      <point x="730.8102272727273" y="138.93818181818185"/>
      <point x="637.5530909090909" y="60.066545454545476"/>
      <point x="428.3518181818182" y="60.066545454545476" type="curve" smooth="yes"/>
      <point x="337.73177272727276" y="60.066545454545476"/>
      <point x="255.32963636363635" y="71.2341363636364"/>
      <point x="149.16204545454545" y="103.01068181818184" type="curve"/>
      <point x="149.16204545454545" y="22.832409090909092" type="line"/>
      <point x="236.55863636363637" y="-5.16759090909091"/>
      <point x="326.2400909090909" y="-18.223454545454548"/>
    </contour>
    <contour>
      <point x="722.3347727272727" y="453.39104545454546" type="line"/>
      <point x="797.072090909091" y="506.0614090909091"/>
      <point x="841.1949090909092" y="583.8993636363637"/>
      <point x="841.1949090909092" y="683.9104545454545" type="curve" smooth="yes"/>
      <point x="841.1949090909092" y="832.4801818181818"/>
      <point x="768.9045" y="924.3125909090909"/>
      <point x="567.915590909091" y="969.4746363636364" type="curve" smooth="yes"/>
      <point x="431.5415909090909" y="998.4801818181818" type="line" smooth="yes"/>
      <point x="289.6865909090909" y="1030.0277272727274"/>
      <point x="240.47422727272732" y="1098.6200454545456"/>
      <point x="240.47422727272732" y="1202.8716363636363" type="curve" smooth="yes"/>
      <point x="240.47422727272732" y="1324.3411363636365"/>
      <point x="325.5134545454546" y="1417.8217272727272"/>
      <point x="546.4520454545454" y="1417.8217272727272" type="curve" smooth="yes"/>
      <point x="627.7872272727273" y="1417.8217272727272"/>
      <point x="694.0162272727273" y="1409.8217272727272"/>
      <point x="782.7927727272728" y="1386.156909090909" type="curve"/>
      <point x="782.7927727272728" y="1466.3351818181818" type="line"/>
      <point x="706.4017272727273" y="1486.1117272727272"/>
      <point x="630.5023636363636" y="1496.1117272727272"/>
      <point x="544.6085454545455" y="1496.1117272727272" type="curve" smooth="yes"/>
      <point x="276.8938181818182" y="1496.1117272727272"/>
      <point x="152.1565" y="1368.9944545454546"/>
      <point x="152.1565" y="1198.7543636363637" type="curve" smooth="yes"/>
      <point x="152.1565" y="1054.251590909091"/>
      <point x="225.67036363636365" y="961.3633181818182"/>
      <point x="419.11172727272725" y="917.8660909090909" type="curve" smooth="yes"/>
      <point x="554.9270909090909" y="888.7488181818181" type="line" smooth="yes"/>
      <point x="698.2904090909091" y="856.8660909090909"/>
      <point x="758.7206818181818" y="796.7095909090909"/>
      <point x="758.7206818181818" y="676.6814545454546" type="curve" smooth="yes"/>
      <point x="758.7206818181818" y="598.1394545454546"/>
      <point x="725.5586363636364" y="539.0946818181818"/>
      <point x="659.7262272727273" y="500.31259090909094" type="curve"/>
    </contour>
  </outline>
</glyph>
<glyph name="copyright" format="2">
  <advance width="1719.1957272727273"/>
  <unicode hex="00A9"/>
  <outline>
    <contour>
      <point x="859.5978636363636" y="-22.0" type="curve" smooth="yes"/>
      <point x="1305.9330454545454" y="-22.0"/>
      <point x="1603.9330454545454" y="282.0"/>
      <point x="1603.9330454545454" y="740.0" type="curve" smooth="yes"/>
      <point x="1603.9330454545454" y="1198.0"/>
      <point x="1305.9330454545454" y="1502.0"/>
      <point x="859.5978636363636" y="1502.0" type="curve" smooth="yes"/>
      <point x="413.2626818181818" y="1502.0"/>
      <point x="115.26268181818182" y="1198.0"/>
      <point x="115.26268181818182" y="740.0" type="curve" smooth="yes"/>
      <point x="115.26268181818182" y="282.0"/>
      <point x="413.2626818181818" y="-22.0"/>
    </contour>
    <contour>
      <point x="895.6089545454546" y="324.0" type="curve" smooth="yes"/>
      <point x="973.8324090909091" y="324.0"/>
      <point x="1045.832409090909" y="336.0"/>
      <point x="1112.8268636363637" y="365.3296363636364" type="curve"/>
      <point x="1112.8268636363637" y="441.6085454545455" type="line"/>
      <point x="1031.0503181818183" y="410.39063636363636"/>
      <point x="960.7262272727273" y="400.6140909090909"/>
      <point x="902.8379545454545" y="400.6140909090909" type="curve" smooth="yes"/>
      <point x="711.5305" y="400.6140909090909"/>
      <point x="592.8823181818182" y="507.4857272727273"/>
      <point x="592.8823181818182" y="737.6648181818182" type="curve" smooth="yes"/>
      <point x="592.8823181818182" y="962.2908181818182"/>
      <point x="711.1953181818182" y="1067.385909090909"/>
      <point x="924.2793181818182" y="1067.385909090909" type="curve" smooth="yes"/>
      <point x="993.4972272727273" y="1067.385909090909"/>
      <point x="1050.9385909090909" y="1057.6093636363637"/>
      <point x="1112.8268636363637" y="1040.0562727272727" type="curve"/>
      <point x="1112.8268636363637" y="1116.3351818181818" type="line"/>
      <point x="1049.2737727272727" y="1136.0"/>
      <point x="989.1620454545455" y="1144.0"/>
      <point x="920.8268636363637" y="1144.0" type="curve" smooth="yes"/>
      <point x="655.9330454545454" y="1144.0"/>
      <point x="508.1454090909091" y="995.7765454545455"/>
      <point x="508.1454090909091" y="733.8882727272727" type="curve" smooth="yes"/>
      <point x="508.1454090909091" y="462.6703636363636"/>
      <point x="663.2626818181818" y="324.0"/>
    </contour>
    <contour>
      <point x="859.5978636363636" y="54.044363636363656" type="curve" smooth="yes"/>
      <point x="457.3965909090909" y="54.044363636363656"/>
      <point x="191.86568181818183" y="326.35736363636363"/>
      <point x="191.86568181818183" y="740.0" type="curve" smooth="yes"/>
      <point x="191.86568181818183" y="1153.6426363636363"/>
      <point x="457.3965909090909" y="1425.9556363636364"/>
      <point x="859.5978636363636" y="1425.9556363636364" type="curve" smooth="yes"/>
      <point x="1261.7991363636363" y="1425.9556363636364"/>
      <point x="1527.3300454545454" y="1153.6426363636363"/>
      <point x="1527.3300454545454" y="740.0" type="curve" smooth="yes"/>
      <point x="1527.3300454545454" y="326.35736363636363"/>
      <point x="1261.7991363636363" y="54.044363636363656"/>
    </contour>
  </outline>
</glyph>
<glyph name="ordfeminine" format="2">
  <advance width="836.6030000000001"/>
  <unicode hex="00AA"/>
  <outline>
    <contour>
      <point x="350.71513636363636" y="595.7765454545455" type="curve" smooth="yes"/>
      <point x="460.5978636363636" y="595.7765454545455"/>
      <point x="562.5364545454545" y="638.8268636363637"/>
      <point x="625.6426363636364" y="710.8268636363637" type="curve"/>
      <point x="632.2571363636364" y="710.8268636363637" type="line"/>
      <point x="639.4861363636363" y="610.0" type="line"/>
      <point x="710.5134545454546" y="610.0" type="line"/>
      <point x="710.5134545454546" y="1196.072909090909" type="line" smooth="yes"/>
      <point x="710.5134545454546" y="1420.324090909091"/>
      <point x="596.7258181818182" y="1492.5586363636364"/>
      <point x="385.6814545454545" y="1492.5586363636364" type="curve" smooth="yes"/>
      <point x="303.5083181818182" y="1492.5586363636364"/>
      <point x="208.88827272727272" y="1478.6703636363636"/>
      <point x="135.10063636363637" y="1451.7820909090908" type="curve"/>
      <point x="135.10063636363637" y="1375.7714090909092" type="line"/>
      <point x="222.48613636363635" y="1405.2127727272727"/>
      <point x="308.87718181818184" y="1418.156909090909"/>
      <point x="378.43581818181815" y="1418.156909090909" type="curve" smooth="yes"/>
      <point x="540.8771818181818" y="1418.156909090909"/>
      <point x="628.2460454545454" y="1371.0507272727273"/>
      <point x="628.2460454545454" y="1200.8660909090909" type="curve" smooth="yes"/>
      <point x="628.2460454545454" y="793.3518181818182" type="line"/>
      <point x="555.542" y="705.3236818181819"/>
      <point x="458.06695454545456" y="668.4465"/>
      <point x="365.7036363636364" y="668.4465" type="curve" smooth="yes"/>
      <point x="233.6196363636364" y="668.4465"/>
      <point x="167.91004545454547" y="728.156090909091"/>
      <point x="167.91004545454547" y="837.1339090909091" type="curve" smooth="yes"/>
      <point x="167.91004545454547" y="940.2793181818182"/>
      <point x="234.39618181818184" y="997.1565"/>
      <point x="397.25118181818186" y="1014.2626818181818" type="curve" smooth="yes"/>
      <point x="668.8213181818182" y="1042.8102272727272" type="line"/>
      <point x="663.2515909090909" y="1108.5697272727273" type="line"/>
      <point x="392.89936363636366" y="1079.9104545454545" type="line" smooth="yes"/>
      <point x="174.7095909090909" y="1057.5808181818181"/>
      <point x="82.25713636363636" y="974.9104545454545"/>
      <point x="82.25713636363636" y="828.7876363636364" type="curve" smooth="yes"/>
      <point x="82.25713636363636" y="684.2848636363636"/>
      <point x="185.36886363636364" y="595.7765454545455"/>
    </contour>
  </outline>
</glyph>
<glyph name="logicalnot" format="2">
  <advance width="1333.8882727272728"/>
  <unicode hex="00AC"/>
  <outline>
    <contour>
      <point x="1098.6596818181818" y="192.4469090909091" type="line"/>
      <point x="1181.519409090909" y="192.4469090909091" type="line"/>
      <point x="1181.519409090909" y="799.1505454545455" type="line"/>
      <point x="163.0336818181818" y="799.1505454545455" type="line"/>
      <point x="163.0336818181818" y="720.8494545454545" type="line"/>
      <point x="1098.6596818181818" y="720.8494545454545" type="line"/>
    </contour>
  </outline>
</glyph>
<glyph name="registered" format="2">
  <advance width="1531.8439090909092"/>
  <unicode hex="00AE"/>
  <outline>
    <contour>
      <point x="765.9219545454546" y="268.0" type="curve" smooth="yes"/>
      <point x="1127.9219545454546" y="268.0"/>
      <point x="1375.9219545454546" y="518.0"/>
      <point x="1375.9219545454546" y="882.0" type="curve" smooth="yes"/>
      <point x="1375.9219545454546" y="1246.0"/>
      <point x="1127.9219545454546" y="1498.0"/>
      <point x="765.9219545454546" y="1498.0" type="curve" smooth="yes"/>
      <point x="403.9219545454545" y="1498.0"/>
      <point x="155.92195454545453" y="1246.0"/>
      <point x="155.92195454545453" y="882.0" type="curve" smooth="yes"/>
      <point x="155.92195454545453" y="518.0"/>
      <point x="403.9219545454545" y="268.0"/>
    </contour>
    <contour>
      <point x="939.8997727272728" y="600.0" type="line"/>
      <point x="1021.8213181818181" y="600.0" type="line"/>
      <point x="847.1620454545455" y="857.7654545454545" type="line"/>
      <point x="781.3522272727273" y="831.7654545454545" type="line"/>
    </contour>
    <contour>
      <point x="765.9219545454546" y="339.0277272727273" type="curve" smooth="yes"/>
      <point x="441.2737727272727" y="339.0277272727273"/>
      <point x="229.5083181818182" y="553.0166363636364"/>
      <point x="229.5083181818182" y="882.0" type="curve" smooth="yes"/>
      <point x="229.5083181818182" y="1211.095090909091"/>
      <point x="441.2737727272727" y="1426.9722727272726"/>
      <point x="765.9219545454546" y="1426.9722727272726" type="curve" smooth="yes"/>
      <point x="1090.5701363636363" y="1426.9722727272726"/>
      <point x="1302.3355909090908" y="1211.095090909091"/>
      <point x="1302.3355909090908" y="882.0" type="curve" smooth="yes"/>
      <point x="1302.3355909090908" y="553.0166363636364"/>
      <point x="1090.5701363636363" y="339.0277272727273"/>
    </contour>
    <contour>
      <point x="557.1398636363637" y="600.0" type="line"/>
      <point x="628.7262272727273" y="600.0" type="line"/>
      <point x="629.0614090909091" y="823.7654545454545" type="line"/>
      <point x="752.2571363636364" y="823.7654545454545" type="line" smooth="yes"/>
      <point x="915.2626818181818" y="823.7654545454545"/>
      <point x="997.3744090909091" y="889.6537272727272"/>
      <point x="997.3744090909091" y="1006.8827272727273" type="curve" smooth="yes"/>
      <point x="997.3744090909091" y="1124.1117272727272"/>
      <point x="913.2626818181818" y="1192.0"/>
      <point x="752.2571363636364" y="1192.0" type="curve" smooth="yes"/>
      <point x="557.1398636363637" y="1192.0" type="line"/>
    </contour>
    <contour>
      <point x="629.0614090909091" y="889.675909090909" type="line"/>
      <point x="629.0614090909091" y="1126.0895454545455" type="line"/>
      <point x="765.0392272727273" y="1126.0895454545455" type="line" smooth="yes"/>
      <point x="873.4639545454545" y="1126.0895454545455"/>
      <point x="926.0115" y="1086.9833636363637"/>
      <point x="926.0115" y="1006.8827272727273" type="curve" smooth="yes"/>
      <point x="926.0115" y="926.7820909090909"/>
      <point x="875.4639545454545" y="889.675909090909"/>
      <point x="765.0392272727273" y="889.675909090909" type="curve" smooth="yes"/>
    </contour>
  </outline>
</glyph>
<glyph name="degree" format="2">
  <advance width="982.9944545454546"/>
  <unicode hex="00B0"/>
  <outline>
    <contour>
      <point x="491.4972272727273" y="825.855" type="curve" smooth="yes"/>
      <point x="687.396590909091" y="825.855"/>
      <point x="827.0725" y="967.1957272727273"/>
      <point x="827.0725" y="1161.095090909091" type="curve" smooth="yes"/>
      <point x="827.0725" y="1354.9944545454546"/>
      <point x="687.396590909091" y="1496.2234545454546"/>
      <point x="491.4972272727273" y="1496.2234545454546" type="curve" smooth="yes"/>
      <point x="295.5978636363636" y="1496.2234545454546"/>
      <point x="155.92195454545453" y="1354.9944545454546"/>
      <point x="155.92195454545453" y="1161.095090909091" type="curve" smooth="yes"/>
      <point x="155.92195454545453" y="967.1957272727273"/>
      <point x="295.5978636363636" y="825.855"/>
    </contour>
    <contour>
      <point x="491.4972272727273" y="899.5194090909091" type="curve" smooth="yes"/>
      <point x="340.63113636363636" y="899.5194090909091"/>
      <point x="233.31259090909091" y="1000.9496818181818"/>
      <point x="233.31259090909091" y="1161.095090909091" type="curve" smooth="yes"/>
      <point x="233.31259090909091" y="1321.2963636363636"/>
      <point x="340.74286363636367" y="1422.5590454545454"/>
      <point x="491.4972272727273" y="1422.5590454545454" type="curve" smooth="yes"/>
      <point x="642.2515909090909" y="1422.5590454545454"/>
      <point x="749.6818636363636" y="1321.2963636363636"/>
      <point x="749.6818636363636" y="1161.095090909091" type="curve" smooth="yes"/>
      <point x="749.6818636363636" y="1000.9496818181818"/>
      <point x="642.3633181818182" y="899.5194090909091"/>
    </contour>
  </outline>
</glyph>
<glyph name="plusminus" format="2">
  <advance width="1065.0166363636363"/>
  <unicode hex="00B1"/>
  <outline>
    <contour>
      <point x="491.0784545454545" y="320.5808181818182" type="line"/>
      <point x="573.9381818181819" y="320.5808181818182" type="line"/>
      <point x="573.9381818181819" y="666.4469090909091" type="line"/>
      <point x="901.9829545454545" y="666.4469090909091" type="line"/>
      <point x="901.9829545454545" y="744.748" type="line"/>
      <point x="573.9381818181819" y="744.748" type="line"/>
      <point x="573.9381818181819" y="1090.614090909091" type="line"/>
      <point x="491.0784545454545" y="1090.614090909091" type="line"/>
      <point x="491.0784545454545" y="744.748" type="line"/>
      <point x="163.0336818181818" y="744.748" type="line"/>
      <point x="163.0336818181818" y="666.4469090909091" type="line"/>
      <point x="491.0784545454545" y="666.4469090909091" type="line"/>
    </contour>
    <contour>
      <point x="163.0336818181818" y="0.05586363636363648" type="line"/>
      <point x="901.9829545454545" y="0.05586363636363648" type="line"/>
      <point x="901.9829545454545" y="78.35695454545457" type="line"/>
      <point x="163.0336818181818" y="78.35695454545457" type="line"/>
    </contour>
  </outline>
</glyph>
<glyph name="paragraph" format="2">
  <advance width="1194.5582272727272"/>
  <unicode hex="00B6"/>
  <outline>
    <contour>
      <point x="717.9445454545454" y="0.0" type="line"/>
      <point x="798.5138636363637" y="0.0" type="line"/>
      <point x="798.5138636363637" y="1480.0" type="line"/>
      <point x="719.0669545454546" y="1488.279318181818"/>
      <point x="627.396590909091" y="1494.3351818181818"/>
      <point x="531.2848636363636" y="1494.3351818181818" type="curve" smooth="yes"/>
      <point x="247.82131818181819" y="1494.3351818181818"/>
      <point x="96.93304545454545" y="1342.2737727272727"/>
      <point x="96.93304545454545" y="1003.5364545454545" type="curve" smooth="yes"/>
      <point x="96.93304545454545" y="684.7432727272727"/>
      <point x="238.26822727272727" y="510.9053181818182"/>
      <point x="563.2515909090909" y="510.9053181818182" type="curve" smooth="yes"/>
      <point x="620.2963636363636" y="510.9053181818182"/>
      <point x="665.7321818181817" y="513.7935909090909"/>
      <point x="717.9445454545454" y="520.4025454545455" type="curve"/>
    </contour>
    <contour>
      <point x="928.5138636363637" y="0.0" type="line"/>
      <point x="1009.0831818181819" y="0.0" type="line"/>
      <point x="1009.0831818181819" y="1480.0" type="line"/>
      <point x="928.5138636363637" y="1480.0" type="line"/>
    </contour>
  </outline>
</glyph>
<glyph name="ordmasculine" format="2">
  <advance width="912.3795454545455"/>
  <unicode hex="00BA"/>
  <outline>
    <contour>
      <point x="456.1897727272727" y="595.7765454545455" type="curve" smooth="yes"/>
      <point x="675.3347727272727" y="595.7765454545455"/>
      <point x="824.0665454545455" y="730.2904090909091"/>
      <point x="824.0665454545455" y="1046.0558636363637" type="curve" smooth="yes"/>
      <point x="824.0665454545455" y="1361.8213181818182"/>
      <point x="675.3347727272727" y="1492.5586363636364"/>
      <point x="456.1897727272727" y="1492.5586363636364" type="curve" smooth="yes"/>
      <point x="237.04477272727271" y="1492.5586363636364"/>
      <point x="88.31299999999999" y="1362.1006363636363"/>
      <point x="88.31299999999999" y="1046.0558636363637" type="curve" smooth="yes"/>
      <point x="88.31299999999999" y="730.011090909091"/>
      <point x="237.04477272727271" y="595.7765454545455"/>
    </contour>
    <contour>
      <point x="456.1897727272727" y="671.1224090909092" type="curve" smooth="yes"/>
      <point x="285.4465" y="671.1224090909092"/>
      <point x="174.4128181818182" y="766.6588636363637"/>
      <point x="174.4128181818182" y="1046.0558636363637" type="curve" smooth="yes"/>
      <point x="174.4128181818182" y="1325.5087272727274"/>
      <point x="285.4465" y="1417.2127727272727"/>
      <point x="456.1897727272727" y="1417.2127727272727" type="curve" smooth="yes"/>
      <point x="627.0447727272727" y="1417.2127727272727"/>
      <point x="737.9667272727272" y="1325.5087272727274"/>
      <point x="737.9667272727272" y="1046.0558636363637" type="curve" smooth="yes"/>
      <point x="737.9667272727272" y="766.6588636363637"/>
      <point x="627.0447727272727" y="671.1224090909092"/>
    </contour>
  </outline>
</glyph>
<glyph name="questiondown" format="2">
  <advance width="864.0051363636364"/>
  <unicode hex="00BF"/>
  <outline>
    <contour>
      <point x="505.1224090909091" y="768.156909090909" type="line"/>
      <point x="445.4469090909091" y="768.156909090909" type="line"/>
      <point x="434.3855" y="396.6759090909091" type="line"/>
      <point x="156.2904090909091" y="284.80427272727275"/>
      <point x="62.938590909090905" y="159.3015"/>
      <point x="62.938590909090905" y="-43.4805909090909" type="curve" smooth="yes"/>
      <point x="62.938590909090905" y="-266.1061818181818"/>
      <point x="218.17313636363636" y="-400.0"/>
      <point x="498.04436363636364" y="-400.0" type="curve" smooth="yes"/>
      <point x="612.0499090909091" y="-400.0"/>
      <point x="728.6755" y="-380.77654545454544"/>
      <point x="821.0106818181819" y="-345.94413636363635" type="curve"/>
      <point x="821.0106818181819" y="-263.4754545454545" type="line"/>
      <point x="715.457590909091" y="-302.19613636363636"/>
      <point x="611.0051363636364" y="-319.41959090909086"/>
      <point x="501.89340909090913" y="-319.41959090909086" type="curve" smooth="yes"/>
      <point x="273.63627272727274" y="-319.41959090909086"/>
      <point x="152.09981818181822" y="-218.77140909090906"/>
      <point x="152.09981818181822" y="-41.35777272727272" type="curve" smooth="yes"/>
      <point x="152.09981818181822" y="135.77654545454544"/>
      <point x="243.59150000000005" y="245.81577272727273"/>
      <point x="520.530090909091" y="343.1287727272727" type="curve"/>
    </contour>
    <contour>
      <point x="475.2567272727273" y="1091.675909090909" type="curve" smooth="yes"/>
      <point x="430.2737727272727" y="1091.675909090909"/>
      <point x="401.7488181818182" y="1061.8213181818182"/>
      <point x="401.7488181818182" y="1019.9556363636364" type="curve" smooth="yes"/>
      <point x="401.7488181818182" y="976.2016818181818"/>
      <point x="431.9385909090909" y="946.3470909090909"/>
      <point x="475.2567272727273" y="946.3470909090909" type="curve" smooth="yes"/>
      <point x="518.5748636363637" y="946.3470909090909"/>
      <point x="548.7646363636364" y="975.9782272727273"/>
      <point x="548.7646363636364" y="1019.9556363636364" type="curve" smooth="yes"/>
      <point x="548.7646363636364" y="1062.0447727272726"/>
      <point x="518.3514090909091" y="1091.675909090909"/>
    </contour>
  </outline>
</glyph>
<glyph name="AE" format="2">
  <advance width="1774.9433181818183"/>
  <unicode hex="00C6"/>
  <anchor x="959.0443636363636" y="0.0" name="bottom"/>
  <anchor x="873.1279545454546" y="1520.0" name="top"/>
  <outline>
    <contour>
      <point x="35.156499999999994" y="0.0" type="line"/>
      <point x="127.70877272727276" y="0.0" type="line"/>
      <point x="659.8601363636363" y="1398.5816363636363" type="line"/>
      <point x="869.7369090909091" y="1398.5816363636363" type="line"/>
      <point x="871.6251818181819" y="1480.0" type="line"/>
      <point x="601.7825" y="1480.0" type="line"/>
    </contour>
    <contour>
      <point x="294.63668181818184" y="517.3859090909091" type="line"/>
      <point x="927.770590909091" y="517.3859090909091" type="line"/>
      <point x="927.770590909091" y="598.8042727272727" type="line"/>
      <point x="318.603" y="598.8042727272727" type="line"/>
    </contour>
    <contour>
      <point x="922.748409090909" y="0.0" type="line"/>
      <point x="1703.8874545454546" y="0.0" type="line"/>
      <point x="1703.8874545454546" y="81.41836363636367" type="line"/>
      <point x="1006.4627272727273" y="81.41836363636367" type="line"/>
      <point x="919.2448181818182" y="1398.5816363636363" type="line"/>
      <point x="1693.8874545454546" y="1398.5816363636363" type="line"/>
      <point x="1693.8874545454546" y="1480.0" type="line"/>
      <point x="827.4076818181818" y="1480.0" type="line"/>
    </contour>
    <contour>
      <point x="934.3514090909091" y="719.9556363636364" type="line"/>
      <point x="1598.3288181818182" y="719.9556363636364" type="line"/>
      <point x="1598.3288181818182" y="801.374" type="line"/>
      <point x="934.3514090909091" y="801.374" type="line"/>
    </contour>
  </outline>
</glyph>
<glyph name="multiply" format="2">
  <advance width="981.1394545454546"/>
  <unicode hex="00D7"/>
  <outline>
    <contour>
      <point x="186.2567272727273" y="401.51981818181815" type="line"/>
      <point x="490.5697272727273" y="705.8328181818182" type="line"/>
      <point x="794.8827272727273" y="401.51981818181815" type="line"/>
      <point x="849.0499090909091" y="455.687" type="line"/>
      <point x="544.7369090909091" y="760.0" type="line"/>
      <point x="849.0499090909091" y="1064.313" type="line"/>
      <point x="794.8827272727273" y="1118.4801818181818" type="line"/>
      <point x="490.5697272727273" y="814.1671818181818" type="line"/>
      <point x="186.2567272727273" y="1118.4801818181818" type="line"/>
      <point x="132.08954545454546" y="1064.313" type="line"/>
      <point x="436.4025454545454" y="760.0" type="line"/>
      <point x="132.08954545454546" y="455.687" type="line"/>
    </contour>
  </outline>
</glyph>
<glyph name="Thorn" format="2">
  <advance width="1204.5582272727272"/>
  <unicode hex="00DE"/>
  <outline>
    <contour>
      <point x="185.47504545454544" y="0.0" type="line"/>
      <point x="273.9211363636364" y="0.0" type="line"/>
      <point x="273.9211363636364" y="278.8102272727273" type="line"/>
      <point x="350.519" y="271.25713636363633"/>
      <point x="414.84309090909096" y="268.313"/>
      <point x="491.72027272727274" y="268.313" type="curve" smooth="yes"/>
      <point x="913.832" y="268.313"/>
      <point x="1097.6251818181818" y="442.03922727272726"/>
      <point x="1097.6251818181818" y="760.9441363636364" type="curve" smooth="yes"/>
      <point x="1097.6251818181818" y="1099.6814545454545"/>
      <point x="902.3906363636364" y="1251.7428636363636"/>
      <point x="534.4690909090909" y="1251.7428636363636" type="curve" smooth="yes"/>
      <point x="427.6085454545455" y="1251.7428636363636"/>
      <point x="341.1279545454546" y="1242.1897727272728"/>
      <point x="273.9211363636364" y="1230.8601363636365" type="curve"/>
      <point x="273.9211363636364" y="1480.9441363636363" type="line"/>
      <point x="185.47504545454544" y="1480.9441363636363" type="line"/>
    </contour>
    <contour>
      <point x="494.55268181818184" y="348.50236363636367" type="curve" smooth="yes"/>
      <point x="413.73136363636365" y="348.50236363636367"/>
      <point x="344.9659090909091" y="352.39063636363636"/>
      <point x="273.9211363636364" y="362.05545454545455" type="curve"/>
      <point x="273.9211363636364" y="1150.3355909090908" type="line"/>
      <point x="354.07209090909095" y="1163.8886818181818"/>
      <point x="437.7761363636364" y="1171.5535"/>
      <point x="536.4243181818182" y="1171.5535" type="curve" smooth="yes"/>
      <point x="851.8213181818181" y="1171.5535"/>
      <point x="1006.2405" y="1046.7935909090909"/>
      <point x="1006.2405" y="758.0" type="curve" smooth="yes"/>
      <point x="1006.2405" y="484.03327272727273"/>
      <point x="855.5978636363636" y="348.50236363636367"/>
    </contour>
  </outline>
</glyph>
<glyph name="germandbls" format="2">
  <advance width="1310.2337272727273"/>
  <unicode hex="00DF"/>
  <outline>
    <contour>
      <point x="840.748" y="-18.223454545454548" type="curve" smooth="yes"/>
      <point x="1100.7812727272728" y="-18.223454545454548"/>
      <point x="1232.6917272727273" y="97.34072727272728"/>
      <point x="1232.6917272727273" y="284.0780454545455" type="curve" smooth="yes"/>
      <point x="1232.6917272727273" y="433.6533181818182"/>
      <point x="1162.122" y="524.3181363636364"/>
      <point x="957.904090909091" y="570.5360454545455" type="curve" smooth="yes"/>
      <point x="825.0495000000001" y="598.8712272727273" type="line" smooth="yes"/>
      <point x="684.9151818181818" y="630.4187727272728"/>
      <point x="634.0938636363637" y="698.9552272727273"/>
      <point x="634.0938636363637" y="803.0392272727273" type="curve" smooth="yes"/>
      <point x="634.0938636363637" y="924.6204545454545"/>
      <point x="718.7979090909091" y="1017.9893181818181"/>
      <point x="938.8426818181819" y="1017.9893181818181" type="curve" smooth="yes"/>
      <point x="1006.2281818181818" y="1017.9893181818181"/>
      <point x="1046.122" y="1011.2686363636363"/>
      <point x="1084.6806363636365" y="1003.4362272727273" type="curve"/>
      <point x="1097.2392727272727" y="1051.6707727272726"/>
      <point x="1109.4627272727273" y="1134.5031818181817"/>
      <point x="1109.4627272727273" y="1201.1232272727273" type="curve" smooth="yes"/>
      <point x="1109.4627272727273" y="1510.1509545454546"/>
      <point x="927.6081363636364" y="1636.0"/>
      <point x="686.6251818181819" y="1636.0" type="curve" smooth="yes"/>
      <point x="401.9049090909091" y="1636.0"/>
      <point x="232.43027272727272" y="1479.6929545454545"/>
      <point x="232.43027272727272" y="1143.0618181818181" type="curve" smooth="yes"/>
      <point x="232.43027272727272" y="0.0" type="line"/>
      <point x="320.3735909090909" y="0.0" type="line"/>
      <point x="320.3735909090909" y="1137.7880454545455" type="line" smooth="yes"/>
      <point x="320.3735909090909" y="1442.5982727272726"/>
      <point x="457.1390454545455" y="1557.71"/>
      <point x="688.5245454545454" y="1557.71" type="curve" smooth="yes"/>
      <point x="883.7927727272728" y="1557.71"/>
      <point x="1032.5023636363637" y="1467.7714090909092"/>
      <point x="1031.5582272727272" y="1200.301909090909" type="curve" smooth="yes"/>
      <point x="1031.5582272727272" y="1153.905318181818"/>
      <point x="1025.278909090909" y="1100.2908181818182"/>
      <point x="1014.832" y="1054.229409090909" type="curve"/>
      <point x="1063.060590909091" y="1084.8938181818182" type="line"/>
      <point x="1019.2281818181818" y="1091.7262272727273"/>
      <point x="974.3791363636365" y="1094.6703636363636"/>
      <point x="935.3232727272728" y="1094.6703636363636" type="curve" smooth="yes"/>
      <point x="670.6810454545455" y="1094.6703636363636"/>
      <point x="545.1616363636364" y="969.1675909090909"/>
      <point x="545.1616363636364" y="797.8157727272727" type="curve" smooth="yes"/>
      <point x="545.1616363636364" y="653.3019090909091"/>
      <point x="617.5582272727273" y="557.6315454545454"/>
      <point x="812.5079090909092" y="514.1343181818181" type="curve" smooth="yes"/>
      <point x="945.3625000000001" y="485.79913636363636" type="line" smooth="yes"/>
      <point x="1087.3850909090909" y="454.2515909090909"/>
      <point x="1143.7595000000001" y="396.9889090909091"/>
      <point x="1143.7595000000001" y="277.63113636363636" type="curve" smooth="yes"/>
      <point x="1143.7595000000001" y="139.72027272727274"/>
      <point x="1050.3347727272728" y="61.0162272727273"/>
      <point x="841.3569545454545" y="61.0162272727273" type="curve" smooth="yes"/>
      <point x="751.0720909090909" y="61.0162272727273"/>
      <point x="667.6085454545455" y="71.51900000000003"/>
      <point x="562.1671818181818" y="103.07209090909095" type="curve"/>
      <point x="562.1671818181818" y="21.888272727272728" type="line"/>
      <point x="649.5637727272727" y="-6.111727272727273"/>
      <point x="739.4128181818182" y="-18.223454545454548"/>
    </contour>
    <contour>
      <point x="15.782090909090911" y="1000.0340909090909" type="line"/>
      <point x="287.1842272727273" y="1000.0340909090909" type="line"/>
      <point x="287.1842272727273" y="1081.1172727272726" type="line"/>
      <point x="15.782090909090911" y="1081.1172727272726" type="line"/>
    </contour>
  </outline>
</glyph>
<glyph name="ae" format="2">
  <advance width="1627.1002272727274"/>
  <unicode hex="00E6"/>
  <anchor x="794.4746363636364" y="0.0" name="bottom"/>
  <anchor x="794.4746363636364" y="1200.0" name="top"/>
  <outline>
    <contour>
      <point x="1216.8656818181819" y="-18.223454545454548" type="curve" smooth="yes"/>
      <point x="1303.094681818182" y="-18.223454545454548"/>
      <point x="1390.3236818181817" y="-4.5027727272727285"/>
      <point x="1487.9437272727273" y="27.994454545454545" type="curve"/>
      <point x="1487.9437272727273" y="109.5693181818182" type="line"/>
      <point x="1387.4465" y="77.4631363636364"/>
      <point x="1302.4968181818183" y="61.68659090909094"/>
      <point x="1223.9940454545456" y="61.68659090909094" type="curve" smooth="yes"/>
      <point x="975.3292272727273" y="61.68659090909094"/>
      <point x="837.6362727272727" y="186.93818181818185"/>
      <point x="837.6362727272727" y="531.5923181818182" type="curve" smooth="yes"/>
      <point x="837.6362727272727" y="555.5305" type="line" smooth="yes"/>
      <point x="837.6362727272727" y="899.5812272727272"/>
      <point x="958.7202727272728" y="1021.3355909090909"/>
      <point x="1147.5752727272727" y="1021.3355909090909" type="curve" smooth="yes"/>
      <point x="1336.374409090909" y="1021.3355909090909"/>
      <point x="1449.8494545454546" y="901.4136363636363"/>
      <point x="1449.8494545454546" y="549.8098181818182" type="curve"/>
      <point x="1478.7488181818183" y="580.9718636363637" type="line"/>
      <point x="808.3458636363637" y="580.9718636363637" type="line"/>
      <point x="808.3458636363637" y="505.5867727272727" type="line"/>
      <point x="1538.7816818181818" y="505.5867727272727" type="line"/>
      <point x="1538.7816818181818" y="541.7206818181818" type="line" smooth="yes"/>
      <point x="1538.7816818181818" y="934.4358181818181"/>
      <point x="1390.8823181818182" y="1098.1731363636363"/>
      <point x="1148.9718636363637" y="1098.1731363636363" type="curve" smooth="yes"/>
      <point x="909.7262272727273" y="1098.1731363636363"/>
      <point x="759.9385909090909" y="935.7095909090909"/>
      <point x="759.9385909090909" y="552.675909090909" type="curve"/>
      <point x="750.5309090909091" y="542.5027727272727" type="line"/>
      <point x="750.5309090909091" y="141.67036363636365"/>
      <point x="916.8157727272727" y="-18.223454545454548"/>
    </contour>
    <contour>
      <point x="425.78763636363635" y="-16.33518181818182" type="curve" smooth="yes"/>
      <point x="567.0110909090909" y="-16.33518181818182"/>
      <point x="708.7317727272728" y="34.3855"/>
      <point x="834.5586363636364" y="214.14540909090908" type="curve"/>
      <point x="791.4247272727273" y="283.0166363636364" type="line"/>
      <point x="694.7151363636364" y="115.83200000000002"/>
      <point x="559.0221818181818" y="62.122409090909116"/>
      <point x="434.8209090909091" y="62.122409090909116" type="curve" smooth="yes"/>
      <point x="279.8486363636364" y="62.122409090909116"/>
      <point x="197.53009090909094" y="136.44095454545456"/>
      <point x="197.53009090909094" y="276.1897727272727" type="curve" smooth="yes"/>
      <point x="197.53009090909094" y="408.6648181818182"/>
      <point x="275.0162272727273" y="506.08954545454543"/>
      <point x="500.0835909090909" y="506.08954545454543" type="curve" smooth="yes"/>
      <point x="782.8213181818182" y="506.08954545454543" type="line"/>
      <point x="782.8213181818182" y="580.9718636363637" type="line"/>
      <point x="502.23454545454547" y="580.9718636363637" type="line" smooth="yes"/>
      <point x="213.71513636363636" y="580.9718636363637"/>
      <point x="104.42472727272727" y="450.4132272727273"/>
      <point x="104.42472727272727" y="268.62559090909093" type="curve" smooth="yes"/>
      <point x="104.42472727272727" y="86.62004545454546"/>
      <point x="230.9275" y="-16.33518181818182"/>
    </contour>
    <contour>
      <point x="750.5309090909091" y="542.5027727272727" type="line"/>
      <point x="828.2844545454545" y="523.6200454545454" type="line"/>
      <point x="828.2844545454545" y="741.9053181818182" type="line" smooth="yes"/>
      <point x="828.2844545454545" y="1009.7654545454545"/>
      <point x="696.3347727272727" y="1097.229"/>
      <point x="459.6814545454545" y="1097.229" type="curve" smooth="yes"/>
      <point x="363.78763636363635" y="1097.229"/>
      <point x="250.28486363636364" y="1080.4524545454547"/>
      <point x="164.82686363636364" y="1048.4524545454547" type="curve"/>
      <point x="164.82686363636364" y="966.7658636363636" type="line"/>
      <point x="268.37995454545455" y="1003.2072272727272"/>
      <point x="374.05031818181817" y="1017.2072272727272"/>
      <point x="456.1061818181818" y="1017.2072272727272" type="curve" smooth="yes"/>
      <point x="645.2123636363636" y="1017.2072272727272"/>
      <point x="750.5309090909091" y="960.0451818181818"/>
      <point x="750.5309090909091" y="742.6874090909091" type="curve" smooth="yes"/>
    </contour>
  </outline>
</glyph>
<glyph name="eth" format="2">
  <advance width="1069.6196363636363"/>
  <unicode hex="00F0"/>
  <outline>
    <contour>
      <point x="536.698090909091" y="-18.33518181818182" type="curve" smooth="yes"/>
      <point x="793.29" y="-18.33518181818182"/>
      <point x="962.8597272727274" y="158.89381818181818"/>
      <point x="962.9714545454545" y="572.8490454545455" type="curve" smooth="yes"/>
      <point x="963.0831818181819" y="978.5586363636363"/>
      <point x="737.0831818181819" y="1408.9385909090909"/>
      <point x="453.41281818181824" y="1616.0" type="curve"/>
      <point x="336.01149999999996" y="1616.0" type="line"/>
      <point x="605.229409090909" y="1414.0614090909091"/>
      <point x="744.2571363636364" y="1177.446909090909"/>
      <point x="818.2012727272727" y="936.8324090909091" type="curve"/>
      <point x="866.0614090909091" y="897.7428636363636" type="line"/>
      <point x="784.8993636363637" y="1051.6145"/>
      <point x="665.2904090909091" y="1096.6703636363636"/>
      <point x="532.5194090909091" y="1096.6703636363636" type="curve" smooth="yes"/>
      <point x="276.6648181818182" y="1096.6703636363636"/>
      <point x="104.9275" y="936.2179090909091"/>
      <point x="104.9275" y="540.3351818181818" type="curve" smooth="yes"/>
      <point x="104.9275" y="141.1228181818182"/>
      <point x="276.6648181818182" y="-18.33518181818182"/>
    </contour>
    <contour>
      <point x="536.698090909091" y="61.6307272727273" type="curve" smooth="yes"/>
      <point x="328.84309090909096" y="61.6307272727273"/>
      <point x="196.7032272727273" y="181.88786363636365"/>
      <point x="196.7032272727273" y="543.1117272727273" type="curve" smooth="yes"/>
      <point x="196.7032272727273" y="898.7266363636363"/>
      <point x="328.9548181818182" y="1017.2072272727272"/>
      <point x="534.8098181818182" y="1017.2072272727272" type="curve" smooth="yes"/>
      <point x="740.6648181818182" y="1017.2072272727272"/>
      <point x="872.916409090909" y="898.7266363636363"/>
      <point x="872.916409090909" y="537.3351818181818" type="curve" smooth="yes"/>
      <point x="872.916409090909" y="196.04990909090913"/>
      <point x="738.8882727272727" y="61.6307272727273"/>
    </contour>
    <contour>
      <point x="211.82131818181819" y="1242.8046818181817" type="line"/>
      <point x="941.1893636363636" y="1361.771" type="line"/>
      <point x="930.1782727272728" y="1428.9885" type="line"/>
      <point x="200.81022727272727" y="1310.022181818182" type="line"/>
    </contour>
  </outline>
</glyph>
<glyph name="divide" format="2">
  <advance width="1065.0166363636363"/>
  <unicode hex="00F7"/>
  <outline>
    <contour>
      <point x="163.0336818181818" y="720.8494545454545" type="line"/>
      <point x="901.9829545454545" y="720.8494545454545" type="line"/>
      <point x="901.9829545454545" y="799.1505454545455" type="line"/>
      <point x="163.0336818181818" y="799.1505454545455" type="line"/>
    </contour>
    <contour>
      <point x="532.5083181818181" y="353.02854545454545" type="curve" smooth="yes"/>
      <point x="574.7091818181818" y="353.02854545454545"/>
      <point x="604.5637727272727" y="380.6596818181818"/>
      <point x="604.5637727272727" y="424.0784545454545" type="curve" smooth="yes"/>
      <point x="604.5637727272727" y="467.4972272727273"/>
      <point x="574.9326363636363" y="497.0166363636364"/>
      <point x="532.5083181818181" y="497.0166363636364" type="curve" smooth="yes"/>
      <point x="490.084" y="497.0166363636364"/>
      <point x="460.45286363636365" y="467.72068181818184"/>
      <point x="460.45286363636365" y="424.0784545454545" type="curve" smooth="yes"/>
      <point x="460.45286363636365" y="380.43622727272725"/>
      <point x="490.30745454545456" y="353.02854545454545"/>
    </contour>
    <contour>
      <point x="532.5083181818181" y="1022.9833636363636" type="curve" smooth="yes"/>
      <point x="574.7091818181818" y="1022.9833636363636"/>
      <point x="604.5637727272727" y="1050.6145"/>
      <point x="604.5637727272727" y="1094.0332727272728" type="curve" smooth="yes"/>
      <point x="604.5637727272727" y="1137.4520454545454"/>
      <point x="574.9326363636363" y="1166.9714545454547"/>
      <point x="532.5083181818181" y="1166.9714545454547" type="curve" smooth="yes"/>
      <point x="490.084" y="1166.9714545454547"/>
      <point x="460.45286363636365" y="1137.6755"/>
      <point x="460.45286363636365" y="1094.0332727272728" type="curve" smooth="yes"/>
      <point x="460.45286363636365" y="1050.3910454545455"/>
      <point x="490.30745454545456" y="1022.9833636363636"/>
    </contour>
  </outline>
</glyph>
<glyph name="thorn" format="2">
  <advance width="1083.6251818181818"/>
  <unicode hex="00FE"/>
  <outline>
    <contour>
      <point x="165.92195454545453" y="-440.0" type="line"/>
      <point x="253.86527272727275" y="-440.0" type="line"/>
      <point x="253.86527272727275" y="-1.8938181818181832" type="line"/>
      <point x="312.0776363636364" y="-10.502772727272728"/>
      <point x="384.67550000000006" y="-18.167590909090908"/>
      <point x="453.55268181818184" y="-18.167590909090908" type="curve" smooth="yes"/>
      <point x="796.6865909090909" y="-18.167590909090908"/>
      <point x="978.6976818181819" y="164.8435"/>
      <point x="978.6976818181819" y="560.6145" type="curve" smooth="yes"/>
      <point x="978.6976818181819" y="960.9944545454546"/>
      <point x="793.8038636363636" y="1097.229"/>
      <point x="569.4128181818182" y="1097.229" type="curve" smooth="yes"/>
      <point x="433.4742272727273" y="1097.229"/>
      <point x="328.2563181818182" y="1042.0110909090909"/>
      <point x="260.59150000000005" y="964.8993636363637" type="curve"/>
      <point x="253.86527272727275" y="964.8993636363637" type="line"/>
      <point x="253.86527272727275" y="1616.0" type="line"/>
      <point x="165.92195454545453" y="1616.0" type="line"/>
    </contour>
    <contour>
      <point x="456.3292272727273" y="61.85418181818184" type="curve" smooth="yes"/>
      <point x="386.6196363636364" y="61.85418181818184"/>
      <point x="308.1893636363637" y="70.57486363636366"/>
      <point x="253.86527272727275" y="84.0162272727273" type="curve"/>
      <point x="253.86527272727275" y="857.2963636363636" type="line"/>
      <point x="325.57486363636366" y="967.0451818181818"/>
      <point x="442.38509090909093" y="1015.6989090909091"/>
      <point x="555.1953181818182" y="1015.6989090909091" type="curve" smooth="yes"/>
      <point x="742.5586363636364" y="1015.6989090909091"/>
      <point x="886.9219545454546" y="913.6596818181818"/>
      <point x="886.9219545454546" y="551.2737727272727" type="curve" smooth="yes"/>
      <point x="886.9219545454546" y="205.21750000000003"/>
      <point x="740.6145" y="61.85418181818184"/>
    </contour>
  </outline>
</glyph>
<glyph name="eogonek" format="2">
  <advance width="993.9437272727273"/>
  <unicode hex="0119"/>
  <outline>
    <contour>
      <point x="703.1113181818182" y="-403.3518181818182" type="curve" smooth="yes"/>
      <point x="753.7872272727273" y="-403.3518181818182"/>
      <point x="811.3961818181818" y="-388.46354545454545"/>
      <point x="854.7872272727273" y="-362.96631818181817" type="curve"/>
      <point x="854.7872272727273" y="-301.4358181818182" type="line"/>
      <point x="805.0106818181819" y="-330.76545454545453"/>
      <point x="754.6251818181819" y="-345.3185454545455"/>
      <point x="703.7424545454546" y="-345.3185454545455" type="curve" smooth="yes"/>
      <point x="622.8541818181818" y="-345.3185454545455"/>
      <point x="574.4128181818182" y="-301.76545454545453"/>
      <point x="574.4128181818182" y="-225.93859090909092" type="curve" smooth="yes"/>
      <point x="574.4128181818182" y="-143.3855"/>
      <point x="626.1335" y="-45.72622727272727"/>
      <point x="854.7872272727273" y="27.994454545454545" type="curve"/>
      <point x="854.7872272727273" y="109.5693181818182" type="line"/>
      <point x="752.4017272727273" y="77.4631363636364"/>
      <point x="667.4520454545454" y="61.68659090909094"/>
      <point x="587.061" y="61.68659090909094" type="curve" smooth="yes"/>
      <point x="334.1727272727273" y="61.68659090909094"/>
      <point x="196.47977272727275" y="186.93818181818185"/>
      <point x="196.47977272727275" y="531.5923181818182" type="curve" smooth="yes"/>
      <point x="196.47977272727275" y="554.9718636363637" type="line" smooth="yes"/>
      <point x="196.47977272727275" y="899.0225909090909"/>
      <point x="320.39618181818184" y="1019.8328181818182"/>
      <point x="512.3070454545455" y="1019.8328181818182" type="curve" smooth="yes"/>
      <point x="703.2179090909091" y="1019.8328181818182"/>
      <point x="816.6929545454545" y="898.0225909090909"/>
      <point x="816.6929545454545" y="554.916" type="curve"/>
      <point x="845.5923181818182" y="580.4132272727272" type="line"/>
      <point x="149.7147272727273" y="580.4132272727272" type="line"/>
      <point x="149.7147272727273" y="505.5867727272727" type="line"/>
      <point x="905.6251818181819" y="505.5867727272727" type="line"/>
      <point x="905.6251818181819" y="539.8324090909091" type="line" smooth="yes"/>
      <point x="905.6251818181819" y="932.1565"/>
      <point x="758.1727272727273" y="1097.229"/>
      <point x="512.5863636363637" y="1097.229" type="curve" smooth="yes"/>
      <point x="267.71513636363636" y="1097.229"/>
      <point x="104.9275" y="931.2123636363636"/>
      <point x="104.9275" y="540.6145" type="curve" smooth="yes"/>
      <point x="104.9275" y="141.67036363636365"/>
      <point x="275.43581818181815" y="-18.223454545454548"/>
      <point x="579.8209090909091" y="-18.223454545454548" type="curve" smooth="yes"/>
      <point x="609.1616363636364" y="-18.223454545454548"/>
      <point x="640.7816818181818" y="-16.223454545454548"/>
      <point x="669.5693181818182" y="-12.16759090909091" type="curve"/>
      <point x="666.0106818181819" y="2.4076818181818256" type="line"/>
      <point x="562.1394545454546" y="-53.59786363636363"/>
      <point x="508.35736363636363" y="-136.71513636363636"/>
      <point x="508.35736363636363" y="-231.27931818181818" type="curve" smooth="yes"/>
      <point x="508.35736363636363" y="-338.0110909090909"/>
      <point x="580.8098181818182" y="-403.3518181818182"/>
    </contour>
  </outline>
</glyph>
<glyph name="idotless" format="2">
  <advance width="419.84309090909096"/>
  <unicode hex="0131"/>
  <anchor x="209.92154545454548" y="0.0" name="bottom"/>
  <anchor x="253.9211363636364" y="0.0" name="ogonek"/>
  <anchor x="209.92154545454548" y="1200.0" name="top"/>
  <outline>
    <contour>
      <point x="165.92195454545453" y="0.0" type="line"/>
      <point x="253.9211363636364" y="0.0" type="line"/>
      <point x="253.9211363636364" y="1081.1172727272726" type="line"/>
      <point x="165.92195454545453" y="1081.1172727272726" type="line"/>
    </contour>
  </outline>
</glyph>
<glyph name="ldot" format="2">
  <advance width="444.1437727272728"/>
  <unicode hex="0140"/>
  <outline>
    <contour>
      <point x="165.92195454545453" y="0.0" type="line"/>
      <point x="253.86527272727275" y="0.0" type="line"/>
      <point x="253.86527272727275" y="1616.0" type="line"/>
      <point x="165.92195454545453" y="1616.0" type="line"/>
    </contour>
    <contour>
      <point x="421.5241363636364" y="721.843909090909" type="curve" smooth="yes"/>
      <point x="465.3450454545455" y="721.843909090909"/>
      <point x="494.2499545454546" y="748.7488181818181"/>
      <point x="494.2499545454546" y="792.1117272727273" type="curve" smooth="yes"/>
      <point x="494.2499545454546" y="835.4746363636364"/>
      <point x="465.3450454545455" y="864.2678181818183"/>
      <point x="421.5241363636364" y="864.2678181818183" type="curve" smooth="yes"/>
      <point x="377.7032272727273" y="864.2678181818183"/>
      <point x="348.7983181818182" y="835.4746363636364"/>
      <point x="348.7983181818182" y="792.1117272727273" type="curve" smooth="yes"/>
      <point x="348.7983181818182" y="748.7488181818181"/>
      <point x="377.7032272727273" y="721.843909090909"/>
    </contour>
  </outline>
</glyph>
